<svg id="amazon" xmlns="http://www.w3.org/2000/svg" width="315.243" height="95" viewBox="0 0 315.243 95">
  <path id="path8" d="M291.911,205.949c-18.319,13.5-44.872,20.707-67.733,20.707a122.567,122.567,0,0,1-82.746-31.575c-1.715-1.551-.178-3.664,1.88-2.456A166.539,166.539,0,0,0,226.1,214.58a164.623,164.623,0,0,0,63.15-12.913c3.1-1.317,5.695,2.031,2.662,4.281" transform="translate(-96.34 -131.656)" fill="#dddddd" fill-rule="evenodd"/>
  <path id="path10" d="M594.793,190.078c-2.333-2.991-15.479-1.413-21.379-.714-1.8.22-2.072-1.345-.453-2.47,10.47-7.369,27.651-5.242,29.654-2.772s-.521,19.705-10.36,27.925c-1.509,1.262-2.95.59-2.278-1.084,2.209-5.516,7.163-17.88,4.817-20.885" transform="translate(-391.607 -124.499)" fill="#dddddd" fill-rule="evenodd"/>
  <path id="path12" d="M574.062,13.415V6.252a1.767,1.767,0,0,1,1.811-1.811h32.069a1.785,1.785,0,0,1,1.852,1.811v6.134c-.014,1.029-.878,2.374-2.415,4.5L590.762,40.612c6.175-.151,12.693.768,18.292,3.925a3.263,3.263,0,0,1,1.7,2.786v7.643c0,1.043-1.153,2.264-2.36,1.633a36.942,36.942,0,0,0-33.88.055c-1.112.6-2.278-.6-2.278-1.647V47.748a8.662,8.662,0,0,1,1.18-4.926l19.252-27.609H575.914a1.774,1.774,0,0,1-1.852-1.8" transform="translate(-391.843 -3.04)" fill="#dddddd" fill-rule="evenodd"/>
  <path id="path14" d="M181.96,56.111H172.2a1.843,1.843,0,0,1-1.743-1.66V4.378a1.832,1.832,0,0,1,1.88-1.8h9.1a1.837,1.837,0,0,1,1.77,1.674V10.8h.178c2.374-6.326,6.834-9.276,12.844-9.276,6.106,0,9.921,2.95,12.666,9.276A14.409,14.409,0,0,1,233.666,7c3.088,4.213,2.456,10.333,2.456,15.7l-.014,31.6a1.843,1.843,0,0,1-1.88,1.811h-9.743a1.855,1.855,0,0,1-1.756-1.811V27.761c0-2.113.192-7.383-.274-9.386-.727-3.362-2.909-4.309-5.736-4.309a6.481,6.481,0,0,0-5.832,4.1c-1,2.525-.906,6.751-.906,9.592V54.3a1.843,1.843,0,0,1-1.88,1.811h-9.743A1.844,1.844,0,0,1,196.6,54.3l-.014-26.539c0-5.585.919-13.8-6.01-13.8-7.012,0-6.738,8.014-6.738,13.8V54.3a1.843,1.843,0,0,1-1.88,1.811" transform="translate(-116.724 -1.043)" fill="#dddddd" fill-rule="evenodd"/>
  <path id="path16" d="M731.267,1.524c14.477,0,22.313,12.432,22.313,28.241,0,15.273-8.659,27.39-22.313,27.39-14.216,0-21.956-12.432-21.956-27.925,0-15.589,7.835-27.705,21.956-27.705m.082,10.223c-7.191,0-7.643,9.8-7.643,15.9s-.1,19.184,7.561,19.184c7.561,0,7.918-10.539,7.918-16.961,0-4.226-.178-9.276-1.455-13.283-1.1-3.485-3.28-4.844-6.381-4.844" transform="translate(-485.705 -1.043)" fill="#dddddd" fill-rule="evenodd"/>
  <path id="path18" d="M884.336,56.111h-9.715a1.855,1.855,0,0,1-1.756-1.811l-.014-50.087a1.845,1.845,0,0,1,1.88-1.633h9.043a1.867,1.867,0,0,1,1.743,1.4v7.657h.178c2.731-6.847,6.559-10.113,13.3-10.113,4.377,0,8.645,1.578,11.39,5.9,2.552,4.007,2.552,10.745,2.552,15.589v31.52a1.874,1.874,0,0,1-1.88,1.578H901.27a1.848,1.848,0,0,1-1.729-1.578v-27.2c0-5.475.631-13.489-6.106-13.489a6.377,6.377,0,0,0-5.64,4.007c-1.372,3.06-1.551,6.106-1.551,9.482V54.3a1.876,1.876,0,0,1-1.907,1.811" transform="translate(-597.69 -1.043)" fill="#dddddd" fill-rule="evenodd"/>
  <path id="path28" d="M434.485,31.15c0,3.8.1,6.971-1.825,10.347-1.551,2.744-4.021,4.432-6.751,4.432-3.746,0-5.942-2.854-5.942-7.067,0-8.316,7.451-9.825,14.518-9.825V31.15m9.839,23.781a2.037,2.037,0,0,1-2.305.233c-3.238-2.69-3.828-3.938-5.6-6.5-5.352,5.461-9.153,7.094-16.083,7.094-8.22,0-14.6-5.064-14.6-15.2a16.558,16.558,0,0,1,10.4-15.945c5.3-2.333,12.693-2.744,18.347-3.389V19.953c0-2.319.178-5.064-1.194-7.067a6.494,6.494,0,0,0-5.475-2.539c-3.719,0-7.026,1.907-7.835,5.859a2.041,2.041,0,0,1-1.7,1.784l-9.455-1.015a1.719,1.719,0,0,1-1.455-2.045C409.538,3.458,419.912,0,429.189,0c4.748,0,10.95,1.262,14.7,4.858,4.748,4.432,4.3,10.347,4.3,16.782v15.2c0,4.57,1.894,6.573,3.678,9.043a1.845,1.845,0,0,1-.041,2.594c-1.99,1.66-5.53,4.748-7.479,6.477l-.014-.027" transform="translate(-277.831)" fill="#dddddd" fill-rule="evenodd"/>
  <path id="path30" d="M28.748,31.15c0,3.8.1,6.971-1.825,10.347-1.551,2.744-4.007,4.432-6.751,4.432-3.746,0-5.928-2.854-5.928-7.067,0-8.316,7.451-9.825,14.5-9.825V31.15m9.839,23.781a2.037,2.037,0,0,1-2.305.233c-3.238-2.69-3.815-3.938-5.6-6.5-5.352,5.461-9.139,7.094-16.083,7.094C6.395,55.754,0,50.691,0,40.55A16.578,16.578,0,0,1,10.4,24.6c5.3-2.333,12.693-2.744,18.347-3.389V19.953c0-2.319.178-5.064-1.18-7.067a6.528,6.528,0,0,0-5.475-2.539c-3.719,0-7.04,1.907-7.849,5.859a2.041,2.041,0,0,1-1.688,1.784L3.088,16.975A1.728,1.728,0,0,1,1.633,14.93C3.815,3.458,14.175,0,23.451,0,28.2,0,34.4,1.263,38.148,4.858c4.748,4.432,4.3,10.347,4.3,16.782v15.2c0,4.57,1.894,6.573,3.678,9.043a1.833,1.833,0,0,1-.027,2.594c-1.99,1.66-5.53,4.748-7.479,6.477l-.027-.027" fill="#dddddd" fill-rule="evenodd"/>
</svg>
