<svg xmlns="http://www.w3.org/2000/svg" xmlns:xlink="http://www.w3.org/1999/xlink" version="1.1" id="Layer_1" width="300" height="124.667" viewBox="0 0 300 124.667" overflow="visible" enable-background="new 0 0 300 124.667" xml:space="preserve">
<path id="Beyond_any_store_of_its_kind" fill-rule="evenodd" clip-rule="evenodd" fill="#384A9C" d="M12.195,108.678  c1.348-0.667,1.958-1.679,1.958-2.867c0-2.999-3.007-3.972-6.632-3.972H4.274v14.682h4.59c3.915,0,7.106-1.177,7.106-4.094  C15.97,110.683,14.567,109.105,12.195,108.678z M6.468,103.36h0.877c2.719,0,4.59,0.233,4.59,2.45c0,2.283-2.106,2.497-4.622,2.497  H6.468V103.36z M8.688,115h-2.22v-5.292h1.928c2.427,0,5.349,0.336,5.349,2.601C13.745,114.544,11.146,115,8.688,115z   M22.985,107.12c-3.861,0-5.996,2.236-5.996,4.945c0,2.619,2.368,4.707,6.052,4.707c2.515,0,4.5-0.947,5.698-2.572l-1.809-0.761  c-0.789,1.097-1.958,1.894-3.742,1.894c-2.398,0-4.005-1.374-4.037-3.053h9.675C29.032,109.55,26.931,107.12,22.985,107.12z   M19.241,110.942c0.264-1.317,1.959-2.383,3.773-2.383c1.842,0,3.333,1.066,3.625,2.383H19.241z M28.569,107.369l5.669,8.291  l-3.975,5.996h2.365l9.119-14.286h-2.394l-3.977,6.562l-4.353-6.562H28.569 M47.977,107.12c-3.625,0-6.487,2.161-6.487,4.844  c0,2.691,2.891,4.808,6.487,4.808s6.487-2.117,6.487-4.808C54.464,109.281,51.602,107.12,47.977,107.12z M47.977,115.333  c-2.603,0-4.386-1.521-4.386-3.387c0-1.858,1.783-3.388,4.386-3.388s4.386,1.529,4.386,3.388  C52.363,113.812,50.58,115.333,47.977,115.333z M58.353,108.474v-1.105h-2.101v9.152h2.101v-4.345c0-1.633,0.179-3.618,3.069-3.618  c2.461,0,2.603,1.317,2.603,2.803v5.16h2.106v-5.429c0-2.146-0.792-3.972-4.208-3.972c-1.524,0-2.665,0.481-3.509,1.354H58.353   M78.174,100.465v8.213h-0.06c-0.994-0.973-2.572-1.558-4.21-1.558c-3.711,0-5.934,2.236-5.934,4.844  c0,2.525,2.282,4.808,5.908,4.808c1.664,0,3.216-0.528,4.236-1.521h0.06v1.271h2.104v-16.056H78.174z M74.171,115.333  c-2.632,0-4.065-1.697-4.065-3.49c0-1.708,1.576-3.284,4.032-3.284c2.603,0,4.153,1.485,4.153,3.305  C78.291,113.708,76.857,115.333,74.171,115.333z M99.222,107.369v1.309h-0.06c-1.022-0.973-2.543-1.558-4.239-1.558  c-3.685,0-5.936,2.236-5.936,4.844c0,2.525,2.285,4.808,5.907,4.808c1.754,0,3.186-0.52,4.267-1.521h0.06v1.271h2.101v-9.152H99.222  z M95.188,115.333c-2.603,0-4.037-1.697-4.037-3.49c0-1.708,1.579-3.284,4.005-3.284c2.604,0,4.153,1.485,4.153,3.305  C99.31,113.708,97.905,115.333,95.188,115.333z M106.206,108.474v-1.105h-2.101v9.152h2.101v-4.345c0-1.633,0.176-3.618,3.072-3.618  c2.456,0,2.601,1.317,2.601,2.803v5.16h2.106v-5.429c0-2.146-0.789-3.972-4.21-3.972c-1.521,0-2.657,0.481-3.509,1.354H106.206   M114.828,107.369l5.672,8.291l-4.006,5.996h2.399l9.121-14.286h-2.396l-4.006,6.562l-4.357-6.562H114.828 M140.818,109.496  l1.754-0.688c-0.556-0.955-1.871-1.687-3.276-1.687c-1.987,0-3.682,1.048-3.682,2.587c0,2.877,5.584,2.174,5.584,4.223  c0,0.828-0.877,1.402-2.018,1.402c-1.374,0-1.987-0.613-2.513-1.467l-1.874,0.584c0.673,1.439,2.282,2.321,4.357,2.321  c2.311,0,4.182-1.252,4.182-2.979c0-1.542-1.408-2.181-2.867-2.626c-1.431-0.447-2.864-0.753-2.864-1.596  c0-0.585,0.789-1.012,1.521-1.012C139.882,108.559,140.526,109.004,140.818,109.496 M147.394,116.521v-7.714h2.223v-1.438h-2.223  v-3.294h-2.073v3.294h-1.286v1.438h1.286v7.714H147.394 M155.785,107.12c-3.625,0-6.487,2.161-6.487,4.844  c0,2.691,2.89,4.808,6.487,4.808c3.597,0,6.487-2.117,6.487-4.808C162.272,109.281,159.411,107.12,155.785,107.12z M155.785,115.333  c-2.603,0-4.386-1.521-4.386-3.387c0-1.858,1.783-3.388,4.386-3.388c2.604,0,4.386,1.529,4.386,3.388  C160.171,113.812,158.389,115.333,155.785,115.333z M166.045,108.362v-0.994h-2.106v9.152h2.106v-4.575  c0-1.188,0.116-3.388,2.427-3.388c0.554,0,0.846,0.184,1.257,0.399l0.994-1.411c-0.584-0.251-1.169-0.427-1.871-0.427  c-1.374,0-2.019,0.518-2.751,1.242H166.045 M176.654,107.12c-3.884,0-5.99,2.236-5.99,4.945c0,2.619,2.34,4.707,6.024,4.707  c2.543,0,4.528-0.947,5.698-2.572l-1.783-0.761c-0.82,1.097-1.956,1.894-3.744,1.894c-2.394,0-4.032-1.374-4.061-3.053h9.704  C182.707,109.55,180.604,107.12,176.654,107.12z M172.915,110.942c0.265-1.317,1.931-2.383,3.739-2.383  c1.843,0,3.364,1.066,3.626,2.383H172.915z M196.652,107.12c-3.623,0-6.493,2.161-6.493,4.844c0,2.691,2.896,4.808,6.493,4.808  c3.597,0,6.489-2.117,6.489-4.808C203.142,109.281,200.277,107.12,196.652,107.12z M196.652,115.333  c-2.604,0-4.387-1.521-4.387-3.387c0-1.858,1.783-3.388,4.387-3.388c2.601,0,4.386,1.529,4.386,3.388  C201.038,113.812,199.253,115.333,196.652,115.333z M207.207,116.521v-7.714h3.126v-1.438h-3.126v-3.09c0-1.615,0-2.505,1.721-2.505  c0.53,0,0.937,0.091,1.405,0.212V100.4c-0.494-0.111-0.996-0.186-1.493-0.186c-1.258,0-2.481,0.333-3.183,1.141  c-0.56,0.667-0.56,1.615-0.56,2.375v3.638h-1.136v1.438h1.136v7.714H207.207 M218.401,107.369h2.106v9.152h-2.106V107.369   M220.942,103.917c0,0.631-0.673,1.123-1.488,1.123c-0.817,0-1.49-0.492-1.49-1.123c0-0.592,0.673-1.105,1.49-1.105  C220.27,102.812,220.942,103.324,220.942,103.917z M226.001,116.521v-7.714h2.191v-1.438h-2.191v-3.294h-2.106v3.294h-1.286v1.438  h1.286v7.714H226.001 M233.979,109.496l1.755-0.688c-0.552-0.955-1.871-1.687-3.271-1.687c-2.019,0-3.685,1.048-3.685,2.587  c0,2.877,5.556,2.174,5.556,4.223c0,0.828-0.852,1.402-1.987,1.402c-1.405,0-1.99-0.613-2.515-1.467l-1.871,0.584  c0.642,1.439,2.279,2.321,4.353,2.321c2.284,0,4.182-1.252,4.182-2.979c0-1.542-1.434-2.181-2.862-2.626  c-1.434-0.447-2.864-0.753-2.864-1.596c0-0.585,0.789-1.012,1.519-1.012C233.047,108.559,233.687,109.004,233.979,109.496   M247.341,110.758v-10.293h-2.106v16.056h2.106v-3.76l0.557-0.417l4.966,4.176h2.779l-6.283-5.253l5.289-3.899h-2.808  L247.341,110.758 M256.988,107.369h2.104v9.152h-2.104V107.369 M259.531,103.917c0,0.631-0.673,1.123-1.493,1.123  c-0.817,0-1.49-0.492-1.49-1.123c0-0.592,0.673-1.105,1.49-1.105C258.858,102.812,259.531,103.324,259.531,103.917z   M264.472,108.474v-1.105h-2.109v9.152h2.109v-4.345c0-1.633,0.176-3.618,3.066-3.618c2.455,0,2.603,1.317,2.603,2.803v5.16h2.106  v-5.429c0-2.146-0.792-3.972-4.213-3.972c-1.519,0-2.66,0.481-3.503,1.354H264.472 M284.29,100.465v8.213h-0.031  c-1.021-0.973-2.598-1.558-4.238-1.558c-3.711,0-5.934,2.236-5.934,4.844c0,2.525,2.282,4.808,5.907,4.808  c1.667,0,3.217-0.528,4.265-1.521h0.031v1.271h2.104v-16.056H284.29z M280.287,115.333c-2.632,0-4.065-1.697-4.065-3.49  c0-1.708,1.576-3.284,4.031-3.284c2.604,0,4.153,1.485,4.153,3.305C284.406,113.708,282.973,115.333,280.287,115.333z   M292.71,115.659c0-0.577-0.673-1.068-1.462-1.068c-0.822,0-1.495,0.491-1.495,1.068c0,0.593,0.673,1.113,1.495,1.113  C292.037,116.772,292.71,116.252,292.71,115.659 M292.296,94.645c-2.394,0-4.293,1.892-4.293,4.27c0,2.394,1.899,4.277,4.293,4.277  c2.399,0,4.298-1.884,4.298-4.277C296.594,96.537,294.695,94.645,292.296,94.645z M292.296,102.542  c-1.959,0-3.651-1.604-3.651-3.628c0-2.016,1.692-3.62,3.651-3.62s3.656,1.604,3.656,3.62  C295.952,100.938,294.255,102.542,292.296,102.542z M294.402,97.792c0-1.012-0.814-1.234-1.664-1.234h-2.047v4.676h0.673v-2.161  h0.79l1.399,2.161h0.789l-1.428-2.161C293.758,99.052,294.402,98.718,294.402,97.792z M292.154,98.423h-0.79v-1.216h1.225  c0.53,0,1.141,0.083,1.141,0.574C293.729,98.524,292.71,98.423,292.154,98.423z"/>
<path id="Bed_Bath__x26__Beyond" fill-rule="evenodd" clip-rule="evenodd" fill="#384A9C" d="M4.654,59.215h15.787  c7.191,0,14.556,1.57,14.556,9.375c0,2.97-1.633,5.895-4.883,6.831v0.28c4.037,1.289,6.609,3.99,6.609,8.027  c0,6.966-7.106,9.346-13.622,9.346H4.654V59.215 M18.452,72.239c1.99,0,4.21-0.176,4.21-2.515c0-2.525-2.543-2.345-4.502-2.345  h-0.932v4.86H18.452z M17.228,84.991h1.517c2.223,0,5.439-0.047,5.439-2.831c0-2.826-3.447-2.774-5.644-2.774h-1.312V84.991z   M38.886,59.215v33.859h27.771v-9.248H53.765v-3.328h11.37V71.69h-11.37v-3.229h12.454v-9.246H38.886 M85.425,59.215H66.628  l15.927,19.26v14.599h16.258V78.475l15.634-19.26H95.773l-3.276,5.654c-0.585,1.04-1.02,2.117-1.491,3.188H90.51L85.425,59.215   M161.458,76.234c0,10.874-12.193,17.371-27.16,17.371c-14.995,0-27.154-6.498-27.154-17.371c0-10.65,12.247-17.565,27.154-17.565  C149.208,58.669,161.458,65.583,161.458,76.234 M125.122,76.41c0,3.866,3.77,6.51,9.175,6.51c5.411,0,9.181-2.645,9.181-6.51  c0-3.586-3.509-6.593-9.181-6.593C128.625,69.817,125.122,72.824,125.122,76.41z M219.338,59.215h28.18  c25.576,0,45.159,4.981,45.159,17.422c0,10.053-15.961,16.437-38.292,16.437h-35.047V59.215 M247.021,82.92h1.721  c9.181,0,16.253-1.884,16.253-6.329c0-4.751-6.166-6.774-16.253-6.774h-1.721V82.92z M286.687,59.583  c0-2.507,1.984-4.515,4.528-4.515c2.543,0,4.536,2.008,4.536,4.515c0,2.51-1.993,4.505-4.536,4.505  C288.671,64.088,286.687,62.093,286.687,59.583 M295.05,59.583c0-2.125-1.755-3.812-3.835-3.812c-2.073,0-3.827,1.687-3.827,3.812  c0,2.13,1.754,3.814,3.827,3.814C293.295,63.397,295.05,61.712,295.05,59.583z M293.35,62.018h-0.815l-1.49-2.267h-0.82v2.267  h-0.701v-4.927h2.16c0.878,0,1.755,0.233,1.755,1.304c0,0.96-0.673,1.33-1.55,1.356L293.35,62.018z M291.044,59.047  c0.613,0,1.694,0.125,1.694-0.667c0-0.51-0.673-0.603-1.197-0.603h-1.317v1.271H291.044z M181.978,59.238h-18.331v33.857h18.243  V75.867l16.165,17.229h18.212V59.238h-18.212v17.539L181.978,59.238 M4.566,4.716h5.499c8.42,0,16.398,2.211,16.398,12.312  c0,3.267-1.783,7.071-4.823,8.51v0.118c5.292,0.952,8.977,6.12,8.977,11.35c0,8.985-7.662,12.548-15.585,12.548H4.566V4.716   M10.182,24.585h1.402c5.317,0,9.647-1.081,9.647-7.499c0-6.298-4.296-7.367-9.504-7.367h-1.545V24.585z M10.182,44.56h4.264  c5.175,0,10.581-1.541,10.581-7.913c0-6.297-6.428-7.604-11.396-7.604h-3.449V44.56z M33.887,4.716v44.837h24.086v-5.109H39.471  V27.497H57.45v-5.124H39.471V9.825h18.501V4.716H33.887 M63.208,4.716h9.264c13.743,0,25.172,7.261,25.172,22.188  c0,15.28-11.199,22.649-25.343,22.649h-9.093V4.716 M68.792,44.444h1.959c11.43,0,21.312-4.293,21.312-17.304  c0-13.084-9.882-17.315-21.312-17.315h-1.959V44.444z M113.366,4.716h5.468c8.451,0,16.429,2.211,16.429,12.312  c0,3.267-1.783,7.071-4.821,8.51v0.118c5.289,0.952,8.974,6.12,8.974,11.35c0,8.985-7.662,12.548-15.583,12.548h-10.467V4.716   M118.956,24.585h1.428c5.292,0,9.649-1.081,9.649-7.499c0-6.298-4.298-7.367-9.533-7.367h-1.545V24.585z M118.956,44.56h4.293  c5.175,0,10.586-1.541,10.586-7.913c0-6.297-6.433-7.604-11.432-7.604h-3.447V44.56z M150.229,38.313l-5.113,11.239h-5.993  l21.395-46.738l21.4,46.738h-5.99l-5.116-11.239H150.229 M160.518,15.067l-7.978,18.132h15.96L160.518,15.067z M191.798,49.553  V9.825h10.643V4.716h-26.867v5.109h10.643v39.728H191.798 M232.4,22.792h-21.338V4.716h-5.584v44.837h5.584V28.032H232.4v21.521  h5.584V4.716H232.4V22.792 M279.757,43.493c-3.388,3.981-8.126,7.013-13.417,7.013c-7.512,0-13.735-5.468-13.735-13.204  c0-5.705,3.563-8.794,7.833-11.885l2.802-2.02c-2.543-2.687-4.937-6.014-4.937-9.815c0-6.193,4.474-9.817,10.348-9.817  c5.468,0,10.346,3.448,10.346,9.341c0,5.05-4.381,8.437-8.154,11.171l9.357,11.298l5.229-6.058l3.568,3.683l-5.468,6.433  l8.012,9.921h-6.901L279.757,43.493 M265.993,27.795c-3.101,2.139-8.159,5.172-8.159,9.446c0,4.293,4.031,8.275,8.33,8.275  c4.152,0,7.485-3.152,10.288-5.959l-9.937-12.119L265.993,27.795z M268.415,19.938c2.251-1.782,5.351-3.624,5.351-6.891  c0-3.149-2.251-4.885-5.229-4.885c-2.665,0-5.004,1.915-5.004,4.767c0,2.257,1.374,3.921,2.69,5.585l1.491,1.901L268.415,19.938z"/>
<rect fill-rule="evenodd" clip-rule="evenodd" fill="none" width="300" height="124.667"/>
</svg>