<svg xmlns="http://www.w3.org/2000/svg" width="108.689" height="109.643" viewBox="0 0 108.689 109.643">
  <g id="Group_18" data-name="Group 18" transform="translate(-249.939 -628.27)">
    <path id="Path_53" data-name="Path 53" d="M339.039,730.2a24.209,24.209,0,0,0,2.882,3.4,15.141,15.141,0,0,0,3.43,2.539,8.03,8.03,0,0,0,3.843.995,5.955,5.955,0,0,0,3.19-.789,6.737,6.737,0,0,0,2.059-1.955,8.837,8.837,0,0,0,1.166-2.436,10.723,10.723,0,0,0,.446-2.161q.068-.618.172-3.053t.24-5.729q.137-3.294.24-7.067c.069-2.515.137-2.342.206-4.584s.125-4.186.171-5.832.069-2.721.069-3.225a3.492,3.492,0,0,0-.24-1.337.863.863,0,0,0-.858-.584h-.274a1.5,1.5,0,0,0-.995.378,2,2,0,0,0-.446,1.543v9.126c0,2.242-.011,2.045-.034,4.515s-.047,4.78-.069,6.93-.034,3.979-.034,5.488-.024,2.4-.068,2.676a16.574,16.574,0,0,1-.137,1.784,9.765,9.765,0,0,1-.583,2.333,5.833,5.833,0,0,1-1.338,2.058,3.244,3.244,0,0,1-2.4.892,5.406,5.406,0,0,1-2.813-.823,10.634,10.634,0,0,1-2.539-2.161,23.436,23.436,0,0,1-2.2-2.984,34.642,34.642,0,0,1-1.852-3.363q-.823-1.713-1.475-3.327t-1.064-2.779a4.984,4.984,0,0,0-.308-.412.632.632,0,0,0-.515-.206,1.892,1.892,0,0,0-.961.343q-1.1.618-1.1,1.441a6.406,6.406,0,0,0,.515,1.818,24.962,24.962,0,0,0,1.44,3.019A38.243,38.243,0,0,0,339.039,730.2Z" transform="translate(-30.793 -25.423)" fill="#22424D"/>
    <path id="Path_54" data-name="Path 54" d="M341.546,690.071q.818-.058,1.583-.091.879-.036,1.613-.037h.48a.541.541,0,0,0,.467-.186.582.582,0,0,0,.088-.331l-.01-.073a1.28,1.28,0,0,0-.282-.486.811.811,0,0,0-.633-.328c-.074,0-.277.008-1.222.074q-.9.064-1.954.154.094-.8.2-1.555a15.926,15.926,0,0,1,.308-1.632l.009-.071a.538.538,0,0,0-.555-.591.923.923,0,0,0-.5.2,1.021,1.021,0,0,0-.4.445,4.454,4.454,0,0,0-.214,1.265q-.1.919-.2,2.033-1.036.1-1.911.161c-.89.068-1.109.1-1.183.113a1.624,1.624,0,0,0-.5.14c-.141.071-.311.239-.308.671a.839.839,0,0,0,.25.576.583.583,0,0,0,.377.163h.069l.062-.031a1.412,1.412,0,0,0,.159-.092c.018-.012.038-.024.061-.036.453-.07.939-.142,1.461-.213.416-.057.864-.108,1.334-.152q-.091,1.051-.155,1.925c-.05.688-.074,1.087-.074,1.221a1.845,1.845,0,0,0,.068.527.586.586,0,0,0,.634.4c.7,0,.776-.388.776-.555a1.1,1.1,0,0,0-.074-.342c0-.474.02-1.017.055-1.617Q341.483,690.9,341.546,690.071Z" transform="translate(-31.366 -20.543)" fill="#22424D"/>
    <path id="Path_55" data-name="Path 55" d="M357.764,674.575,357.3,672.2c-.126-.8-.408-1.558-.611-2.336-.227-.772-.429-1.549-.675-2.314l-.832-2.261c-.5-1.525-1.251-2.952-1.894-4.414a18.1,18.1,0,0,0-2.439-4.206,1.478,1.478,0,0,0-1.04-.372,2.766,2.766,0,0,0-.888.159c-5.571,1.752-11.339,5.146-17.784,8.854s-13,7.724-19.661,12.046q-5.263,3.414-10.437,6.88a3.594,3.594,0,0,0-.542-.715,5.015,5.015,0,0,0-3.636-1.1,9.566,9.566,0,0,0-4.082,1.166q-2.367,1.167-5.043,2.573t-5.523,2.573a14.676,14.676,0,0,1-10.292.446,9.008,9.008,0,0,1-3.328-1.99,7.793,7.793,0,0,1-1.921-2.984,10.852,10.852,0,0,1-.618-3.705,17.923,17.923,0,0,1,1.681-7.239,25.813,25.813,0,0,1,11.664-12.35,18.642,18.642,0,0,1,8.748-2.092,22.33,22.33,0,0,1,5.489.583,12.152,12.152,0,0,1,3.7,1.544,6.735,6.735,0,0,1,2.127,2.127,4.58,4.58,0,0,1,.686,2.333,4.4,4.4,0,0,1-1.544,3.294,5.84,5.84,0,0,1-4.151,1.44,13.572,13.572,0,0,1-1.475-.137,10.37,10.37,0,0,1-2.333-.618,11.433,11.433,0,0,1-2.573-1.407,7.4,7.4,0,0,1-2.2-2.573.874.874,0,0,0-.206-.343c-.184-.182-.321-.274-.412-.274a1.128,1.128,0,0,0-.892.617,1.982,1.982,0,0,0-.412.961,3.246,3.246,0,0,0,.823,1.887,9.612,9.612,0,0,0,2.161,1.989,13.876,13.876,0,0,0,2.95,1.544,8.867,8.867,0,0,0,3.191.618,10.994,10.994,0,0,0,3.808-.618,9.726,9.726,0,0,0,2.882-1.612,6.7,6.7,0,0,0,1.818-2.3,6.191,6.191,0,0,0,.618-2.676,5.89,5.89,0,0,0-.686-2.711,6.763,6.763,0,0,0-2.2-2.4,12.5,12.5,0,0,0-3.842-1.716,20.848,20.848,0,0,0-5.557-.651,23.7,23.7,0,0,0-10.806,2.435,28.628,28.628,0,0,0-8.233,6.107,27.929,27.929,0,0,0-5.249,7.993,20.765,20.765,0,0,0-1.853,8.165,10.592,10.592,0,0,0,2.333,7q2.332,2.814,7.341,2.813a17.944,17.944,0,0,0,6.518-1.339,69.4,69.4,0,0,0,6.621-2.984q3.19-1.647,5.866-2.985a10.348,10.348,0,0,1,4.254-1.338,3.778,3.778,0,0,1,2.607.755,2.361,2.361,0,0,1,.509.7q-4.047,2.718-8.045,5.464c-5.794,3.987-17.248,11.561-18.814,12.9a21.22,21.22,0,0,0-3.434,3.478,5.422,5.422,0,0,0-1.022,3.117,6.4,6.4,0,0,0,.068.789,2.424,2.424,0,0,0,.412,1.029,3.243,3.243,0,0,0,.995.927,3.394,3.394,0,0,0,1.818.412,17.917,17.917,0,0,0,6.758-1.407,36.462,36.462,0,0,0,6.792-3.671,44.652,44.652,0,0,0,6.278-5.181,51.719,51.719,0,0,0,5.145-5.866,32.838,32.838,0,0,0,3.5-5.763,11.957,11.957,0,0,0,1.3-4.871c0-.138-.022-.261-.031-.393q6.165-3.97,12.419-7.853,7.344-4.545,13.477-8.1t10.2-5.773q4.069-2.22,4.69-2.208c.177,0,.306.154.389.45a.8.8,0,0,0,.766.488,3.13,3.13,0,0,0,.867-.117,7.587,7.587,0,0,0,1.471-.709q1.119-.642,2.33-1.5a22.193,22.193,0,0,0,2.158-1.727,3.631,3.631,0,0,0,.848-1.029c4.622,11.093,6.838,23.734,4.081,35.451A53.184,53.184,0,0,1,319.391,732.4a51.983,51.983,0,0,1-18.243,2.4,53.613,53.613,0,0,1-33.664-14.074,50.442,50.442,0,0,1-6.291-6.956,49.191,49.191,0,0,1-4.926-8.014,50.174,50.174,0,0,1-5.009-18.088,51.88,51.88,0,0,1,10.32-35.189,55.511,55.511,0,0,1,13.287-12.835l1.951-1.254A18.674,18.674,0,0,1,278.8,637.2l2.051-1.085,1.027-.542,1.068-.454a44.308,44.308,0,0,1,4.308-1.733l2.2-.748a8.961,8.961,0,0,1,1.117-.322l1.129-.281a55.42,55.42,0,0,1,36.7,3.26l.145-.284c-1.418-.721-2.821-1.494-4.268-2.178l-2.228-.895-1.117-.448a9.475,9.475,0,0,0-1.131-.408l-2.3-.706a21.6,21.6,0,0,0-2.326-.641l-2.363-.5-1.185-.246-1.2-.152a45.762,45.762,0,0,0-4.82-.468l-2.426-.085a9.621,9.621,0,0,0-1.213.013l-1.213.058-2.429.118c-.806.075-1.608.2-2.413.3s-1.613.2-2.412.338l-2.378.528a52.738,52.738,0,0,0-31.7,21.3,53.514,53.514,0,0,0-7.908,17.663,54.722,54.722,0,0,0-1.444,9.546,57.42,57.42,0,0,0,.159,9.618,56.508,56.508,0,0,0,5.062,18.461,55.156,55.156,0,0,0,10.982,15.759,56.658,56.658,0,0,0,7.4,6.251c.672.451,1.33.928,2.017,1.359l2.078,1.27,2.145,1.157c.721.374,1.463.706,2.2,1.061a53.845,53.845,0,0,0,18.87,4.711,55.144,55.144,0,0,0,19.387-2.219,53.686,53.686,0,0,0,17.385-8.947,54.1,54.1,0,0,0,19.962-32.735A52.975,52.975,0,0,0,357.764,674.575Zm-58.883,16.19a34.448,34.448,0,0,1-3.362,5.249,52.221,52.221,0,0,1-4.837,5.455,46.813,46.813,0,0,1-5.729,4.838,34.351,34.351,0,0,1-6,3.464,12.914,12.914,0,0,1-5.695,1.339,1.672,1.672,0,0,1-1.04-.462,1.613,1.613,0,0,1-.329-1.171,3.715,3.715,0,0,1,.581-1.936,8.26,8.26,0,0,1,1.475-1.887c.441-.424,1.778-1.5,2.384-2.007.686-.576,6.091-4.659,9.527-7.081,4.175-2.942,8.754-6.055,13.564-9.177.237-.154.477-.3.713-.457A10.756,10.756,0,0,1,298.881,690.765Z" fill="#22424D"/>
  </g>
</svg>
