<svg xmlns="http://www.w3.org/2000/svg" width="140.178" height="146.543" viewBox="0 0 140.178 146.543">
  <path id="Path_1" data-name="Path 1" d="M309.9,443.055a71.594,71.594,0,0,1-11.836,6.7,74.231,74.231,0,0,1-13.729,4.413,75.237,75.237,0,0,1-22.979,1.02c-11.225-1.338-15.018-3.2-21.919-6.371A78.793,78.793,0,0,1,206.463,419.1l-1.428-2.39-.726-1.183c-.228-.408-.408-.832-.62-1.248l-2.431-5c-.718-1.713-1.3-3.475-1.95-5.2-.3-.881-.693-1.721-.914-2.627l-.685-2.692a72.381,72.381,0,0,1-2.61-21.96,74.591,74.591,0,0,1,5.58-26.112,5.42,5.42,0,0,1-.473-.392,3.93,3.93,0,0,1-1.028-2.2,3,3,0,0,1,.8-2.431,3.243,3.243,0,0,1,2.439-1.069,2.963,2.963,0,0,1,.946.22,72.617,72.617,0,0,1,5.89-9.536l.057-.081a3.032,3.032,0,0,0-1.933-4.723,1.94,1.94,0,0,0-1.631.294,84.687,84.687,0,0,0-13.574,11.608,81.529,81.529,0,0,0-10.238,13.859,83.418,83.418,0,0,0-6.868,15.712,82.044,82.044,0,0,0-3.32,16.722,83.173,83.173,0,0,0,4.03,33.437l1.509,3.956a29.556,29.556,0,0,0,1.607,3.907l1.86,3.8c.318.628.6,1.281.946,1.893,0,0,2.72,6.866,12.031,16.523s17.344,14.9,26.627,18.848a74.363,74.363,0,0,0,34.106,5.751,2.98,2.98,0,0,1,.1-1.069,3.164,3.164,0,0,1,.685-1.142,3.186,3.186,0,0,1,3.752-.759,2.775,2.775,0,0,1,1,.857,3.491,3.491,0,0,1,.53,1.15c.024.09.016.188.033.277l2.178-.375a51.989,51.989,0,0,0,8.41-1.966,70.421,70.421,0,0,0,15.727-6.95,78.62,78.62,0,0,0,13.672-10.229,86.787,86.787,0,0,0,10.221-11.755C311.7,443.25,312.452,441.257,309.9,443.055Z" transform="translate(-171.461 -330.396)" fill="#3b4e5a"/>
</svg>
