<svg xmlns="http://www.w3.org/2000/svg" width="651.218" height="45.038" viewBox="0 0 651.218 45.038">
  <g id="Group_3" data-name="Group 3" transform="translate(0 -1.402)">
    <path id="Path_28" data-name="Path 28" d="M9.663,24.8V45.28h1.931v.966H0V45.28H1.933V2.38H0V1.414H13.72c.966,0,4.445-.193,6.377.966a5.847,5.847,0,0,1,2.7,5.411V18.42a5.347,5.347,0,0,1-2.319,4.637C18.552,24.41,15.072,24.6,12.367,24.6h-2.7ZM15.072,5.473a3.836,3.836,0,0,0-.385-2.127,3.369,3.369,0,0,0-2.706-.966H9.663v21.45h2.9a3.517,3.517,0,0,0,2.127-.774c.579-.579.385-1.738.385-2.318Z" transform="translate(0 0)" fill="#7e3219"/>
    <path id="Path_29" data-name="Path 29" d="M65.083,38.707c0,4.058-2.706,6.764-9.855,6.57-7.73,0-9.663-2.512-9.663-6.57V11.46c0-4.831,3.478-7.343,10.048-7.343,6.377,0,9.663,3.091,9.663,7.343V38.707ZM58.126,7.982c0-2.319-.774-3.093-2.513-3.093-1.931,0-2.9.774-2.9,3.093v33.43c0,1.74.579,3.093,2.7,3.093s2.9-.774,2.9-3.093V7.982Z" transform="translate(16.271 0.969)" fill="#7e3219"/>
    <path id="Path_30" data-name="Path 30" d="M111.431,4.686V12.8h-.966V6.619h-5.99V44.3h1.738v.966H95.778V44.3h1.74V6.619h-5.99V13h-.966V4.686Z" transform="translate(32.34 1.173)" fill="#7e3219"/>
    <path id="Path_31" data-name="Path 31" d="M157.423,4.686V12.8h-.966V6.619h-5.99V44.3h1.74v.966H141.771V44.3h1.738V6.619h-5.99V13h-.966V4.686Z" transform="translate(48.764 1.173)" fill="#7e3219"/>
    <path id="Path_32" data-name="Path 32" d="M190.956,23.624h7.73V20.146h.966v8.889h-.966V25.557h-7.73V43.528h7.73V37.345h.966v7.923H182.26V44.3H184V5.652h-1.74V4.686h17.585v7.923h-.966V6.619h-7.73V23.624Z" transform="translate(65.086 1.173)" fill="#7e3219"/>
    <path id="Path_33" data-name="Path 33" d="M241.2,24.4c0,.194,2.512.387,4.445,1.74,1.738,1.159,1.933,2.512,1.933,4.25V44.11h1.738v.966H240.62V28.844c0-1.352.387-2.512-.966-3.284-.774-.581-2.125-.387-3.091-.387h-2.319V44.11h1.738v.966H225.547V44.11h1.74V5.463h-1.74V4.689h12.367c.774,0,4.059-.193,5.8.966,1.932,1.16,2.512,2.9,2.512,5.025v8.695a4.462,4.462,0,0,1-1.353,3.672A9.01,9.01,0,0,1,241.2,24.4ZM239.075,8.361c0-.774.193-1.353-.387-1.933a3.221,3.221,0,0,0-2.125-.774h-2.127V24.594h2.512a2.481,2.481,0,0,0,1.932-.774c.579-.579.387-1.546.387-2.125V8.361Z" transform="translate(80.544 1.17)" fill="#7e3219"/>
    <path id="Path_34" data-name="Path 34" d="M278.628,30.774,271.286,5.652h-1.74V4.686h10.435v.966h-1.738l6.183,21.256,5.411-21.256H288.29V4.686h5.8v.966h-1.74l-6.57,25.121V44.3h1.738v.966H277.082V44.3h1.74V30.774Z" transform="translate(96.256 1.173)" fill="#7e3219"/>
    <path id="Path_35" data-name="Path 35" d="M342.459,29.625V39.673c0,1.738,0,2.9-1.352,4.445-1.74,1.933-5.218,2.125-6.764,2.125H317.532v-.966h1.932V2.377h-1.932V1.411h16.232a7.762,7.762,0,0,1,5.024,1.547,5.229,5.229,0,0,1,2.319,4.25V18.03a5.049,5.049,0,0,1-1.547,3.478,11.9,11.9,0,0,1-3.671,1.933c0,.387,2.9.193,5.024,2.125A5.234,5.234,0,0,1,342.459,29.625ZM327.193,45.277h4.252a4.387,4.387,0,0,0,2.319-.579,2.463,2.463,0,0,0,.966-2.125V26.726a2.87,2.87,0,0,0-.387-1.74,2.64,2.64,0,0,0-2.125-.772h-5.025Zm0-42.9V23.054h4.059a2.172,2.172,0,0,0,1.546-.579,2.868,2.868,0,0,0,.387-1.738V5.083c0-.194.193-1.74-.387-2.125-.387-.581-2.127-.581-2.319-.581Z" transform="translate(113.392 0.003)" fill="#7e3219"/>
    <path id="Path_36" data-name="Path 36" d="M376.889,5.652h-1.74V4.686H385.97v.966h-1.932L390.994,44.3h1.74v.966H382.105V44.3h1.547l-1.74-11.208h-8.7L370.9,44.3h1.738v.966h-5.411V44.3h1.546Zm-3.286,25.7h7.923L377.855,9.325Z" transform="translate(131.138 1.173)" fill="#7e3219"/>
    <path id="Path_37" data-name="Path 37" d="M432,24.4c0,.194,2.512.387,4.445,1.74,1.738,1.159,1.933,2.512,1.933,4.25V44.11h1.738v.966h-8.695V28.844c0-1.352.385-2.512-.966-3.284-.774-.581-2.127-.387-3.093-.387h-2.318V44.11h1.738v.966H416.351V44.11h1.74V5.463h-1.74V4.689h12.367c.774,0,4.058-.193,5.8.966,1.933,1.16,2.512,2.9,2.512,5.025v8.695a4.467,4.467,0,0,1-1.353,3.672A9.01,9.01,0,0,1,432,24.4ZM429.685,8.361c0-.774.194-1.353-.387-1.933a3.221,3.221,0,0,0-2.125-.774h-2.125V24.594h2.512a2.483,2.483,0,0,0,1.932-.774c.58-.579.387-1.546.387-2.125V8.361Z" transform="translate(148.681 1.17)" fill="#7e3219"/>
    <path id="Path_38" data-name="Path 38" d="M476.562,45.268l-8.5-33.624V44.3h1.74v.966h-5.6V44.3h1.738V5.652H464.2V4.686h8.695l8.889,34.977V5.652h-1.738V4.686h5.411v.966h-1.74V45.268Z" transform="translate(165.766 1.173)" fill="#7e3219"/>
  </g>
</svg>
