<svg xmlns="http://www.w3.org/2000/svg" viewBox="0 0 286.72 100"><defs><style>.cls-1{fill:#ffffff;}</style></defs><g id="Layer_2" data-name="Layer 2"><g id="Layer_1-2" data-name="Layer 1"><path class="cls-1" d="M43.39,44.29a14.1,14.1,0,0,0,1.55-5.79,4.64,4.64,0,0,0-1.3-3.43c-.87-.87-2.31-1.3-4.33-1.3a11.41,11.41,0,0,0-4.85,1.38q-2.8,1.4-6,3.06T21.9,41.27a17,17,0,0,1-6.48,1.39,17.19,17.19,0,0,1-5.75-.86,10.74,10.74,0,0,1-4-2.36,9.34,9.34,0,0,1-2.28-3.55,12.92,12.92,0,0,1-.74-4.41,21.39,21.39,0,0,1,2-8.6A30.71,30.71,0,0,1,18.56,8.2,22.11,22.11,0,0,1,29,5.71a26.59,26.59,0,0,1,6.52.69,14.71,14.71,0,0,1,4.41,1.84,7.87,7.87,0,0,1,2.52,2.53,5.37,5.37,0,0,1,.82,2.77,5.19,5.19,0,0,1-1.84,3.91,6.89,6.89,0,0,1-4.93,1.72A16.3,16.3,0,0,1,34.71,19a12,12,0,0,1-2.78-.73,14.09,14.09,0,0,1-3.06-1.67,8.89,8.89,0,0,1-2.61-3.06,1,1,0,0,0-.24-.41c-.22-.21-.38-.32-.49-.32a1.34,1.34,0,0,0-1.06.73A2.32,2.32,0,0,0,24,14.68a3.92,3.92,0,0,0,1,2.25,11.37,11.37,0,0,0,2.57,2.36A16.69,16.69,0,0,0,31,21.13a10.49,10.49,0,0,0,3.79.73,13.13,13.13,0,0,0,4.53-.73,11.53,11.53,0,0,0,3.42-1.92,8,8,0,0,0,2.16-2.73,7.4,7.4,0,0,0,.74-3.18,7.07,7.07,0,0,0-.82-3.23,7.93,7.93,0,0,0-2.61-2.85,15,15,0,0,0-4.57-2,24.58,24.58,0,0,0-6.6-.78A28.17,28.17,0,0,0,18.23,7.3a34,34,0,0,0-9.79,7.26,33.37,33.37,0,0,0-6.24,9.5A24.67,24.67,0,0,0,0,33.77a12.58,12.58,0,0,0,2.77,8.32q2.78,3.34,8.73,3.34a21.34,21.34,0,0,0,7.75-1.59,81.25,81.25,0,0,0,7.87-3.55q3.79-1.95,7-3.54a12.4,12.4,0,0,1,5.06-1.6,4.48,4.48,0,0,1,3.1.9,3.27,3.27,0,0,1,1,2.53,11.68,11.68,0,0,1-1.51,5.1,41.65,41.65,0,0,1-4,6.24A61.22,61.22,0,0,1,32,56.4a54.33,54.33,0,0,1-6.81,5.75A40.41,40.41,0,0,1,18,66.27a16.79,16.79,0,0,1-6.77,1.59,1.55,1.55,0,0,1-1.11-.53,1.72,1.72,0,0,1-.53-1.26,5,5,0,0,1,.7-2.45,9.77,9.77,0,0,1,1.75-2.24,20.18,20.18,0,0,1,2.33-1.92c.84-.6,1.64-1.11,2.4-1.55s1.06-.79,1.06-1.22-.41-.82-1.22-.82a7.05,7.05,0,0,0-2.94,1A19.46,19.46,0,0,0,10,59.38a17.89,17.89,0,0,0-3.1,3.47A5.87,5.87,0,0,0,5.71,67.5a2.9,2.9,0,0,0,.49,1.22,3.82,3.82,0,0,0,1.18,1.1,4,4,0,0,0,2.16.49,21.41,21.41,0,0,0,8-1.67,43.59,43.59,0,0,0,8.07-4.37,52.81,52.81,0,0,0,7.47-6.15,61.89,61.89,0,0,0,6.11-7A39,39,0,0,0,43.39,44.29Z"/><path class="cls-1" d="M40.33,57A9.2,9.2,0,0,0,39,61.75a8.28,8.28,0,0,0,1.55,4.93,5,5,0,0,0,4.32,2.16,7.3,7.3,0,0,0,3.75-.94,8.91,8.91,0,0,0,2.74-2.4A11,11,0,0,0,53,62.23a11.48,11.48,0,0,0,.57-3.5,8.09,8.09,0,0,0-1.22-4.49,4.09,4.09,0,0,0-3.67-1.87,3,3,0,0,0-1.35.24,2,2,0,0,0-.69.57,1.11,1.11,0,0,0-.33.82.87.87,0,0,0,.61.61c.36.13.67.26.94.37a4.42,4.42,0,0,1,2.94,2,6.44,6.44,0,0,1,.89,3.31,8.58,8.58,0,0,1-.36,2.44,7.19,7.19,0,0,1-1.06,2.17,6.65,6.65,0,0,1-1.63,1.55,3.8,3.8,0,0,1-2.08.61,4.29,4.29,0,0,1-3.8-1.88,7.42,7.42,0,0,1-1.26-4.24,8.19,8.19,0,0,1,.85-3.63,5.39,5.39,0,0,1,2.57-2.57.67.67,0,0,0,.41-.57.5.5,0,0,0-.57-.57A8.14,8.14,0,0,0,40.33,57Z"/><path class="cls-1" d="M75.93,54.08a3.89,3.89,0,0,0-.16-.9.82.82,0,0,0-.9-.57q-.9,0-1.14.45a1.87,1.87,0,0,0-.25.94,3.14,3.14,0,0,0,0,.45,1.59,1.59,0,0,1,0,.36c0,.09,0,.26,0,.52l-.56.3c-.87.49-1.91,1.15-3.14,2s-2.58,1.85-4.08,3-3.08,2.44-4.77,3.8q.16-5.14.29-10.12t.28-9.62a20,20,0,0,0,3.92-6.49,18.5,18.5,0,0,0,.45-10.89c-.41-1.52-.85-2.93-1.31-4.24s-.89-2.48-1.3-3.54a7.73,7.73,0,0,1-.61-2.66,10.42,10.42,0,0,1,0-1.06c0-.27,0-.54,0-.81a2.87,2.87,0,0,0-.29-1.35c-.19-.35-.64-.53-1.34-.53a1.2,1.2,0,0,0-.9.45,2.39,2.39,0,0,0-.41,1.59c0,.49,0,1.77-.08,3.83s-.11,4.53-.16,7.39-.13,5.94-.21,9.25-.17,6.5-.28,9.55c-.44.43-.89.84-1.35,1.22l-1.51,1.22a5.22,5.22,0,0,0-1,.62c-.41.3-.81.61-1.22.93a7.42,7.42,0,0,0-1,1,1.45,1.45,0,0,0-.41.82q0,.24.33.45a1.15,1.15,0,0,0,.49.2c1.14-.76,2.17-1.49,3.1-2.2s1.79-1.44,2.61-2.2q-.16,4.49-.25,7.62c-.05,2.1-.11,3.42-.16,4s-.11,1.36-.16,2.77-.14,3.1-.25,5.06q-3.68,3-7.34,6.2T44.08,79q-3.22,2.92-5.67,5.3c-1.63,1.57-2.83,2.8-3.59,3.67A1.46,1.46,0,0,0,34.33,89a.43.43,0,0,0,.49.49,2.45,2.45,0,0,0,1.55-.9q6.85-6.85,12.23-11.7t9.63-8.53C58.12,71,58,73.88,57.86,77s-.26,5.94-.36,8.6-.21,4.91-.29,6.73-.12,2.84-.12,3.06v1.06a5.25,5.25,0,0,0,.2,1.43.89.89,0,0,0,.94.69,1.41,1.41,0,0,0,1.47-1.1A11.64,11.64,0,0,0,60.11,95c0-.16,0-1.07.08-2.73s.12-3.8.2-6.44.18-5.66.29-9.06.21-6.94.32-10.64q4.57-3.75,7.87-6Q71.39,58.39,73.5,57q0,.91-.06,2.07,0,1.68-.12,3.63c-.06,1.31-.11,2.53-.16,3.67a5.63,5.63,0,0,0,.12,1.35,1.39,1.39,0,0,0,.28.61.57.57,0,0,0,.41.17.45.45,0,0,1,.33.08c.76-.06,1.21-.24,1.34-.53a3.91,3.91,0,0,0,.29-1.1c0-.33-.06-1-.16-2.17a30.59,30.59,0,0,1-.09-3.95ZM61.9,35.6c.05-2.09.09-3.92.12-5.5s.06-2.84.08-3.79,0-1.49,0-1.6c0-.48.06-.73.17-.73.32,0,.64.33.94,1a15.89,15.89,0,0,1,.81,2.32,20.38,20.38,0,0,1,.57,2.86,18.71,18.71,0,0,1,.21,2.49,20.63,20.63,0,0,1-.57,4.65,14.17,14.17,0,0,1-2.61,5.13C61.76,40,61.85,37.7,61.9,35.6Z"/><path class="cls-1" d="M75,40.46a3.61,3.61,0,0,0-3.06,1.22A4.41,4.41,0,0,0,71.81,47a2.65,2.65,0,0,0,2.24,1.19,3.78,3.78,0,0,0,3.18-1.35A4.59,4.59,0,0,0,78.3,44a3.77,3.77,0,0,0-.86-2.44A3,3,0,0,0,75,40.46Zm1.35,5.79a2,2,0,0,1-1.76.73,1.85,1.85,0,0,1-1.67-.81,3.41,3.41,0,0,1-.53-1.88,3.58,3.58,0,0,1,.57-2,1.75,1.75,0,0,1,1.55-.89,2,2,0,0,1,1.71,1,4,4,0,0,1,.66,2.17A2.74,2.74,0,0,1,76.3,46.25Z"/><path class="cls-1" d="M105.29,64.27l-.16.09a2.53,2.53,0,0,0-.57.53,6.63,6.63,0,0,1-1,.89,8.39,8.39,0,0,1-1.43.82,4.37,4.37,0,0,1-1.79.37A3.16,3.16,0,0,1,98,66,6.86,6.86,0,0,1,96.57,64,7.73,7.73,0,0,1,96,61.66c-.08-.76-.12-1.25-.12-1.46a2.22,2.22,0,0,0-.37-.74,1.06,1.06,0,0,0-.93-.41c-.39,0-.73.38-1,1.15a21.88,21.88,0,0,1-1.19,2.48,9.09,9.09,0,0,1-2,2.49,5.25,5.25,0,0,1-3.58,1.14,3.5,3.5,0,0,1-3.14-1.51,6.07,6.07,0,0,1-1-3.54A9.71,9.71,0,0,1,83,58.4a9,9,0,0,1,1.31-2.65,6.92,6.92,0,0,1,2.08-1.92,5.28,5.28,0,0,1,2.77-.73,4,4,0,0,1,2.86.77,3.22,3.22,0,0,1,.89,1.68A7.59,7.59,0,0,1,93,57.22c0,.52.17.77.61.77.27,0,.56-.27.86-.81a4,4,0,0,0,.44-1.88,4.06,4.06,0,0,0-1.06-2.65c-.7-.84-2.06-1.26-4.07-1.26a7.86,7.86,0,0,0-4.08,1.1,12,12,0,0,0-3.27,2.81,14.6,14.6,0,0,0-2.2,3.75A10.62,10.62,0,0,0,79.44,63a5.87,5.87,0,0,0,1.42,4c1,1.08,2.52,1.63,4.69,1.63a8.32,8.32,0,0,0,3.27-.78A13.34,13.34,0,0,0,93,64.44c.16-.17.29-.25.4-.25s.22.11.33.33a5,5,0,0,1,.41.81,6.69,6.69,0,0,0,1,1.55,6.5,6.5,0,0,0,1.67,1.47,4.16,4.16,0,0,0,2.32.65,6.25,6.25,0,0,0,2.21-.44,10.06,10.06,0,0,0,2.08-1.11,7.8,7.8,0,0,0,1.55-1.38,2.22,2.22,0,0,0,.61-1.31C105.54,64.44,105.46,64.27,105.29,64.27Z"/><path class="cls-1" d="M127.89,56.69c-.22,0-1.1.05-2.65.16s-3.25.25-5.1.41c.17-1.47.34-2.88.53-4.24a33.42,33.42,0,0,1,.7-3.67c0-.44-.19-.65-.57-.65a1.52,1.52,0,0,0-.74.32,1.67,1.67,0,0,0-.65.74,13.56,13.56,0,0,0-.41,2.56c-.16,1.5-.32,3.17-.49,5-1.74.16-3.33.3-4.77.41s-2.3.19-2.57.24a3.17,3.17,0,0,0-.9.25c-.21.11-.32.38-.32.81a1.34,1.34,0,0,0,.32.86.69.69,0,0,0,.41.2A1.57,1.57,0,0,0,111,60a2.32,2.32,0,0,1,.28-.16c1-.17,2.15-.33,3.35-.49s2.44-.3,3.75-.41c-.16,1.85-.3,3.52-.41,5s-.16,2.38-.16,2.65a3.5,3.5,0,0,0,.12,1c.08.27.34.4.78.4.7,0,1.06-.19,1.06-.57a2.89,2.89,0,0,0-.17-.65c0-1.09,0-2.32.13-3.71s.17-2.79.28-4.2c1.41-.11,2.77-.19,4.08-.25s2.5-.08,3.59-.08h1.06c.27,0,.43,0,.49-.12a.7.7,0,0,0,.08-.37,2.4,2.4,0,0,0-.49-.81A1.15,1.15,0,0,0,127.89,56.69Z"/><path class="cls-1" d="M163.73,20.8q6.68-4.32,12.27-7.71t9.3-5.5q3.7-2.13,4.28-2.13c.17,0,.29.14.37.41s.34.41.78.41a3.26,3.26,0,0,0,.73-.08,7,7,0,0,0,1.34-.69c.68-.41,1.39-.89,2.12-1.43a19.92,19.92,0,0,0,2-1.63c.57-.55.86-1,.86-1.31a1.06,1.06,0,0,0-.37-.77,1.35,1.35,0,0,0-1-.37,5.73,5.73,0,0,0-.81.16,134.11,134.11,0,0,0-16.23,8.49q-8.82,5.3-17.91,11.46T143.5,32.59q-8.81,6.31-16.23,11.54c-.38.22-.57.46-.57.73a1,1,0,0,0,.32.69,1,1,0,0,0,.74.37,2.06,2.06,0,0,0,1.22-.49q3.51-3.09,9.22-7.26t12.27-8.6Q157,25.12,163.73,20.8Z"/><path class="cls-1" d="M166,20.64h-.33a1.82,1.82,0,0,0-1.18.44,2.42,2.42,0,0,0-.53,1.84V33.77q0,4,0,8.4c0,2.94-.05,5.68-.08,8.24s0,4.73,0,6.52,0,2.86-.08,3.18a19.57,19.57,0,0,1-.17,2.12,11.78,11.78,0,0,1-.69,2.78,6.78,6.78,0,0,1-1.59,2.44,3.86,3.86,0,0,1-2.86,1.07,6.45,6.45,0,0,1-3.34-1,12.91,12.91,0,0,1-3-2.57,29.08,29.08,0,0,1-2.61-3.55,42.31,42.31,0,0,1-2.2-4c-.65-1.36-1.24-2.68-1.75-4s-.94-2.38-1.27-3.31c-.11-.16-.23-.32-.36-.49a.78.78,0,0,0-.62-.24,2.3,2.3,0,0,0-1.14.41c-.87.49-1.3,1.06-1.3,1.71a7.53,7.53,0,0,0,.61,2.16,30.38,30.38,0,0,0,1.71,3.59,48.15,48.15,0,0,0,2.65,4.2,29,29,0,0,0,3.43,4,18.11,18.11,0,0,0,4.08,3,9.59,9.59,0,0,0,4.56,1.18,7,7,0,0,0,3.8-.94,8,8,0,0,0,2.44-2.32,10.44,10.44,0,0,0,1.39-2.9A12.24,12.24,0,0,0,166,61c.05-.49.12-1.7.2-3.63s.18-4.2.29-6.81.2-5.41.28-8.4.17-5.82.25-8.48.15-5,.2-6.94.09-3.23.09-3.83a4.14,4.14,0,0,0-.29-1.59A1,1,0,0,0,166,20.64Z"/><path class="cls-1" d="M180,52.37a2.89,2.89,0,0,0-1.34.24,2.13,2.13,0,0,0-.7.57,1.1,1.1,0,0,0-.32.82.85.85,0,0,0,.61.61l.94.37a4.42,4.42,0,0,1,2.93,2,6.35,6.35,0,0,1,.9,3.31,8.26,8.26,0,0,1-.37,2.44,7,7,0,0,1-1.06,2.17,6.31,6.31,0,0,1-1.63,1.55,3.78,3.78,0,0,1-2.08.61A4.27,4.27,0,0,1,174,65.17a7.35,7.35,0,0,1-1.27-4.24,8.2,8.2,0,0,1,.86-3.63,5.35,5.35,0,0,1,2.57-2.57.69.69,0,0,0,.41-.57.5.5,0,0,0-.57-.57A8.2,8.2,0,0,0,171.59,57a9.19,9.19,0,0,0-1.34,4.74,8.21,8.21,0,0,0,1.55,4.93,5,5,0,0,0,4.32,2.16,7.35,7.35,0,0,0,3.75-.94,8.76,8.76,0,0,0,2.73-2.4,10.76,10.76,0,0,0,1.67-3.27,11.21,11.21,0,0,0,.58-3.5,8,8,0,0,0-1.23-4.49A4.08,4.08,0,0,0,180,52.37Z"/><path class="cls-1" d="M196.92,52.77a12.33,12.33,0,0,0-3,.29,7.35,7.35,0,0,1-1.75.28c-.11,0-.17,0-.17-.08s.25-.46.74-.89a11,11,0,0,1,2.73-1.8,18.37,18.37,0,0,1,2.24-1q.9-.17.9-.9a1.19,1.19,0,0,0-.29-.69.87.87,0,0,0-.69-.37,6.2,6.2,0,0,0-3.47,1.51,34,34,0,0,0-3.79,3.35A37.88,37.88,0,0,0,187.33,56a8.19,8.19,0,0,0-1.26,1.91c0,.11.09.22.28.33a1,1,0,0,0,.45.16q.09,0,.33-.24l.16-.17c.06,0,.27-.19.65-.57a11.16,11.16,0,0,1,1.51-1.22A12,12,0,0,1,191.62,55a6.13,6.13,0,0,1,2.52-.53c1.91,0,3.27.39,4.08,1.18a3.78,3.78,0,0,1,1.23,2.81,7.29,7.29,0,0,1-.74,3.06A11.76,11.76,0,0,1,194,66.72a6.13,6.13,0,0,1-3.1.9q-1.47,0-1.47-.9a2.14,2.14,0,0,1,.37-1.14,5.79,5.79,0,0,1,.86-1.06,11.59,11.59,0,0,1,1-.9,4.53,4.53,0,0,0,.73-.73,1,1,0,0,0,.33-.74c0-.59-.33-.89-1-.89a2.52,2.52,0,0,0-1,.57,12.34,12.34,0,0,0-1.63,1.47,13.16,13.16,0,0,0-1.51,1.87,3.38,3.38,0,0,0-.66,1.88,1.56,1.56,0,0,0,.86,1.55,4.43,4.43,0,0,0,1.92.4,10.3,10.3,0,0,0,4.81-1.18,15.7,15.7,0,0,0,4-2.93,14.82,14.82,0,0,0,2.73-3.84,8.84,8.84,0,0,0,1-3.87A4.35,4.35,0,0,0,201,54,5.54,5.54,0,0,0,196.92,52.77Z"/><path class="cls-1" d="M222,62.64a.82.82,0,0,0-.74.41,9.42,9.42,0,0,1-.81,1.1A8.9,8.9,0,0,1,219,65.5a9.37,9.37,0,0,1-2,1.14,6.61,6.61,0,0,1-2.57.49,6.7,6.7,0,0,1-4.08-1.1,5.69,5.69,0,0,1-2-2.82,20,20,0,0,0,3.67-2,21.08,21.08,0,0,0,3-2.45,12.65,12.65,0,0,0,2-2.53,4.68,4.68,0,0,0,.73-2.32,2.13,2.13,0,0,0-.85-1.8,4.76,4.76,0,0,0-2.82-.65,5.83,5.83,0,0,0-3.26,1A10.25,10.25,0,0,0,208,55.1a13.32,13.32,0,0,0-1.8,3.55,12.18,12.18,0,0,0-.65,3.83v.57l-1.26.33a8.64,8.64,0,0,1-1.27.24.87.87,0,0,0-.45.25.53.53,0,0,0-.12.32c0,.28.17.41.49.41a18,18,0,0,0,2.69-.49,6.31,6.31,0,0,0,2,3.55,6.65,6.65,0,0,0,4.65,1.43,10.6,10.6,0,0,0,4-.74,16,16,0,0,0,3.22-1.71,10.61,10.61,0,0,0,2.2-2,3,3,0,0,0,.82-1.59C222.45,62.78,222.28,62.64,222,62.64Zm-14.11-1.18v-.77a9.89,9.89,0,0,1,.4-2.78,9.16,9.16,0,0,1,1.15-2.49,6.35,6.35,0,0,1,1.71-1.75,3.78,3.78,0,0,1,2.12-.65,2.12,2.12,0,0,1,1.55.49,1.67,1.67,0,0,1,.49,1.22q0,1.55-1.92,3.75a15.2,15.2,0,0,1-5.42,3.75A3.54,3.54,0,0,1,207.85,61.46Z"/><path class="cls-1" d="M237.37,52.2a13.08,13.08,0,0,0-4.48.74,12.64,12.64,0,0,0-3.67,2q.08-3.51.12-6.24c0-1.83,0-3.25,0-4.29V40.54a20,20,0,0,0-.08-2.29,6.72,6.72,0,0,0-.37-1.46,1,1,0,0,0-.94-.57,1.64,1.64,0,0,0-.94.32c-.3.22-.42.74-.36,1.55q.17,3.44.28,7.06c.08,2.42.12,4.9.12,7.46v4.65a21.42,21.42,0,0,0-3.79,7.95,37.64,37.64,0,0,0-1.18,9.42A32.19,32.19,0,0,0,224,86.22a14.53,14.53,0,0,1,.73,2.61q.33,1.62.57,3.3c.16,1.11.29,2.16.37,3.14s.12,1.74.12,2.28a7.64,7.64,0,0,0-.08.82v.41c0,.43.09.72.28.85a3.1,3.1,0,0,0,1.1.37.79.79,0,0,0,.74-.53,8.87,8.87,0,0,0,.41-2.32c0-.33,0-1.19.08-2.57s.11-3.13.16-5.22.11-4.46.16-7.1.13-5.38.21-8.24.15-5.71.2-8.56.11-5.56.17-8.12a10.64,10.64,0,0,1,3.34-2,12.42,12.42,0,0,1,4.4-.73,4.3,4.3,0,0,1,3.63,1.43,5.34,5.34,0,0,1,1.11,3.38,8.86,8.86,0,0,1-.49,2.82,9.33,9.33,0,0,1-1.35,2.56,7.58,7.58,0,0,1-2,1.88,4.56,4.56,0,0,1-2.53.73c-.54,0-.81-.21-.81-.65a3.16,3.16,0,0,1,.36-1.18,3.2,3.2,0,0,0,.37-1.35,2.32,2.32,0,0,0-.2-.93.72.72,0,0,0-.7-.45A2,2,0,0,0,232.6,64a4.09,4.09,0,0,0-.69,2.28,3.13,3.13,0,0,0,.73,2,3,3,0,0,0,2.45.9,6.16,6.16,0,0,0,3.38-1,10.86,10.86,0,0,0,2.82-2.65,13.6,13.6,0,0,0,1.91-3.59,11.09,11.09,0,0,0,.7-3.75,6.33,6.33,0,0,0-1.47-4.2Q241,52.21,237.37,52.2ZM226.73,69.82q-.21,4.82-.37,8.48c-.16,2.88-.3,5.58-.41,8.08,0,.22,0,.3-.08.24a5.48,5.48,0,0,1-.81-1.67,20.78,20.78,0,0,1-.74-2.85c-.22-1.12-.39-2.37-.53-3.76a43.42,43.42,0,0,1-.2-4.36,40,40,0,0,1,.73-7.63A17.57,17.57,0,0,1,227,59.71C227,63.24,226.86,66.61,226.73,69.82Z"/><path class="cls-1" d="M286.31,63.78a1.6,1.6,0,0,0-.41.17,5.58,5.58,0,0,0-.73.69,9.73,9.73,0,0,1-1.22,1.1,8,8,0,0,1-1.8,1,6,6,0,0,1-2.36.45,6.17,6.17,0,0,1-3.43-1.06,18.63,18.63,0,0,1-3.18-2.65c-1-1.06-2.05-2.2-3.06-3.43a39.93,39.93,0,0,0-3.18-3.42A17.92,17.92,0,0,0,263.39,54a8.67,8.67,0,0,0-8.16-.08,11.83,11.83,0,0,0-2.85,2.2,11.32,11.32,0,0,0-2,3.26c-.22,0-.33-.27-.33-.82,0-.1,0-.72.09-1.83s.12-2.57.2-4.36.16-3.81.24-6,.18-4.54.29-6.93.22-4.76.33-7.1.21-4.49.32-6.44c.11-2.29.23-4.2.37-5.75s.2-2.66.2-3.31a1.83,1.83,0,0,0-.65-1.51,2.41,2.41,0,0,0-1.55-.53.79.79,0,0,0-.73.53,6.31,6.31,0,0,0-.33,2.08c-.11,1.42-.18,3.52-.2,6.32s-.1,5.92-.21,9.34c0,2.4-.12,4.87-.2,7.43s-.16,5-.25,7.5-.16,4.79-.24,7-.15,4.2-.2,5.91-.11,3.1-.17,4.16-.08,1.67-.08,1.83a2.26,2.26,0,0,0,.29,1.15.87.87,0,0,0,.77.49c.6,0,1-.45,1.27-1.35a38.72,38.72,0,0,0,.77-4.53A9.86,9.86,0,0,1,251,61a13.84,13.84,0,0,1,1.59-2.61A13.18,13.18,0,0,1,255,56a4.75,4.75,0,0,1,3-1.06A7,7,0,0,1,261.56,56a19.14,19.14,0,0,1,3.34,2.61A44,44,0,0,1,268,62a44,44,0,0,0,3.14,3.43A20.72,20.72,0,0,0,274.44,68a6.46,6.46,0,0,0,3.47,1.06,10.86,10.86,0,0,0,3.59-.57,11,11,0,0,0,2.77-1.39,9.74,9.74,0,0,0,1.8-1.59,2.28,2.28,0,0,0,.65-1.18C286.72,64,286.58,63.78,286.31,63.78Z"/></g></g></svg>