<svg xmlns="http://www.w3.org/2000/svg" viewBox="0 0 193.44 119.95"><defs><style>.cls-1,.cls-2,.cls-3{fill:none;stroke:#000;}.cls-2{stroke-linejoin:round;}.cls-3{stroke-miterlimit:10;}</style></defs><g id="Layer_2" data-name="Layer 2"><g id="Layer_2-2" data-name="Layer 2"><path class="cls-1" d="M26.52,94.78C29,92.87,37.11,86.33,37.11,75.86c0-5.3-3.38-8.56-8.79-8.56C18.07,67.3.5,80.25.5,99.4c0,11,7.77,20,22.19,20,20.84,0,40.89-21.52,40.89-39.43,0-22.19-26.92-28.83-26.92-48.77C36.66,14.58,54.57.5,71.91.5,82.39.5,88.13,5,88.13,12.78c0,9.35-10.25,16.22-13.51,18.13"/><path class="cls-1" d="M101.76,52.77c0,9.79-12.5,22.52-21.4,22.52a8.15,8.15,0,0,1-8.56-8.56c0-9.91,12.39-22,21.62-22C98.72,44.77,101.76,48.15,101.76,52.77Z"/><path class="cls-2" d="M136,18.23c-10.21,10.64-25.8,35.07-31.35,50.64-4.79,13.44-9.08,30.45-7.71,39.65,1.74,11.65,10.62,8.68,14.34-3.49,2.7-8.79,7.64-32.17-8.22-36.59,0,0,10.7,10.8,25.51-6.18"/><path class="cls-1" d="M149.22,66.24c-3.93,3.61-10.25,8.49-15.72,8.49A6.15,6.15,0,0,1,127,68.2c0-7.66,11.71-22.87,13.52-22.87"/><path class="cls-1" d="M181.32,52.58c.94-3.19-.47-5.53-2.16-6.1s-10.73-2.85-22.52,9C145.54,66.65,148.06,74,150.84,75c2.49.89,6,.68,13.72-6.44,6.2-5.72,11.13-13.35,10.1-11s-2.8,7.55-.76,11.07,8.17,6.38,19.15-6.85"/><path class="cls-3" d="M150.08,32.12c0,.76-.76,2.17-1.62,2.17a.78.78,0,0,1-.87-.81c0-.92.87-2.12,1.63-2.12A.77.77,0,0,1,150.08,32.12Z"/></g></g></svg>