<svg xmlns="http://www.w3.org/2000/svg" viewBox="0 0 193.44 119.95"><defs><style>.cls-1,.cls-2,.cls-3{fill:none;stroke:#000;}.cls-2{stroke-linejoin:round;}.cls-3{stroke-miterlimit:10;}</style></defs><g id="Layer_2" data-name="Layer 2"><g id="Layer_2-2" data-name="Layer 2"><path class="cls-1" d="M74.62,30.91C77.88,29,88.13,22.13,88.13,12.78,88.13,5,82.39.5,71.91.5,54.57.5,36.66,14.58,36.66,31.25c0,19.94,26.92,26.58,26.92,48.77,0,17.91-20,39.43-40.89,39.43-14.42,0-22.19-9-22.19-20,0-19.15,17.57-32.1,27.82-32.1,5.41,0,8.79,3.26,8.79,8.56,0,10.47-8.11,17-10.59,18.92"/><path class="cls-1" d="M93.42,44.77c-9.23,0-21.62,12-21.62,22a8.15,8.15,0,0,0,8.56,8.56c8.9,0,21.4-12.73,21.4-22.52C101.76,48.15,98.72,44.77,93.42,44.77Z"/><path class="cls-2" d="M136,18.23c-10.21,10.64-25.8,35.07-31.35,50.64-4.79,13.44-9.08,30.45-7.71,39.65,1.74,11.65,10.62,8.68,14.34-3.49,2.7-8.79,7.64-32.17-8.22-36.59,0,0,10.7,10.8,25.51-6.18"/><path class="cls-1" d="M140.49,45.33C138.68,45.33,127,60.54,127,68.2a6.15,6.15,0,0,0,6.53,6.53c5.47,0,11.79-4.88,15.72-8.49"/><path class="cls-1" d="M181.32,52.58c.94-3.19-.47-5.53-2.16-6.1s-10.73-2.85-22.52,9C145.54,66.65,148.06,74,150.84,75c2.49.89,6,.68,13.72-6.44,6.2-5.72,11.13-13.35,10.1-11s-2.8,7.55-.76,11.07,8.17,6.38,19.15-6.85"/><path class="cls-3" d="M149.22,31.36c-.76,0-1.63,1.2-1.63,2.12a.78.78,0,0,0,.87.81c.86,0,1.62-1.41,1.62-2.17A.77.77,0,0,0,149.22,31.36Z"/></g></g></svg>