<svg xmlns="http://www.w3.org/2000/svg" width="17.845" height="19.234" viewBox="0 0 17.845 19.234">
  <path id="Path_13" data-name="Path 13" d="M215.145,415.232a25.9,25.9,0,0,0,3.981-2.726c.417-.348.826-.7,1.222-1.054.534.176,1.066.358,1.606.517l2.217.67c.739.225,1.488.409,2.232.608l2.342.626-1.371-1.979c-1.2-1.723-2.455-3.4-3.751-4.966.253-.57.5-1.151.736-1.744.583-1.465,1.1-3,1.55-4.554l.954-3.316-2.989,1.872c-1.3.818-2.529,1.754-3.759,2.682-.6.453-1.2.905-1.775,1.386-.343-.12-.685-.235-1.03-.35a38.1,38.1,0,0,0-4.572-1.235l-1.839-.355,1.087,1.414c.471.611.972,1.2,1.473,1.792s.982,1.194,1.437,1.815c.343.476.662.964.974,1.458a18.764,18.764,0,0,1-.509,1.992c-.46,1.475-1.24,2.864-1.8,4.314l-.938,2.45Z" transform="translate(-210.9 -397.315)" fill="#395e6c"/>
</svg>
