<svg xmlns="http://www.w3.org/2000/svg" width="1144.196" height="500.01" viewBox="0 0 1144.196 500.01">
  <path id="Union_1" data-name="Union 1" d="M-1194.113,497.094s4.856-78.013,3.442-90.75c-1.39-12.718-1.39-36.869-1.39-36.869l-2.017-21.421-1.526.514s-.785,3.584-3.559,15.094c-3.492,14.479-4.6,12.231-5.1,6.846l-1.059.451-2.1-6.774c-.937,4.593-1.94,10.688-2.953,14.173-1.829,6.2-1.425-9.1-1.425-9.1s.98-1.936-1.83.083-3.011,13.345-5.441,13.766c-2.412.42.72-18.478.72-18.478l-4.426,15.617s-3.442,19.848-5.668,16.722c-2.242-3.114-.338-16.553-.338-16.553s-2.673,16.625-4.995,15.29c-1.659-.961,2.191-17.166,4.549-26.4-1.558-2.391-2.613-6.949-3.286-11.325-.107.061-.223.169-.339.229-3.818,1.666-5.409,18.141-8.68,18.537-1.74.217-2.106-4.063-2.09-8.126a25.81,25.81,0,0,1-3.005-3.943l-1.522,1.394s-1.575,15.261-4.523,12.875-.107-12.949-.095-12.995c-.007.023-.783,2.6-1.916,5.379,1.59,17.259,3.23,33.624,3.23,33.624s-2.974,8.981-23.794,5.614c0,0,.917-14.729,1.837-32.432-9.742,7.7-1.007-5.165-1.007-5.165l1.355-1.687c.127-2.564.253-5.159.373-7.749l-5.624,8.547c-13.912,12.82-4.035-6.3-4.035-6.3l9.745-8.74.217-.275c.6-14,1-27.046.773-33.83a4.7,4.7,0,0,1-.759-.233l-2.8,3.947s-4.459,11.577-9.374,10.885-2.767-8.4-2.767-8.4-3.3,9.64-8.181,9.881c-4.657.229,7.179-17.509,8.339-19.231a35.133,35.133,0,0,1-4.622-7.094l-7.683-9.1s6.134,16.758,1.22,16.061c-4.731-.681-3.123-13.036-7.913-15.444-1.092,4.172-2.389,7.679-3.423,6.227-.973-1.352-1.165-4.647-1.071-7.946q-.456-.209-.9-.426a39.407,39.407,0,0,1-1.5,5.036c1.654,6.023,1.293,13.069-2.179,12.209l4.818,12.544s10.149,27.914,6.989,28.089c-3.149.138-6.055-13.927-6.055-13.927s2.014,11.276-1.092,12.851-6.9-15.29-6.9-15.29l-5.27-13.959s4.519,25.367,1.3,24.092c-3.208-1.25-2.387-21.193-6.034-23.863-3.668-2.656-7.868-9.557-7.868-9.557s3.621,22.564,1.432,16.975-7.333-26.628-9.3-26.545c-1.695.094,2.157,23.088-2.373,14.272l.29,7.632s4.466,45.259,3.712,49.552,6.124,73.042,6.124,73.042-2.974,8.981-23.794,5.614c0,0,4.855-78.013,3.441-90.75-.848-7.766-1.178-19.794-1.307-27.985-.09.029-.183.056-.28.079-3.54.86-7.352-5.477-8.719-8.012-2.094,6.7-2.885,4.394-3.284.081l-1.059.451-2.1-6.774-.024.116c1.364,4.426,3.216,11.881.053,11.427a2.79,2.79,0,0,1-1.991-1.5q-.071.34-.143.67c3.474,4.526,10.671,14.43,7.252,14.587-4.442.217-8.11-8.215-8.11-8.215s2.495,6.772-1.929,7.853c-4.4,1.073-9.238-9.033-9.238-9.033l-.885-1.048-.341,1.2s-3.442,19.848-5.668,16.722c-1.369-1.9-1.193-7.651-.848-11.841-.095-.142-.185-.294-.27-.453-.964,4.827-2.668,11.921-4.216,11.032-1.193-.691.462-9.265,2.364-17.461-.691-2.832-1.6-5.459-3.784-6.094a25.365,25.365,0,0,1-3.111-1.157c-.722,2.307-1.46,4.271-2.3,5.2,1.149,5.173.657,10.649-2.276,9.922l4.383,11.413s9.234,25.4,6.359,25.556c-2.865.126-5.509-12.671-5.509-12.671s1.832,10.26-.995,11.693-6.28-13.912-6.28-13.912l-4.8-12.7s4.111,23.079,1.187,21.919c-2.919-1.138-2.172-19.283-5.49-21.712-3.338-2.417-7.159-8.695-7.159-8.695s3.294,20.529,1.3,15.444-6.672-24.227-8.462-24.151c-1.542.086,1.963,21.006-2.159,12.985l.264,6.944s4.063,41.178,3.378,45.084,5.571,66.455,5.571,66.455-2.706,8.171-21.65,5.108c0,0,4.418-70.978,3.131-82.566-1.264-11.571-1.264-33.545-1.264-33.545l-1.836-19.49-1.387.468s-.714,3.261-3.237,13.733c-3.178,13.173-4.187,11.128-4.64,6.228l-.964.41-1.906-6.163c-.853,4.179-1.766,9.724-2.687,12.9-1.664,5.644-1.3-8.28-1.3-8.28s.893-1.76-1.663.076-2.74,12.142-4.95,12.524.655-16.811.655-16.811l-4.028,14.208s-3.131,18.058-5.157,15.214-.309-15.06-.309-15.06-2.432,15.125-4.544,13.911c-1.509-.875,1.994-15.618,4.139-24.018-1.418-2.176-2.378-6.323-2.99-10.3-.1.056-.2.154-.309.208-3.474,1.516-4.921,16.505-7.9,16.866-1.583.2-1.916-3.7-1.9-7.394a23.409,23.409,0,0,1-2.735-3.586l-1.384,1.268a55.924,55.924,0,0,1-1.808,9.5c.859,13.842,4.5,50.168,4.5,50.168s-2.25,6.8-18.006,4.248c0,0,2.965-47.634,2.792-64.314a43.76,43.76,0,0,1-6.69,8.16c-14.567,13.071-4.684-1.487-4.684-1.487l7.791-9.7-4.96-.8-6.376,9.691c-12.658,11.665-3.671-5.731-3.671-5.731l8.866-7.952,8.7-10.995c-.213-7.151-.213-13.452-.213-13.452l-.751-7.978c-1.005,4.2-.786,9.771-3.734,10.5-1.357.33-1.88-.93-1.953-2.831-1.818,6.313-2.474,4.564-2.794,1.095l-.8.341-1.1-3.557c-.28.65-.734,1.651-1.321,2.757-.457,2.4-.927,4.774-1.4,6.4-.777,2.636-1.022.14-1.087-2.555-1.144,1.392-2.448,2.452-3.806,2.553-.034.143-.068.285-.1.424,1.322,4.435,2.3,8.615,1.292,8.671-1.2.052-2.349-2.931-3.126-5.562a2.324,2.324,0,0,1-.414-1.487c-.363-1.385-.577-2.42-.577-2.42s1.37,7.665-.743,8.736c-.612.309-1.264-.435-1.881-1.648-.091.4-.185.816-.283,1.227,2.267,3.583,7.89,12.868,5.382,13.02-3.1.192-5.663-7.045-5.663-7.045s1.733,5.807-1.344,6.736-6.459-7.745-6.459-7.745l-4.884-7.1s3.9,13.068.772,12.515c-2.642-.462-2.177-7.966-4.1-11.042a2.621,2.621,0,0,1-3.075,2.054l4.478,6.379s9.377,14.236,6.279,14.411-5.666-7.046-5.666-7.046,1.743,5.808-1.348,6.736c-1.085.324-2.208-.544-3.207-1.8.674,11.778,4.088,45.848,4.088,45.848s-2.021,6.106-16.175,3.817c0,0,.515-8.281,1.079-18.832-1.859-1.07-3.493-10.774-3.493-10.774s1.282,8.8-.694,10.029-4.389-11.932-4.389-11.932l-3.351-10.893s2.873,19.8.83,18.8c-2.039-.976-1.517-16.539-3.837-18.623s-5-7.457-5-7.457,2.3,17.608.91,13.247-4.662-20.781-5.913-20.715c-1.078.073,1.372,18.017-1.509,11.138l.185,5.956s2.839,35.32,2.36,38.669,3.893,57,3.893,57-1.891,7.009-15.128,4.382c0,0,3.087-60.881,2.188-70.821-.883-9.925-.883-28.772-.883-28.772l-1.283-16.717-.969.4s-.5,2.8-2.262,11.779c-2.22,11.3-2.926,9.544-3.243,5.342l-.673.352-1.333-5.287c-.6,3.584-1.234,8.34-1.877,11.06-1.163,4.842-.906-7.1-.906-7.1s.624-1.51-1.163.066-1.914,10.415-3.459,10.742.458-14.42.458-14.42l-2.814,12.187s-2.188,15.489-3.6,13.049-.216-12.917-.216-12.917-1.7,12.974-3.175,11.932c-1.055-.751,1.393-13.4,2.892-20.6-.99-1.867-1.661-5.422-2.089-8.837-.068.048-.141.131-.215.178-2.427,1.3-3.439,14.157-5.519,14.467-1.106.169-1.339-3.172-1.328-6.342a20.282,20.282,0,0,1-1.911-3.076l-.968,1.087s-1,11.91-2.875,10.048-.06-10.14-.06-10.14-2.515,10.264-4.494,9.474c-1.251-.488,1.382-8.434,3.493-14.2l-3.854,2.58a42.384,42.384,0,0,1-5.637,8.9c-3.375,3.718-4.872,4.829-5.365,4.655,1.393,15.564,3.1,32.637,3.1,32.637s-2.341,7.067-18.725,4.418c0,0,3.821-61.391,2.708-71.414-1.094-10.008-1.094-29.013-1.094-29.013l-1.588-16.857-1.2.4s-.617,2.82-2.8,11.877c-2.748,11.394-3.621,9.626-4.013,5.387l-.833.355-1.649-5.331c-.548,2.682-1.124,6.015-1.71,8.677.128.614.056,1.057-.29,1.253-.108.441-.216.851-.324,1.224-.666,2.257-.956.9-1.075-1.219a6.775,6.775,0,0,1-3.178-2.335c-.827,3.121-1.329,7.073-2.589,7.291-.844.147-.825-2.713-.544-5.934a2.8,2.8,0,0,1-1.394.773q-.081.02-.163.034l-.815,2.876s-2.707,15.619-4.459,13.159-.267-13.026-.267-13.026-2.1,13.082-3.93,12.033c-.524-.3-.349-2.545.169-5.589-3.469-.745-6.205-7.037-6.205-7.037s2.158,5.856-1.668,6.792c-3.81.927-7.99-7.814-7.99-7.814l-2.156-2.554a5.619,5.619,0,0,1-1.885,2.259c.663,3.106.821,6.038-1.044,5.773-3.164-.455-2.726-7.545-4.836-10.827a26.37,26.37,0,0,1-2.314,2.394c-1.562,1.4-2.8,2.436-3.768,3.173.125,3.06-.6,5.448-2.451,4.99l3.792,9.871s7.987,21.966,5.5,22.1c-2.478.109-4.765-10.96-4.765-10.96s1.585,8.874-.859,10.113-5.432-12.033-5.432-12.033l-4.147-10.984s3.555,19.961,1.027,18.958c-2.525-.984-1.878-16.678-4.748-18.779-2.887-2.09-6.192-7.52-6.192-7.52s2.849,17.756,1.127,13.358-5.771-20.955-7.319-20.889c-1.334.075,1.7,18.168-1.868,11.232l.228,6s3.515,35.617,2.921,38.994,4.819,57.479,4.819,57.479-2.341,7.067-18.724,4.418c0,0,3.821-61.391,2.707-71.414-1.093-10.008-1.093-29.013-1.093-29.013l-1.588-16.857-1.2.4s-.618,2.82-2.8,11.877c-2.748,11.394-3.621,9.626-4.013,5.387l-.833.355-1.65-5.331c-.737,3.614-1.526,8.41-2.324,11.154-1.439,4.882-1.121-7.161-1.121-7.161s.772-1.523-1.439.066-2.371,10.5-4.281,10.832.567-14.54.567-14.54l-3.484,12.289s-2.708,15.619-4.46,13.159-.266-13.026-.266-13.026-2.1,13.082-3.93,12.033c-1.305-.757,1.724-13.509,3.579-20.775-1.226-1.882-2.056-5.468-2.586-8.912-.085.049-.175.133-.267.18-3,1.31-4.256,14.276-6.83,14.588-1.369.17-1.657-3.2-1.644-6.4a20.31,20.31,0,0,1-2.365-3.1l-1.2,1.1s-1.238,12.01-3.559,10.131-.075-10.226-.075-10.226-3.112,10.35-5.562,9.554c-1.548-.492,1.711-8.505,4.323-14.324l-4.77,2.6a42.359,42.359,0,0,1-6.976,8.977c-12.6,11.306-4.051-1.286-4.051-1.286l6.739-8.391-4.29-.691-5.515,8.382c-10.948,10.089-3.175-4.957-3.175-4.957l7.669-6.878,8.791-11.114a23.94,23.94,0,0,1,11.457-4.465,12.982,12.982,0,0,1,1.794-2.98,19.658,19.658,0,0,1,2.587-4.617,36.467,36.467,0,0,1,4.79-2.138c-.617-7.564,6.07-8.921,4.326-6.107a18.68,18.68,0,0,1,3.7-3.855,3.758,3.758,0,0,0,3.266-3.519c.38-3.282,2.525-3.208,2.525-3.208l4.9-3.188c-.351-.927-.7-1.831-1.027-2.771l-6.822-1.751c-.363.888-1.848,3.4-6.341,9.858-5.836,8.4-6.034,4.615-6.044.831-.006-2.131.048-4.262-.812-4.217-2.411.123-7.271,11.542-9.559,14.634s.618-8.977.618-8.977a44.8,44.8,0,0,1-6.681,4.6c.513,2.384.629,4.05-.037,4.087-.839.037-1.655-1.26-2.361-2.955-4.057,1.88-1.844,11.954-5.611,12.88-3.818.928,0-12.676,0-12.676l-5.478,7.728s-3.509,9.11-7.376,8.566-2.178-6.608-2.178-6.608-2.323,6.781-5.82,7.68a14.282,14.282,0,0,1-.052,2.209c-.578,3.258,4.634,55.278,4.634,55.278s-2.251,6.8-18.007,4.249c0,0,3.675-59.039,2.6-68.678-1.051-9.625-1.051-27.9-1.051-27.9l-.594-6.3a17.354,17.354,0,0,1-3.3-4.292c-.38,1.605-.866,3.644-1.482,6.2-.268,1.111-.517,2.092-.75,2.953,1.416,2.366,2.192,4.341.883,4.4a3.35,3.35,0,0,1-2.046-.67c-1.187,3.053-1.681,1.361-1.946-1.5l-.8.341-.884-2.857c.29,1.561.332,3.892-1.822,4.419-.061.015-.122.027-.183.036-.307,1.522-.619,2.926-.931,4-.976,3.311-1.112-1.475-1.108-4.583a9,9,0,0,1-1.84-1.732c-1.672,2.365-1.945,9.617-3.632,9.909-1.826.318.545-13.983.545-13.983l-3.35,11.818s-2.6,15.02-4.289,12.655-.256-12.527-.256-12.527a80.205,80.205,0,0,1-1.861,8.52c1.667,5.24,3.289,11.19,2.09,11.256-1.64.072-3.184-5.527-3.816-8.147a.381.381,0,0,1-.108-.02c.284,2.236.629,6.643-.935,7.435-2.111,1.067-4.693-10.394-4.693-10.394l-3.583-9.489s3.072,17.244.887,16.377c-2.181-.85-1.623-14.406-4.1-16.222a8.951,8.951,0,0,1-.806-.667c-.347.446-.731.582-1.153.24a3.69,3.69,0,0,1-.983-2.618c-.443-.565-.851-1.126-1.2-1.626-.228.488-.467.961-.713,1.4.63,4.271,1.52,10.974.48,8.317-.494-1.262-1.211-3.688-2-6.361a1.1,1.1,0,0,1-1.008.245c-.589-.187-.454-1.508.08-3.382-.635-2.121-1.276-4.18-1.851-5.745-.475.715-1.058,1.553-1.722,2.426.209,3.923.4,8.053-1.437,4.476l.2,5.188s3.036,30.767,2.524,33.684,4.162,49.654,4.162,49.654-2.021,6.1-16.175,3.816c0,0,3.3-53.032,2.339-61.69-.944-8.645-.944-25.063-.944-25.063l-.147-1.561c-1.162.429-.865-.708-.2-2.075l-.454-4.821-.359.546a24.939,24.939,0,0,1-3.374,2.723l-.3,1.237c-2.374,9.842-3.127,8.314-3.467,4.653l-.72.307-1.425-4.605c-.637,3.123-1.319,7.266-2.007,9.635-1.244,4.216-.969-6.187-.969-6.187s.667-1.316-1.243.057-2.047,9.072-3.7,9.357.49-12.56.49-12.56l-3.009,10.616s-2.339,13.492-3.853,11.368-.234-11.224-.23-11.253c-.008.048-1.82,11.3-3.4,10.394-1.128-.653,1.49-11.668,3.092-17.946-1.059-1.625-1.776-4.723-2.234-7.7-.073.041-.152.114-.23.156-2.6,1.131-3.677,12.332-5.9,12.6-1.184.148-1.432-2.762-1.42-5.524a15.406,15.406,0,0,1-1.622-2.044,3.788,3.788,0,0,1-.929-.17l-.526.482s-1.07,10.374-3.074,8.753-.065-8.833-.065-8.833-2.688,8.941-4.8,8.253c-1.338-.425,1.478-7.347,3.734-12.373l-1.431.781a3.215,3.215,0,0,1-2.491,2.752,2.86,2.86,0,0,1-1.022.057,33.439,33.439,0,0,1-5.2,6.414c-1.2,1.08-2.184,1.908-2.976,2.526.343,1.161.2,1.912-.72,1.955a3.948,3.948,0,0,1-1.892-.411.3.3,0,0,1-.322-.166,11.088,11.088,0,0,1-3.28-3.167c-1.108.693-1.677.684-1.9.267a3.312,3.312,0,0,1-2.558,3.119c-2.767.674-5.7-3.1-7.486-5.961,1.159,16.274,2.768,35.985,2.768,35.985s-1.891,7.009-15.127,4.381c0,0,.013-.261.038-.753-2.781-.313-5.311-12.555-5.311-12.555s1.817,10.17-.985,11.59-6.226-13.79-6.226-13.79l-4.753-12.588s4.075,22.877,1.177,21.728c-2.893-1.128-2.153-19.113-5.442-21.521-3.308-2.4-7.1-8.618-7.1-8.618s3.265,20.348,1.292,15.308-6.613-24.015-8.388-23.939c-1.528.085,1.946,20.822-2.14,12.872l.261,6.882s4.027,40.817,3.348,44.688,5.522,65.874,5.522,65.874-2.683,8.1-21.46,5.063c0,0,4.379-70.356,3.1-81.842-1.253-11.47-1.253-33.251-1.253-33.251l-1.82-19.318-1.375.464s-.707,3.232-3.209,13.613c-3.149,13.058-4.149,11.03-4.6,6.174l-.956.407-1.889-6.109c-.846,4.142-1.75,9.638-2.664,12.782-1.649,5.594-1.285-8.207-1.285-8.207s.885-1.745-1.65.076-2.715,12.035-4.906,12.414c-2.175.379.649-16.663.649-16.663l-3.991,14.083s-3.1,17.9-5.112,15.08-.306-14.927-.306-14.927-2.41,14.992-4.5,13.789c-1.5-.867,1.975-15.481,4.1-23.808-1.4-2.156-2.356-6.267-2.964-10.213-.1.056-.2.153-.306.207-3.443,1.5-4.878,16.36-7.827,16.717-1.57.2-1.9-3.665-1.885-7.33a23.223,23.223,0,0,1-2.711-3.555l-1.373,1.257s-1.42,13.763-4.079,11.612-.086-11.72-.086-11.72-3.567,11.861-6.375,10.949c-1.774-.564,1.961-9.746,4.954-16.414l-5.467,2.982a48.541,48.541,0,0,1-7.995,10.288c-14.44,12.956-4.643-1.473-4.643-1.473l7.724-9.617-4.917-.792-6.321,9.607c-12.547,11.562-3.639-5.681-3.639-5.681l8.789-7.882,10.075-12.738c4.25-3.351,9.519-4.63,13.129-5.117a14.927,14.927,0,0,1,2.056-3.415,22.549,22.549,0,0,1,2.965-5.292,41.9,41.9,0,0,1,5.489-2.451c-.708-8.667,6.957-10.223,4.958-7a21.414,21.414,0,0,1,4.242-4.418,4.308,4.308,0,0,0,3.744-4.033c.435-3.761,2.893-3.675,2.893-3.675l5.614-3.654c-.4-1.063-.8-2.1-1.176-3.176l-7.818-2.006c-.416,1.019-2.119,3.893-7.269,11.3-6.688,9.626-6.915,5.289-6.926.952-.006-2.443.055-4.885-.93-4.834-2.764.141-8.333,13.226-10.955,16.771s.708-10.289.708-10.289-5.332,4.543-10.228,6.5-2.238,13.764-6.609,14.837,0-14.528,0-14.528l-6.277,8.858s-4.022,10.441-8.455,9.816-2.5-7.572-2.5-7.572-2.978,8.693-7.378,8.911,7.6-17.465,7.6-17.465l5.763-7.968c-6.565,1.17,1.54-6.918,1.54-6.918,2.812-1.93,4.528-1.808,5.568-1.687.948.11,1.337.221,1.484-1.219.593-5.611,11.6-11.7,9.806-9.278a39.5,39.5,0,0,0,3.3-5.053s2.314-.749,6.025-4.554a1.888,1.888,0,0,1,1.152-.607l1.35-6.354s-4.344,1.924-5.992,2-1.426,6.044-4.046,9.6a29.543,29.543,0,0,1-3.7,4.445l.627-12.842s-4.9,1.957-5.308,5.395c-.43,3.435-7.321,10.6-7.321,10.6l3.95-12.164-5.891,4.576s-1.468,5.2-5.317,5.393,2.468-7.81,2.468-7.81,7.872-10.647,13.244-14.333c3.409-2.33,14.857-9.346,36.542-16.072l-.13-1.827s2.084-7.22,8.335-9.389l.416-1.42-1.387-1.962a7.946,7.946,0,0,0-4.338,1.93c-2.131,1.8-4.107,7.882-4.107,7.882l-4.178-8.338-4.821,3.653s1.258,4.218-1.425,6.056c-1.633,1.118-2.584-1.253-3.082-3.29h-1.4l-.005-.005c-.715,1.912-1.712,4.623-2.543,7.063-1.492,4.336-.942-10.213-.942-10.213l-3.591,7c.129,3.427-4.214,5.345-4.214,5.345l2.329-11.22-6.345,7.133c-4.824,3.665-2.844-2.418-2.844-2.418l-6.346,7.144c-8.746,2.154,3.438-11.258,3.438-11.258l6.43-4.591c-3.3.162-7.276-3.079-1.845-5.035a15.092,15.092,0,0,1,10.491.33c3.174-3.567,22.253-9.639,22.253-9.639,3.745-.183,3.908-4.075,6.212-3.4-.182-4.747,3.395-7.627,5.333-10.538-4.017,0-7.484.314-8.441,1.292-2.648,2.7-5.857,5.409-5.857,5.409l3.559-7.861-1.718-1.626s-2.17.966-4.753,5.367a12.7,12.7,0,0,1-7.517,5.492l4.568-10.478-5.446,1.984s-3.657,5.3-7.479,6.342,3.529-8.717,3.529-8.717l-4.782,4.51c-4.308,2.777-3.921-1.516-3.921-1.516l9.521-10.717,14.7-5c6.54-2.022,25.777-18.355,25.777-18.355a12.3,12.3,0,0,0,.755-3.29l-9.663,1.274-3.075-8.392a68.415,68.415,0,0,0-5.178,8.792c-1.524,3.492-5.928,3.708-5.928,3.708l2.906-10.4s-2.132,1.821-5.857,5.421-7.029,3.75-7.029,3.75l5.766-7.958a63.6,63.6,0,0,1-8.745,2.137c-3.127.591-3.928-.311-3.585-1.214a2.592,2.592,0,0,1,2.949-1.323c2.783.715,7.564-3.8,7.564-3.8s5.26-7.084,10.726-8.207,15.544-11.87,15.544-11.87,9.013-16.793,8.234-22.735,3.524-16.414,3.524-16.414l3.974,17.753,2.939,10.148c2.373,3.281,5.669,7.781,9.059,12.228l8.624-3.6c4.612-1.751,18.172-15.883,18.172-15.883a12.6,12.6,0,0,0,.533-2.848l-6.812,1.1-2.168-7.262a63.239,63.239,0,0,0-3.651,7.609,4.961,4.961,0,0,1-4.179,3.208l2.048-9s-1.5,1.576-4.129,4.691-4.955,3.245-4.955,3.245l4.065-6.886a38.211,38.211,0,0,1-6.164,1.85c-2.205.511-2.77-.27-2.528-1.05a1.744,1.744,0,0,1,2.079-1.146c1.962.618,5.332-3.284,5.332-3.284s3.708-6.13,7.562-7.1,10.958-10.272,10.958-10.272,6.353-14.531,5.8-19.673,2.484-14.2,2.484-14.2l2.8,15.362,2.073,8.781c4.629,7.857,14.239,23.787,16.45,24.481,2.947.937,10.2,9.363,10.2,9.363a8.468,8.468,0,0,1-4.109-.854c-1.783-1-6.505-2.937-6.505-2.937l3.731,7.543s-9.114,3.635-9.172-1.417c-.038-3.367-3.593-6.065-5.97-7.51a37.6,37.6,0,0,1,.974,9.105c5.4,7.9,14.636,20.816,18.166,22.135,5.107,1.9,12.685,8.1,12.685,8.1l2.585,7.973s-2.264,2.355-5.912-2.588l-2.851-4.27,4.2,10.094a6.307,6.307,0,0,1-4.388-3.434,12.674,12.674,0,0,0-2.848-4.268l.178,5.91-3.192-2.758-2.124-5.789-2.255,2.346-5.133-5.577a.94.94,0,0,1-.533.492l2.032,6.651a12.148,12.148,0,0,1,5.727,3.4c4.045,4.935,9.813,15.676,9.813,15.676s10.483,11.933,13.649,13.959-1.369,6-5.046.311l-4.84-5.63s3.721,7.181,2.171,7.267-4.9-7.83-4.9-7.83l-5.593-4.836s2.652,10.184,1.052,8.806-4.173-9.373-4.173-9.373l-2.4-1.83c1.082,4.606,1.811,8.546,1.258,9.025-.637.553-1.5-1.782-2.256-4.495.058,3.829-.067,7.861-.981,5.656a1.113,1.113,0,0,1-.077.226c-1.267,2.589-4.4-12.552-4.4-12.552l-1.2-4.006-1.106-.957v.3c.536,3.606.884,7.238.1,7.172a.763.763,0,0,1-.293-.136c-.128,1.9-.334,3.053-.695,1.589a16.889,16.889,0,0,0-2.507-5.76l.559-3.949a.5.5,0,0,1-.036-.094l-2.329,8.593a13.382,13.382,0,0,1-1.3-6.6c-.14-.611-.293-1.248-.437-1.9a24.209,24.209,0,0,0,.6,9.4l5.135,6.971,10.193,7.729,7.962,6.173s-6.134-2.344-12.074-5.123a43.546,43.546,0,0,1,2.643,4.851c1.881,4.325,14.2,6.9,14.2,6.9s6.965,5.549,11.776,9.659l7.352-2.5c4.93-1.525,19.43-13.836,19.43-13.836a9.265,9.265,0,0,0,.57-2.48l-7.285.96-2.318-6.325a51.54,51.54,0,0,0-3.9,6.628c-1.149,2.632-4.469,2.794-4.469,2.794l2.191-7.836s-1.606,1.372-4.415,4.086-5.3,2.827-5.3,2.827l4.346-6a47.909,47.909,0,0,1-6.592,1.61c-2.357.446-2.961-.235-2.7-.915a1.954,1.954,0,0,1,2.223-1c2.1.539,5.7-2.861,5.7-2.861s3.965-5.34,8.085-6.186,11.717-8.948,11.717-8.948,6.793-12.659,6.206-17.137,2.656-12.372,2.656-12.372l3,13.381,2.217,7.65c4.949,6.844,15.224,20.72,17.589,21.325a17.84,17.84,0,0,1,4.991,3.059l7.382-2.512c5.488-1.7,21.631-15.4,21.631-15.4a10.3,10.3,0,0,0,.634-2.76l-8.109,1.068-2.58-7.042a57.347,57.347,0,0,0-4.345,7.378c-1.279,2.93-4.975,3.111-4.975,3.111l2.439-8.724s-1.788,1.527-4.915,4.549-5.9,3.147-5.9,3.147l4.839-6.678a53.37,53.37,0,0,1-7.339,1.794c-2.624.5-3.3-.262-3.009-1.019a2.176,2.176,0,0,1,2.475-1.111c2.336.6,6.348-3.185,6.348-3.185s4.414-5.944,9-6.887,13.044-9.961,13.044-9.961,7.563-14.092,6.909-19.077,2.956-13.774,2.956-13.774l3.335,14.9,2.468,8.516c5.509,7.618,16.949,23.066,19.58,23.74,3.507.908,12.146,9.079,12.146,9.079a12.111,12.111,0,0,1-4.891-.829c-2.122-.973-7.744-2.848-7.744-2.848l4.442,7.315s-10.849,3.525-10.918-1.374c-.044-3.265-4.277-5.882-7.105-7.283a30.075,30.075,0,0,1,1.16,8.83c6.431,7.661,17.42,20.187,21.622,21.466,6.079,1.841,15.1,7.856,15.1,7.856l3.077,7.733s-2.7,2.283-7.037-2.511l-3.394-4.14,4.995,9.789s-3.724-.527-5.224-3.33a12.691,12.691,0,0,0-3.389-4.139l.212,5.731-3.8-2.674-2.529-5.614-2.684,2.275-6.111-5.408a1.067,1.067,0,0,1-.634.477l2.419,6.45c2.721.709,5.268,1.755,6.817,3.293,4.815,4.785,11.68,15.2,11.68,15.2s12.479,11.571,16.247,13.536c1.46.761,1.549,1.8.856,2.475l1.75-.6c5.707-1.764,22.492-16.016,22.492-16.016a10.7,10.7,0,0,0,.659-2.871l-8.431,1.112-2.684-7.323a59.69,59.69,0,0,0-4.518,7.673c-1.33,3.047-5.173,3.236-5.173,3.236l2.536-9.072s-1.86,1.589-5.111,4.73-6.134,3.272-6.134,3.272l5.032-6.943a55.55,55.55,0,0,1-7.63,1.865c-2.729.516-3.428-.272-3.128-1.059a2.261,2.261,0,0,1,2.573-1.155c2.428.624,6.6-3.312,6.6-3.312s4.589-6.181,9.359-7.161,13.564-10.358,13.564-10.358,7.864-14.653,7.185-19.837,3.074-14.324,3.074-14.324l3.468,15.491,2.566,8.855c5.729,7.923,17.624,23.986,20.36,24.686,3.648.945,12.63,9.441,12.63,9.441a12.6,12.6,0,0,1-5.086-.861c-2.207-1.012-8.052-2.962-8.052-2.962l4.618,7.607s-11.281,3.666-11.352-1.429c-.047-3.395-4.448-6.115-7.389-7.573a31.242,31.242,0,0,1,1.206,9.182c6.688,7.965,18.115,20.991,22.484,22.32a46.194,46.194,0,0,1,7.86,3.488l.025-.009a13.164,13.164,0,0,1,9.154.287c2.769-3.111,19.417-8.41,19.417-8.41,3.268-.16,3.41-3.557,5.421-2.971-.158-4.143,2.962-6.655,4.653-9.2-3.5,0-6.53.275-7.366,1.127-2.31,2.36-5.111,4.721-5.111,4.721l3.1-6.859-1.5-1.419s-1.894.842-4.147,4.683a11.079,11.079,0,0,1-6.559,4.792l3.985-9.142-4.752,1.731s-3.191,4.625-6.526,5.534,3.08-7.607,3.08-7.607l-4.172,3.936c-3.76,2.422-3.422-1.324-3.422-1.324l8.308-9.351,12.829-4.366c5.707-1.764,22.492-16.016,22.492-16.016a10.713,10.713,0,0,0,.66-2.871l-8.432,1.112-2.684-7.323a59.689,59.689,0,0,0-4.518,7.673c-1.33,3.046-5.173,3.236-5.173,3.236l2.536-9.072s-1.86,1.589-5.111,4.73-6.134,3.272-6.134,3.272l5.032-6.944a55.557,55.557,0,0,1-7.63,1.865c-2.729.516-3.428-.272-3.128-1.059a2.261,2.261,0,0,1,2.573-1.155c2.428.624,6.6-3.312,6.6-3.312s4.589-6.181,9.359-7.161,13.564-10.358,13.564-10.358,7.864-14.653,7.185-19.837,3.074-14.324,3.074-14.324l3.468,15.491,2.566,8.855c5.729,7.923,17.624,23.986,20.361,24.686,3.647.945,12.629,9.441,12.629,9.441a12.6,12.6,0,0,1-5.086-.861c-2.207-1.012-8.052-2.962-8.052-2.962l4.619,7.607s-11.281,3.666-11.353-1.429c-.046-3.395-4.447-6.115-7.389-7.573a31.242,31.242,0,0,1,1.206,9.182c6.688,7.965,18.115,20.991,22.484,22.32,6.321,1.915,15.7,8.169,15.7,8.169l1.98,4.976a67.041,67.041,0,0,0,6.712-7.462s6.354-14.531,5.8-19.672,2.484-14.2,2.484-14.2l2.8,15.362,2.073,8.781q.428.727.911,1.54c.865-1.091,4.313-5.187,7.878-5.92,4.126-.85,11.717-8.947,11.717-8.947s6.793-12.659,6.206-17.137,2.656-12.372,2.656-12.372l3,13.381,2.217,7.649c2.388,3.3,6.017,8.242,9.4,12.538a2.2,2.2,0,0,1,1.411-.116c2.336.6,6.348-3.185,6.348-3.185s4.414-5.945,9-6.887,13.044-9.961,13.044-9.961,7.563-14.092,6.909-19.077,2.957-13.774,2.957-13.774l3.335,14.9,2.468,8.516c5.509,7.618,16.949,23.066,19.58,23.74a14.061,14.061,0,0,1,3.885,2.157c2.064-2.121,5.151-4.737,8.306-5.386,5.523-1.138,15.682-11.975,15.682-11.975s9.093-16.942,8.307-22.936,3.555-16.56,3.555-16.56l4.009,17.91,2.967,10.238c5.784,8,17.007,23.178,21.864,27.434l5.593-6.3,16.3-5.548c7.253-2.243,28.583-20.354,28.583-20.354a13.578,13.578,0,0,0,.837-3.649l-10.714,1.413-3.41-9.306a75.877,75.877,0,0,0-5.742,9.75c-1.69,3.873-6.573,4.111-6.573,4.111l3.222-11.527s-2.363,2.019-6.495,6.01-7.794,4.16-7.794,4.16l6.394-8.824a70.441,70.441,0,0,1-9.7,2.37c-3.468.655-4.356-.346-3.975-1.346a2.875,2.875,0,0,1,3.271-1.467c3.085.793,8.387-4.208,8.387-4.208s5.832-7.855,11.894-9.1,17.236-13.163,17.236-13.163,9.994-18.621,9.13-25.209,3.907-18.2,3.907-18.2l4.406,19.686,3.261,11.253c4.9,6.78,13.362,18.254,19.424,25.3l2.145-2.414,16.3-5.549c7.253-2.242,28.582-20.353,28.582-20.353a13.593,13.593,0,0,0,.838-3.649l-10.715,1.413-3.409-9.306a75.766,75.766,0,0,0-5.742,9.75c-1.69,3.872-6.573,4.111-6.573,4.111l3.223-11.527s-2.364,2.019-6.5,6.01-7.794,4.159-7.794,4.159l6.394-8.824a70.484,70.484,0,0,1-9.7,2.37c-3.467.655-4.355-.346-3.975-1.346a2.876,2.876,0,0,1,3.271-1.467c3.085.792,8.387-4.208,8.387-4.208s5.833-7.856,11.893-9.1S-1284.1,43.41-1284.1,43.41s9.994-18.621,9.13-25.209,3.907-18.2,3.907-18.2l4.407,19.685,3.26,11.253c7.28,10.067,22.4,30.48,25.874,31.37,4.634,1.2,16.049,12,16.049,12a16.009,16.009,0,0,1-6.464-1.094c-2.8-1.286-10.231-3.763-10.231-3.763l5.868,9.665s-14.335,4.658-14.426-1.815c-.058-4.315-5.651-7.771-9.39-9.623,1.464,4.142,1.537,9.967,1.533,11.668,8.5,10.121,23.02,26.674,28.572,28.364,8.032,2.435,19.95,10.382,19.95,10.382l4.012,10.079c2.452-4.8,8.911-18.09,8.209-23.44-.854-6.588,3.907-18.2,3.907-18.2l4.407,19.686,3.26,11.253c4.156,5.746,10.864,14.862,16.5,21.8l10-3.4c7.253-2.243,28.583-20.353,28.583-20.353a13.591,13.591,0,0,0,.838-3.648l-10.715,1.412-3.41-9.305a75.768,75.768,0,0,0-5.741,9.749c-1.691,3.873-6.574,4.112-6.574,4.112l3.222-11.528s-2.363,2.019-6.494,6.011-7.794,4.159-7.794,4.159l6.394-8.824a70.555,70.555,0,0,1-9.7,2.369c-3.468.655-4.356-.346-3.975-1.346a2.876,2.876,0,0,1,3.271-1.467c3.085.793,8.387-4.208,8.387-4.208s5.833-7.855,11.894-9.1,17.236-13.162,17.236-13.162,9.994-18.621,9.13-25.209,3.907-18.2,3.907-18.2L-1112.891,57l3.261,11.253c7.28,10.067,22.4,30.48,25.874,31.369,4.634,1.2,16.048,12,16.048,12a16.013,16.013,0,0,1-6.463-1.1c-2.8-1.286-10.232-3.763-10.232-3.763l5.869,9.666s-14.336,4.658-14.426-1.815c-.058-4.315-5.651-7.772-9.39-9.624,1.463,4.142,1.537,9.967,1.533,11.668,8.5,10.122,23.019,26.675,28.571,28.364,8.032,2.434,19.951,10.382,19.951,10.382l4.066,10.217s-3.561,3.019-9.3-3.316l-4.486-5.471,6.6,12.935s-4.92-.7-6.9-4.4a16.762,16.762,0,0,0-4.479-5.469l.28,7.574-5.02-3.534-3.342-7.418-3.546,3.006-8.075-7.147a1.414,1.414,0,0,1-.837.631l3.2,8.523c3.595.938,6.961,2.319,9.006,4.352,6.363,6.323,15.434,20.089,15.434,20.089s16.491,15.29,21.469,17.887c4.994,2.6-2.153,7.682-7.937.4l-7.613-7.213s5.854,9.2,3.414,9.311c-2.422.114-7.714-10.033-7.714-10.033l-8.8-6.2s4.172,13.05,1.654,11.284-6.564-12.01-6.564-12.01l-3.781-2.345c1.7,5.9,2.848,10.952,1.978,11.565-1,.709-2.365-2.283-3.548-5.759.091,4.9-.105,10.074-1.543,7.249a1.309,1.309,0,0,1-.122.289c-1.994,3.318-6.923-16.085-6.923-16.085l-1.888-5.133-1.74-1.226v.379c.843,4.622,1.391,9.275.154,9.191a1.332,1.332,0,0,1-.462-.175c-.2,2.434-.524,3.912-1.092,2.037a20.15,20.15,0,0,0-3.945-7.381l.88-5.061a.6.6,0,0,1-.058-.12l-3.664,11.012a14.634,14.634,0,0,1-2.047-8.463c-.221-.783-.462-1.6-.688-2.429a25.456,25.456,0,0,0,.949,12.045l8.076,8.933,16.033,9.905,12.523,7.909s-9.649-3-18.992-6.564a53.754,53.754,0,0,1,4.157,6.215c2.959,5.543,22.342,8.848,22.342,8.848s12.222,7.934,19.766,13.247c7.529,5.314,9.528,9.48,9.528,9.48l-12.115-5.091-11.362-9.389.206,5.681-11.209-7.266-.642-.182c5.295,6.65,3.709,13.332-1.987,5.277a9.456,9.456,0,0,0-5.637-3.377,23.123,23.123,0,0,1,.743,8.816l4.253,1.7s1.966,3.691,2.093,6.528c.1,2.837,4.623,1.31,4.623,1.31s7.682.938,9.575,2.729c-3.271-3.1,6,3.487,11.453,7.033,2.083,1.358.762,1.851,7.014,5.337,0,0,15.287,11.372,6.236,10.64l1.978,3.15s14.759,18.223,9.871,18.464-8.907-9.027-8.907-9.027,2.725,7.44-2.115,8.631S-1031.977,288-1031.977,288l-7.682-9.094s6.139,16.746,1.214,16.037c-4.157-.59-3.425-10.207-6.458-14.149-.526,1.694-2.083,2.848-4.837,2.632l7.043,8.175s14.75,18.242,9.877,18.466-8.914-9.029-8.914-9.029,2.742,7.441-2.12,8.63c-4.841,1.179-10.154-9.929-10.154-9.929l-7.683-9.1s6.134,16.757,1.22,16.06-2.981-14.072-8.537-15.689c-5.577-1.623-11.86-6.046-11.86-6.046s.261.776.6,1.9a3.072,3.072,0,0,1,2.316,1.382c4.156,5.483,5.276,19.294.494,18.11l4.818,12.544s10.149,27.914,6.989,28.089c-3.148.139-6.055-13.927-6.055-13.927s2.015,11.276-1.092,12.851-6.9-15.29-6.9-15.29l-5.27-13.958s4.519,25.366,1.3,24.092c-3.208-1.251-2.387-21.194-6.034-23.863-3.668-2.656-7.867-9.556-7.867-9.556s1.2,7.5,1.8,12.782c3.116,2.994,5.424,6.2.486,5.8l1.978,3.149s14.759,18.223,9.871,18.464-8.907-9.027-8.907-9.027,2.726,7.44-2.115,8.631-10.159-9.924-10.159-9.924l-1.417-1.677c1.22,13.493,2.676,31.092,2.22,33.689-.764,4.3,6.123,73.042,6.123,73.042s-2.974,8.981-23.794,5.615c0,0,4.486-72.083,3.578-88.983-4.406-.887-8.737-9.947-8.737-9.947l-7.684-9.1s6.135,16.758,1.22,16.061-2.98-14.072-8.536-15.689a42.24,42.24,0,0,1-9.411-4.458c-.066.318-.135.644-.206.977a4.229,4.229,0,0,1,.672.716c4.157,5.483,5.277,19.293.494,18.11l4.819,12.544s10.148,27.914,6.989,28.089c-3.149.138-6.055-13.928-6.055-13.928s2.014,11.276-1.093,12.851-6.9-15.29-6.9-15.29l-5.269-13.958s4.518,25.366,1.3,24.091c-3.208-1.25-2.386-21.193-6.034-23.863-3.669-2.656-7.868-9.556-7.868-9.556s3.621,22.563,1.431,16.974-7.332-26.628-9.3-26.545c-1.695.094,2.158,23.088-2.372,14.272l.289,7.632s4.466,45.259,3.713,49.552,6.123,73.042,6.123,73.042-2.111,6.369-15.21,6.369A53.953,53.953,0,0,1-1194.113,497.094Zm-375.392-126.6s3.112,10.506,4.34,16.971c.549-10.721,1.079-22.727,1.168-30.592-.67-3.258-1.061-7.38-3.2-8.144-3.546-1.266-7.54-4.719-7.54-4.719s.166.606.381,1.482a1.918,1.918,0,0,1,1.472,1.078c2.642,4.279,3.354,15.057.314,14.134Zm-84.291,8.657a29.981,29.981,0,0,1,2.187-4.866l5.444-8.321-3.466-.686-4.456,8.312-.178.2C-1654.115,375.527-1653.958,377.325-1653.8,379.148Zm-1.62-23.779a102.723,102.723,0,0,0,.569,11.316l4.392-4.834,7.1-11.022a17.388,17.388,0,0,1,9.256-4.428,13.752,13.752,0,0,1,1.45-2.956,20.953,20.953,0,0,1,2.09-4.578,26.922,26.922,0,0,1,3.742-2.062c-1.864-2.757-3.338-9.892-3.338-9.892s1.585,8.874-.859,10.113c-1.325.669-2.81-2.924-3.892-6.355a29.277,29.277,0,0,1-1.386,2.81c-1.4,2.322-.4-3.929.172-7.138-.133-.529-.229-.933-.281-1.156-.533.52-1.38,1.314-2.385,2.148.262,3.4.175,6.011-.781,5.632-.731-.285-1.2-1.8-1.558-3.868a16.355,16.355,0,0,1-1.879,1.1c-3.448,1.679-1.577,11.91-4.658,12.839s0-12.571,0-12.571l-4.425,7.664s-1.588,5.056-3.7,7.378A76.906,76.906,0,0,1-1655.416,355.37Zm399.934,7.111c.385-.886.77-1.755,1.144-2.588l-1.31.715Q-1255.565,361.54-1255.482,362.481Zm-2.09-30.569a65.61,65.61,0,0,0,.286,8.405,33.873,33.873,0,0,1,10.418-3.072,16.566,16.566,0,0,1,2.28-3.786,25,25,0,0,1,3.288-5.867,46.457,46.457,0,0,1,6.087-2.718c-.785-9.611,7.714-11.335,5.5-7.759a23.733,23.733,0,0,1,4.7-4.9,4.718,4.718,0,0,0,3.992-3.606c-1.488-1.968-2.8-6.246-3.607-9.327l-.334.507c.285,3.4.27,7.865-1.6,8.813-.9.454-1.854-.634-2.759-2.407l-.141.2c-7.416,10.675-7.667,5.865-7.681,1.056a30.868,30.868,0,0,0-.143-3.968.666.666,0,0,1-.145-.04,2.248,2.248,0,0,1-1.04-1.3c-3.151,1-9.035,14.734-11.85,18.542-2.279,3.088-.509-5.652.368-9.592a5.547,5.547,0,0,1-1.187-.53,53.013,53.013,0,0,1-7.2,4.735C-1257.708,323.474-1257.3,330.363-1257.572,331.912Zm138.377,4.418c-.039-1.444-.071-2.851-.1-4.192a5.623,5.623,0,0,1-3.08.5Zm-257.768-.569c.006-1.575.037-2.759.037-2.759s.981-1.935-1.829.084a2.284,2.284,0,0,0-.294.254Zm-125.014-9.458s.327,3.316.761,7.981a33.772,33.772,0,0,1,5.155-1.1,15.052,15.052,0,0,1,2.074-3.445c.084-.265.187-.537.3-.811-1.017-2.952-2.591-8.754-4.019-13.212a25.207,25.207,0,0,1-1.5,2.406c-1.751,2.373-.874-2.93-.079-6.8-.442-1.009-.827-1.612-1.119-1.6-1.283.071,1.633,17.473-1.8,10.8Zm91.409,5.818a2.639,2.639,0,0,1,1.82.914q0-.335,0-.67c-.3-.3-.594-.636-.893-1-.917-.582-1.471-.973-1.471-.973S-1410.876,331.1-1410.567,332.121Zm-215.282-.593c1.12-2.282,2.921-2.686,2.892-1.612a32.858,32.858,0,0,1,1.873-3.143l3.753-4.673c.385-1.324,1.078-1.727,1.485-1.849l.584-.727-3.706-.6-4.765,7.241a23.209,23.209,0,0,1-2.938,2.387C-1626.373,329.577-1626.093,330.581-1625.849,331.527Zm85.478-1c.185-.435.393-.889.619-1.358q.161-.652.317-1.27l-2.245-5.946s.77,4.322,1.265,8.53Zm-117.966-14.15s.53,5.37,1.143,12.136l1.609-2.731c-4.629,1.013,1.084-5.986,1.084-5.986,1.983-1.669,3.192-1.565,3.927-1.46a1.726,1.726,0,0,0,.612.032c-.611-1.87-1.373-4.5-2.173-7.211-.181.239-.286.374-.286.374l.187-.708c-.551-1.866-1.117-3.76-1.663-5.464-.285.964-1.158,3.4-2.855,4.093-.018,2.47-.39,3.689-1.813.92Zm-41.365,12.047c.741-3.595,1.714-7.622,2.523-10.819a30.248,30.248,0,0,1-1.71-3.008l-3-3.552c-.375.948-.724,2.034-1.062,3.152.681,3.14.862,6.135-1.028,5.863a2.013,2.013,0,0,1-.72-.245c-.087.232-.175.454-.264.664A64.5,64.5,0,0,1-1699.7,328.423Zm156.688-.118a17.039,17.039,0,0,0-1.386-5.628c-.34,1.027-.663,2.136-.982,3.222A8.7,8.7,0,0,0-1543.015,328.305ZM-2016.555,306.9s4.836,13.3,6.383,20.627c.371-7.7,1.05-22.36,1.532-35.976-1.016-3.818-1.5-8.888-4.64-9.8-5.03-1.463-10.7-5.453-10.7-5.453s.235.7.541,1.713a2.767,2.767,0,0,1,2.088,1.246c3.749,4.945,4.758,17.4.446,16.332Zm523.568,20.6a28.492,28.492,0,0,1,1.99-3.1q.832-.452,1.7-.863a36.067,36.067,0,0,1-5.143-6.569S-1493.394,323.516-1492.987,327.5Zm-134.906-2.923c-.015-.457-.019-.941-.02-1.424,0-2.113.038-4.226-.656-4.182a1.607,1.607,0,0,0-.953.692C-1629.034,321.086-1628.463,322.79-1627.893,324.575Zm-93.159-4.121c.142-.529.318-1.106.522-1.719l-1.742-2.063S-1721.663,318.335-1721.051,320.454Zm-11.756-.415c.182-.279.3-.447.3-.447l2.629-3.273a32.516,32.516,0,0,1-3.058-1.435l-1.086,1.651A18.086,18.086,0,0,1-1732.808,320.039Zm631.293-4.757s1.522,1.133,3.322,2.66c-2.467-8.276-5.76-20.235-7.244-20.172-1.168.065.3,11.014-.16,14.92A31.821,31.821,0,0,0-1101.515,315.282Zm-581.74,2.306c.008-.564.018-.919.018-.919s.611-1.205-.811-.353C-1683.77,316.746-1683.5,317.172-1683.254,317.588Zm324.585-.066-.539-5.723-1.525.514s-.173.79-.643,2.818C-1360.529,315.833-1359.566,316.667-1358.67,317.522Zm-330.26-.872c.014-.105.028-.208.043-.311-.127-.254-.221-.454-.279-.579l-.007.026C-1689.115,315.964-1689.022,316.267-1688.929,316.65Zm-19.35-.328v-.155a20.315,20.315,0,0,1-2.365-3.1l-.246.226Zm59.085-.515a12.168,12.168,0,0,1,2.5-3.9,41.447,41.447,0,0,1-3.088-4.116c-.147.23-.3.455-.441.674C-1649.943,310.312-1649.505,313.263-1649.2,315.807Zm30.3-1.078,1.576-1.992-.591-.186A18.851,18.851,0,0,1-1618.892,314.73Zm-118.349-2.151.182-.163c-.2-.133-.3-.208-.3-.208S-1737.317,312.343-1737.241,312.578Zm-114.1-31.945s1.949,19.748,2.637,30.676a100.39,100.39,0,0,1,6.241-10.53l5.028-6.953c-5.728,1.022,1.344-6.036,1.344-6.036q.3-.205.579-.376c-.476-3.966-1.023-7.918-2.343-8.883a11.12,11.12,0,0,1-1.271-1.1,3.666,3.666,0,0,1-.726.108c-1.191.059-1.268-.78-.87-1.887a44.183,44.183,0,0,1-3.087-4.354s2.74,17.075,1.084,12.846-5.549-20.152-7.039-20.089c-1.175.065,1.175,14.681-1.062,11.995a2.806,2.806,0,0,1-.692-.11ZM-1476.891,311c.431-.369.714-.588.714-.588a4.345,4.345,0,0,0,3.776-4.069,6.883,6.883,0,0,1,.3-1.4,2.777,2.777,0,0,0-.728-.331,27.773,27.773,0,0,1-5.411-2.375q-.377.551-.787,1.147A18.626,18.626,0,0,1-1476.891,311Zm-89.6-.966.034.017-.016-.169Q-1566.478,309.958-1566.488,310.033Zm-90.21-10.895c-.514.029-.38,2.732-.225,5.648.587-1.082,1.124-1.916,1.124-1.916s.245-.407.668-1.081c-.625-1.618-1.169-2.651-1.558-2.652Zm376.237,5.422.088.109c.356-.4.678-.753.925-1.014-.949-3.259-1.426-7.572-3.219-9.9-.526,1.695-2.083,2.849-4.837,2.633Zm61.112-.212a2.712,2.712,0,0,1,1.695-.679l6.225-4.052c-.446-1.178-.892-2.326-1.305-3.522l-8.669-2.224a10.589,10.589,0,0,1-.521,1.046C-1220.889,298.261-1219.924,301.657-1219.349,304.348Zm-98.681-4.525a3.07,3.07,0,0,1,2.316,1.382,11.842,11.842,0,0,1,.93,1.45c.109-.668.233-1.372.368-2.1-2.468-1.4-4.214-2.629-4.214-2.629S-1318.37,298.7-1318.03,299.823Zm196.9,2.363-.315-3.343-1.525.514s-.127.578-.458,2.016A15.236,15.236,0,0,1-1121.13,302.186Zm-153.6-.9a6.774,6.774,0,0,1,1.837-.021c-.044-1.422-.081-2.821-.113-4.174l-4.417-5.229A72.769,72.769,0,0,1-1274.731,301.289Zm-706.367-6.944c.37-.592.65-1,.65-1l5.623-7q-.175-.163-.346-.335l-3.161-.509-4.218,6.41C-1982.014,292.749-1981.518,293.574-1981.1,294.345Zm-6.92-.466c.081-.355.194-.739.326-1.134-.63-1.127-.99-1.955-.99-1.955A13.133,13.133,0,0,1-1988.019,293.88Zm95.358-3.84s.533,1.467,1.257,3.588c.794-4.1,2.01-9.084,2.928-12.676-1.179-1.81-1.977-5.259-2.487-8.57-.081.046-.169.128-.256.173-1.039.453-1.86,2.356-2.6,4.622.091,2.143-.3,3.91-1.3,4.3-.124.41-.247.811-.372,1.2Zm183.64-1.61a19.906,19.906,0,0,1,2.564-4.549,36.518,36.518,0,0,1,4.79-2.138,10.635,10.635,0,0,1,.086-2.586l-2.055-.863-6.675-5.516a57.7,57.7,0,0,1-3.243,5.674c-1.254,1.7-.95-1.155-.417-4.085l-2.959-1.918c-.766.51-1.6,1.028-2.455,1.5.651,2.5-.4,3.752-2.674,1.28-1.29.623-1.937,2.088-2.346,3.816l.6.239a15.183,15.183,0,0,1,1.647,5.137c.079,2.233,3.639,1.031,3.639,1.031s6.045.738,7.534,2.148c-.468-.443-.609-.635-.5-.635A13.989,13.989,0,0,1-1709.02,288.429Zm-280.532-6.15s2.062,2.55,4.294,5.654l6.043-5.421.733-.926c-.871-1.443-1.4-2.554-1.4-2.554l-6.928-8.2s5.537,15.1,1.1,14.463c-3.749-.533-3.089-9.205-5.824-12.761-.474,1.528-1.879,2.569-4.361,2.374Zm731.29,4.546c.945-1.484,1.66-2.787,1.66-2.787a15.629,15.629,0,0,0,4.716-3.174c-.674-2.257-1.413-4.8-2.161-7.315-1.557.673-1.468,6.836-4.23,10.586-.372.5-.716.958-1.032,1.368A13.451,13.451,0,0,1-1258.263,286.825Zm-574.787-.449a5.3,5.3,0,0,1,1.778-.063l-3-7.955S-1833.589,282.21-1833.05,286.376Zm433.263-2.819q.123-.35.265-.67-.229-.066-.463-.126Q-1399.88,283.157-1399.787,283.557Zm149.79-4.491.075-.077a2.089,2.089,0,0,1,1.278-.672l.718-3.384c-.706-.911-1.348-1.806-1.879-2.577-.359.136-.731.272-1.1.4C-1250.647,274.465-1250.306,276.77-1250,279.066Zm-575.369-.118c2.457-1.923,4.822-2.921,3.985-1.789a34.365,34.365,0,0,0,2.884-4.41,10.874,10.874,0,0,0,3.028-1.917,1.5,1.5,0,0,1-.264-.015c-1.092-.157-1.738-1.136-2.211-2.473a13.111,13.111,0,0,1-1.871,4.481,25.864,25.864,0,0,1-3.229,3.879l.546-11.206a9.983,9.983,0,0,0-3.892,2.891,3.717,3.717,0,0,1-.726,1.724q-.007.046-.012.092a6.3,6.3,0,0,1-.794,2.086Zm244.03-2.87,2,1.52,1.063-.692c-.3-.8-.607-1.581-.887-2.394l-4.109-1.054ZM-1701.6,274.84q.741.523,1.392,1.025c1.664-2.123,3.978-2.023,2.867-.23a18.68,18.68,0,0,1,3.7-3.855,3.759,3.759,0,0,0,3.267-3.519c.379-3.282,2.524-3.208,2.524-3.208l4.9-3.188c-.351-.927-.7-1.831-1.026-2.771l-6.822-1.751c-.364.888-1.849,3.4-6.342,9.858-5.836,8.4-6.034,4.615-6.043.831-.006-2.131.048-4.262-.812-4.217-1.2.061-2.994,2.9-4.781,6.124C-1706.318,271.584-1703.723,273.344-1701.6,274.84Zm313.633.258a4.919,4.919,0,0,0,1.974-3.61c.482-4.171,3.208-4.075,3.208-4.075l6.225-4.052c-.446-1.178-.892-2.327-1.3-3.522l-5.02-1.288a.493.493,0,0,1-.477.316,2.349,2.349,0,0,1-1.482-.819l-1.689-.433c-.462,1.129-2.349,4.316-8.059,12.527-.792,1.14-1.5,2.1-2.139,2.909C-1392.673,274.224-1388.9,274.931-1387.965,275.1Zm-142.1-4.293,2.891,1.156a16.687,16.687,0,0,1,.969,2.288l.566-.368c-.338-.892-.675-1.76-.987-2.665l-3.38-.867Q-1530.036,270.585-1530.07,270.806Zm255.735,2.44.208-.235-1.081-11.481-1.525.514s-.463,2.113-1.933,8.305C-1277.19,271.344-1275.676,272.364-1274.336,273.245Zm-695.384-1.613a22.279,22.279,0,0,1,8-2.577,11.248,11.248,0,0,1,1.55-2.574,16.981,16.981,0,0,1,2.235-3.989,31.422,31.422,0,0,1,4.137-1.847c-.534-6.534,5.244-7.707,3.738-5.275a16.135,16.135,0,0,1,3.2-3.331,3.246,3.246,0,0,0,2.822-3.039c.328-2.835,2.181-2.77,2.181-2.77l4.232-2.754c-.3-.8-.607-1.581-.887-2.395l-5.893-1.511c-.313.767-1.6,2.934-5.478,8.515-5.042,7.257-5.212,3.987-5.221.717-.005-1.84.041-3.682-.7-3.643-2.083.107-6.281,9.97-8.257,12.642s.534-7.755.534-7.755a34.13,34.13,0,0,1-7.709,4.9c-2.073.823-2.348,4-2.778,6.769,3.511,2.989,8.1,7.583,2.554,7.134Zm567.448-.487c-.006-2.69.053-5.363-1.031-5.306-.863.044-1.974,1.228-3.188,2.993A19.051,19.051,0,0,0-1402.272,271.145Zm-412.186-1.187c.383-.35.79-.742,1.218-1.181a1.646,1.646,0,0,1,1.005-.53l.738-3.474-1.181-1.4c-.715.281-1.56.592-2.3.807C-1814.431,266.406-1814.056,268.733-1814.458,269.958Zm663.184-7.237a4.59,4.59,0,0,0,2.511-2.291c-1.811-.647-3.689-1.336-5.554-2.046C-1153.234,259.817-1152.169,261.311-1151.274,262.721Zm-107.927-2.265c-.221.012-.347.413-.411,1.08q.508-.277,1.05-.566c-.233-.333-.444-.514-.628-.514Zm-475.533-3c.723,1.355,2.694,2.54,5.067,3.53a11.7,11.7,0,0,1,3.282-4.327c-1.547-.509-3.522-1.172-5.685-1.93-.84.958-1.447,1.589-1.447,1.589l.612-1.883c-1.326-.469-2.709-.971-4.1-1.49a5.583,5.583,0,0,1-.416.411A38.314,38.314,0,0,1-1734.734,257.452Zm-95.981-1.646a2.321,2.321,0,0,1,1.752,1.046,10.986,10.986,0,0,1,1.363,2.5,18.109,18.109,0,0,1,1.46-1.129q.325-.222.763-.508a43.235,43.235,0,0,1-5.791-3.342S-1830.972,254.956-1830.715,255.806Zm-146.452,3.4c.42-2.182.94-4.031.94-4.031l-2.3,3.245C-1978.125,258.665-1977.674,258.927-1977.167,259.21ZM-1147.9,257c.874-2.616,2.882-2.546,2.882-2.546l6.225-4.052c-.2-.517-.392-1.029-.585-1.541-.42-.622-.851-1.348-1.275-2.123l-5.372-1.378c.178,1.341.141,2.23-.193,2.465-.733.519-1.659-.943-2.567-3.127a17.185,17.185,0,0,1-1.014,1.893c-.13,2.872-.533,4.643-1.51,2.723a1.308,1.308,0,0,1-.122.289.647.647,0,0,1-.507.382c-.6.921-1.311,1.981-2.138,3.2Zm-577.789-.939c2.567-2.091,5.184-3.231,4.311-2.048a34.372,34.372,0,0,0,2.884-4.41,9.781,9.781,0,0,0,2.526-1.521c-.688-.925-1.375-2-1.953-2.967a13.275,13.275,0,0,1-1.892,4.563,25.855,25.855,0,0,1-3.229,3.879l.546-11.206a11.461,11.461,0,0,0-2.218,1.255c.4,1.927.5,3.429-.334,2.841a5.593,5.593,0,0,1-1.206-1.387,4.064,4.064,0,0,0-.873,2c-.193,1.54-1.873,3.939-3.462,5.908Zm98.538-1.261,1.338.535c2.451-1.093,4.5-1.916,5.069-2.14a9.107,9.107,0,0,1-2.555-2.676,7.447,7.447,0,0,0-4.435-2.658A18.208,18.208,0,0,1-1627.153,254.8Zm-358.768-2.024,1.22-1.688c-2.121.378-2.211-.526-1.621-1.682a.382.382,0,0,1-.078-.028c-1.527-.73-1.618-9.639-2.541-14.944l-5.5-4.546c.5,4.469.909,9.148.113,6.656-.3-.934-.683-2.424-1.116-4.188l.063,1.724-6.274-4.067.09,2.91s.469,5.831.993,12.98c2.176.368,5.679,1.105,6.826,2.191-.536-.508-.7-.728-.576-.728C-1993.877,247.368-1989.65,250.282-1985.921,252.781Zm366.668-.082c1.41-.933,1.748-2.967,3.039-2.5q-.007-.217,0-.428l-5.015-3.251-.506-.142C-1619.706,248.924-1618.962,251.483-1619.253,252.7Zm-113.662-1.2.8.5,2.047-6.306-5.141,3.992s-.034.122-.106.326Zm498.884-1.949a2.714,2.714,0,0,1,1.344.444q.557-.191,1.123-.382c-1.844-1.1-3.066-1.961-3.066-1.961S-1234.37,248.43-1234.031,249.554Zm-245.247-2.173a6.247,6.247,0,0,0,2.377,2.166,18.109,18.109,0,0,1,2.1-4.126c-.777-.266-1.6-.55-2.439-.848-.539,1.334-.871,2.357-.871,2.357l-1.631-3.255c-.887-.324-1.786-.658-2.68-1A40.617,40.617,0,0,1-1479.278,247.381Zm56.8,1.693c.453-.765.742-1.291.742-1.291s2.566-.83,6.68-5.049a2.721,2.721,0,0,1,.482-.391c-.582-2.04-.96-3.529-.96-3.529l-.812-2.208a16.464,16.464,0,0,1-1.9.535c.327,2.637.326,4.647-.453,4.594a1.208,1.208,0,0,1-.419-.158c-.183,2.215-.478,3.559-.995,1.852a19.787,19.787,0,0,0-.73-2.019,18.383,18.383,0,0,1-2.573,6.469l-.067.09Zm-563.3-.554a22.571,22.571,0,0,1,2.238-2.642q.27-.185.522-.338c-.524-2.234-.86-4.067-.86-4.067l-1.215-3.95-.228-.1-.663-.548a3.149,3.149,0,0,1-.422.1C-1985.914,241.258-1985.444,246.463-1985.778,248.52Zm233.892-11.841,6.355,7.029,7.336,4.533c.3-.406.5-.657.5-.657s.493-.667,1.3-1.7c-1.791-1.071-4.791-12.88-4.791-12.88l-1.485-4.039-1.37-.966v.3c.664,3.637,1.094,7.3.121,7.232a1.055,1.055,0,0,1-.364-.137c-.158,1.915-.412,3.078-.859,1.6a15.838,15.838,0,0,0-3.1-5.808l.692-3.982a.455.455,0,0,1-.045-.094l-2.884,8.666a11.515,11.515,0,0,1-1.611-6.66c-.175-.616-.363-1.258-.542-1.912A20.025,20.025,0,0,0-1751.886,236.678Zm37.808,9.783q.394-.374.816-.805l-2.785-2.639S-1714.972,244.705-1714.078,246.461Zm-264.564-1.838a.425.425,0,0,0,.07-.029c-.144-.746-.223-1.217-.223-1.217S-1978.724,243.863-1978.642,244.623Zm504.894-.577a11.98,11.98,0,0,1,5.135-3.6l.419-1.433-1.4-1.979a8.013,8.013,0,0,0-4.376,1.947,11.266,11.266,0,0,0-2.327,3.459Zm45.843-.978.823.91.154-3.16a13.334,13.334,0,0,1-.691-1.88c-.318.16-.709.372-1.131.632A26.027,26.027,0,0,0-1427.9,243.068Zm-306.556.4c.322-.39.66-.794,1.01-1.205-.331-.74-.661-1.62-.976-2.544C-1734.4,241.035-1734.4,242.369-1734.461,243.473Zm120.556-.076c.519-.8,1.037-1.561,1.45-2.322h-.236c-.7.363-1.09.3-1.291.029a18.9,18.9,0,0,0-2.284.216l-.3.335C-1616,242.022-1615.068,242.632-1613.905,243.4Zm-97.748-1.029.6-2.808s-1.275.565-2.627,1.052C-1713.017,241.2-1712.335,241.786-1711.653,242.368ZM-1977,240.946l.011-.015-.017-.007Zm356.757-.293.215-.583-1.211-1.407a5.516,5.516,0,0,0-1.426,1.416C-1621.79,240.3-1620.97,240.492-1620.241,240.653Zm-111.586-.241c.686-.761,1.394-1.516,2.1-2.225-.306-.723-.49-1.186-.49-1.186l-2.974-1.845C-1732.632,237.093-1732.15,238.913-1731.827,240.412Zm-244.144-.66c2.5-2.569,6.057-4.3,5.139-3.058a29.712,29.712,0,0,0,2.49-3.809s1.744-.564,4.541-3.433a1.418,1.418,0,0,1,.869-.457l.827-3.894a3,3,0,0,1-.863-.453,14.814,14.814,0,0,1-3.463,1.066c-1.244.061-1.075,4.556-3.049,7.236a22.293,22.293,0,0,1-2.79,3.351l.472-9.68s-3.691,1.475-4,4.066c-.155,1.236-1.42,3.114-2.7,4.739.191.68.4,1.445.63,2.267A26.961,26.961,0,0,1-1975.971,239.753Zm183.054-.312a11.326,11.326,0,0,1,5.821-5.033l.363-1.239-1.21-1.712a6.936,6.936,0,0,0-3.785,1.684c-1.17.987-2.285,3.452-2.953,5.146A21.063,21.063,0,0,0-1792.917,239.441Zm310.716-.669-.127-.254-.127.1Zm-407.233-1.4,2.891,1.157s.038.071.1.2c.653-.595,1.153-.983,1.153-.983a3.614,3.614,0,0,0,3.141-3.384,4.255,4.255,0,0,1,.8-2.219l-2.977-1.93-.436-.123c3.6,4.521,2.521,9.063-1.351,3.587a5.019,5.019,0,0,0-1.738-1.5q-.387.561-.81,1.169-.388.558-.742,1.043A12.379,12.379,0,0,1-1889.434,237.375Zm338-2.22,3.209,3.55q3.3-1.285,7.188-2.61c-.671-2.228-1.151-4.119-1.151-4.119l-1.283-3.489-1.184-.833v.258c.574,3.142.946,6.3.1,6.248a.913.913,0,0,1-.313-.119c-.136,1.654-.356,2.659-.743,1.384a14.819,14.819,0,0,0-1.537-3.44c-.7-.157-1.2-1.18-1.527-2.268l-1.548,4.655a8.441,8.441,0,0,1-.98-2.229c-.2.558-.4,1.128-.6,1.693Q-1551.647,234.482-1551.436,235.155Zm-460.839,1.877,3.168,1.268c-.029-2.969-.029-4.913-.029-4.913l-.21-2.738a10.72,10.72,0,0,0-3.6-1.567A20.846,20.846,0,0,1-2012.275,237.032Zm214.878-1.175-1.561-3.114-1.455,1.1C-1799.368,234.549-1798.32,235.253-1797.4,235.857Zm162.663-1.547q.067.125.147.248l1.872-2.587.8-.334c-1.933-.676-4.021-1.43-6.09-2.218A42.221,42.221,0,0,1-1634.734,234.31Zm-344.655-1.984.064.219.985-3.034-1.553,1.206Zm257.461.164c5.082-2.868,14.068-7.217,27.672-11.438l-.112-1.594s1.819-6.3,7.272-8.193l.363-1.239-1.21-1.712a6.936,6.936,0,0,0-3.785,1.684c-1.86,1.57-3.584,6.878-3.584,6.878l-3.646-7.276-4.207,3.188s1.1,3.68-1.242,5.284c-1.426.976-2.255-1.093-2.689-2.871h-1.22l0,0c-.624,1.668-1.494,4.033-2.219,6.162-1.3,3.784-.822-8.912-.822-8.912l-1.487,2.9,1.17,2.94a3.335,3.335,0,0,1-2.815.457c-.046,2.874-3.678,4.478-3.678,4.478l.366-1.765a8.75,8.75,0,0,1-3.793-1.888l-.078.088c-4.209,3.2-2.481-2.111-2.481-2.111l-1.912,2.153,0,.045-.026-.018-2.849,3.208C-1726.18,226.375-1723.448,230.268-1721.928,232.489Zm411.08-1.9a20.434,20.434,0,0,1,3.714-4.074c-2-.673-4.322-1.47-6.763-2.342a6.346,6.346,0,0,1-2.644,2.079c.466.724.889,1.427,1.251,2.091a6,6,0,0,0,1.524,1.746,4,4,0,0,1,2.461-1.221C-1310.51,228.868-1310.153,229.468-1310.847,230.589Zm-341.039-17.053,6.355,7.029,12.616,7.795,3.521,2.224,7.045-2.942a24.487,24.487,0,0,0,5.56-3.865c-1.422-2.132-2.641-4.471-2.641-4.471l-6.921-4.876s3.282,10.269,1.3,8.879-5.166-9.451-5.166-9.451l-2.974-1.845c1.338,4.645,2.241,8.618,1.557,9.1-.788.558-1.862-1.8-2.793-4.532.071,3.86-.083,7.927-1.214,5.7a1.015,1.015,0,0,1-.1.227c-1.569,2.612-5.449-12.657-5.449-12.657l-1.485-4.039-1.37-.966v.3c.664,3.637,1.094,7.3.122,7.232a1.045,1.045,0,0,1-.363-.137c-.158,1.915-.413,3.078-.859,1.6a15.847,15.847,0,0,0-3.1-5.808l.692-3.982a.471.471,0,0,1-.045-.094l-2.884,8.666a11.515,11.515,0,0,1-1.611-6.66c-.175-.616-.363-1.258-.542-1.912A20.025,20.025,0,0,0-1651.886,213.536Zm156.113,13.866,2.808,3.106c2.624-1.181,5.657-2.357,8.386-3.355-.541-1.876-.9-3.289-.9-3.289l-1.429-3.884-1.317-.929v.287c.638,3.5,1.052,7.019.116,6.956a1.019,1.019,0,0,1-.349-.132c-.151,1.842-.4,2.96-.826,1.541a15.238,15.238,0,0,0-2.985-5.585l.666-3.829a.465.465,0,0,1-.043-.091l-2.773,8.334a11.075,11.075,0,0,1-1.55-6.405c-.167-.592-.348-1.21-.521-1.838A19.275,19.275,0,0,0-1495.773,227.4Zm-318.1,1.447c.255-.048.474-.1.622-.146,2.321-2.1,10.121-5.036,15.016-6.742l-.493-.207-8.6-7.105.156,4.3-8.483-5.5-.486-.138c4.007,5.033,2.807,10.089-1.5,3.993a7.156,7.156,0,0,0-4.266-2.555,17.488,17.488,0,0,1,.563,6.672l3.218,1.288a14.592,14.592,0,0,1,1.584,4.94,1.493,1.493,0,0,0,.108.529A13.418,13.418,0,0,1-1813.878,228.849Zm-66.917-3.163s2.086,1.354,4.813,3.16l.973-.633c-.337-.892-.675-1.76-.987-2.665l-6.561-1.683a11.536,11.536,0,0,1-.7,1.331C-1881.783,225.517-1880.795,225.686-1880.795,225.686Zm-100.419.807a38.107,38.107,0,0,1,6.27-6.16c.32-.219.733-.492,1.243-.812-.8-3.342-1.057-8.13-3.379-8.959q-.34-.122-.685-.268l-.25.282c-2.252.555-2.664-.261-2.229-1.574a36.432,36.432,0,0,1-4.177-2.99q-.057.063-.122.122c.069.26.178.68.3,1.192a1.915,1.915,0,0,1,1.472,1.078c2.643,4.279,3.355,15.057.315,14.134Zm-12.394-.233c-.961-1.608-1.63-2.958-1.63-2.958s.107.815.26,2.05Zm688.167-.717a4.769,4.769,0,0,0,3.448-4.324c.482-4.171,3.208-4.075,3.208-4.075l5.431-3.535c-1.408-2.261-2.489-4.332-2.489-4.332l-.478-.337-6.213-1.594a11.077,11.077,0,0,1-.561,1.119c.856,3.357,1.5,6.869.11,5.9a9.482,9.482,0,0,1-2.1-2.648c-1.236,1.919-3.006,4.555-5.512,8.157q-.629.9-1.19,1.664Zm-224.56-.188q.181-.072.367-.137l.348-1.192-1.164-1.647a5.627,5.627,0,0,0-1.585.39C-1531.35,223.605-1530.665,224.481-1530,225.355Zm211.838-1.482c-.043-.4-.069-.839-.085-1.291q-.6-.225-1.2-.453C-1319.013,222.7-1318.581,223.288-1318.163,223.873Zm-679.393-.219c-1.071-4.267-2.1-7.851-2.686-7.82-.432.029-.3,2.931-.166,5.954C-1999.88,222.131-1998.868,222.791-1997.555,223.653Zm382.784-1.63.51-.458-1.785-1.692S-1615.447,220.816-1614.771,222.024Zm-102.911-1.161.693-3.336a12.809,12.809,0,0,1-1.565-1.38l-.975,1.1Zm-79.093-2.431c1.059.748,1.974,1.465,2.761,2.138,3.162-.229,3.324-3.544,5.312-2.964-.158-4.143,2.962-6.655,4.652-9.2-3.5,0-6.53.274-7.365,1.127-2.31,2.36-5.111,4.72-5.111,4.72l3.1-6.859-1.5-1.419s-1.894.842-4.147,4.683a10.2,10.2,0,0,1-3.753,3.632C-1800.72,215.7-1798.573,217.167-1796.775,218.433Zm54.323-10.068,2.516,6.707c2.829.738,5.477,1.826,7.088,3.425.479.476.977,1,1.487,1.573a30.054,30.054,0,0,1,1.874-2.733l-.53-.373-2.63-5.837-2.791,2.366-6.354-5.624A1.109,1.109,0,0,1-1742.452,208.364Zm-267.763,10.948-.2-2.642-.969.4s-.09.505-.329,1.776C-2011.217,219.009-2010.715,219.164-2010.216,219.312Zm398.524-.119c4.034-3.807,7.515-7.434,7.515-7.434a6.276,6.276,0,0,0,.218-.809l-1.145,1.079c-3.247,2.092-2.956-1.144-2.956-1.144l1.307-1.471-3.705.6-2.167-7.262a63.087,63.087,0,0,0-3.65,7.609,4.66,4.66,0,0,1-2.376,2.681C-1616.916,214.616-1614.3,216.959-1611.692,219.193Zm194.694-8.86,2.909,7.754c.92.24,1.824.512,2.689.82q3.2-1.351,6.916-2.765l-1.178-2.616-3.227,2.734-7.346-6.5A1.284,1.284,0,0,1-1417,210.333Zm-53.26,8.377c.67-2.939,2.74-5.115,4.342-7.187a6.108,6.108,0,0,1-1.242-1.1,31.037,31.037,0,0,0-3.8.317l.014.382-.437-.308a4.447,4.447,0,0,0-2.226.88c-.387.395-.785.79-1.184,1.177C-1473.246,214.707-1471.66,216.789-1470.257,218.709Zm-112.983-.063a8.179,8.179,0,0,1,2.044-5.341,2.362,2.362,0,0,1-1.229-2.243q0-.1-.007-.208a5.806,5.806,0,0,0-3.151.855c-.485.5-.995.99-1.489,1.456C-1585.922,214.843-1584.617,216.719-1583.241,218.647Zm-387.456-.888c.748-.413,1.583-.857,2.507-1.326l-4.238-6.162A66.625,66.625,0,0,1-1970.7,217.759Zm652.342-.3c-.108-1.146-.359-1.922-.949-1.891a2.109,2.109,0,0,0-1.168.584Zm-224.932-6.764,1.189,3.171c.888-.319,1.723-.612,2.466-.868l-3.085-2.731A.962.962,0,0,1-1543.287,210.7ZM-1804.6,213.1l2.96-6.791-4.752,1.731a22.121,22.121,0,0,1-2.081,2.5C-1807.349,211.28-1806.014,212.162-1804.6,213.1Zm-155.752-2.082s.367.557.932,1.452l.37-.149c-.735-1.518-1.029-4.089-1.528-6.368-.3.835-.608,1.7-.889,2.527a1.638,1.638,0,0,1-.272.56Zm339.649.14s.238.221.659.607l1.639-7.2s-1.388,1.455-3.827,4.332C-1621.285,210.28-1620.7,211.162-1620.7,211.162Zm-335.73.147q1.75-.66,3.671-1.329c-.486-1.026-.775-1.768-.775-1.768l-2.1-3.048a2.719,2.719,0,0,1-.535.48.892.892,0,0,1-1.071.07A29.739,29.739,0,0,1-1956.434,211.308Zm478.969-1.391c.271.27.549.557.832.86l.706-1.56-1.732-1.641a6.214,6.214,0,0,0-1.459,1.078A8.79,8.79,0,0,1-1477.464,209.917Zm-110.01.3.158-.35-.185-.175Q-1587.486,209.957-1587.474,210.213Zm-315.14-.749.574-2.7s-1.56.691-3.027,1.187Zm511.719-.523c.654-1.824,3.212-7.85,9.066-9.881l.461-1.575-1.538-2.176a8.815,8.815,0,0,0-4.81,2.14c-2.363,2-4.554,8.74-4.554,8.74l-4.633-9.246-5.345,4.052a9.554,9.554,0,0,1,.327,2.52A73.445,73.445,0,0,1-1390.9,208.94Zm-571.175-.366a34.8,34.8,0,0,1-.175-4.916,2.49,2.49,0,0,1-1.916.994l-.279.544Zm150.337-.168.127.083c.919-1.391,1.766-2.519,1.766-2.519l-2.471,2.331C-1811.941,208.371-1811.733,208.407-1811.733,208.407Zm-16.908-6.7c1.41,2.64,7.743,4.609,12.243,5.706l7.272-8.186,9.1-3.1c-1.4-.007-3.216-.75-4.881-2.847l-5.762-5.459s4.43,6.964,2.584,7.047-5.838-7.593-5.838-7.593l-6.656-4.69s3.157,9.876,1.252,8.539-4.967-9.088-4.967-9.088l-2.861-1.775c1.287,4.468,2.155,8.288,1.5,8.753-.758.536-1.79-1.728-2.685-4.359.068,3.713-.08,7.624-1.167,5.486a1.053,1.053,0,0,1-.093.219c-1.508,2.511-5.239-12.173-5.239-12.173l-1.429-3.884-1.317-.928v.286c.638,3.5,1.052,7.019.116,6.956a1.018,1.018,0,0,1-.349-.132c-.151,1.842-.4,2.96-.826,1.541a15.239,15.239,0,0,0-2.985-5.585l.666-3.829a.458.458,0,0,1-.043-.091l-2.773,8.334a11.076,11.076,0,0,1-1.55-6.405c-.167-.592-.348-1.21-.521-1.838a19.277,19.277,0,0,0,.718,9.115l6.112,6.761,12.133,7.5,9.477,5.987s-7.3-2.274-14.372-4.968A40.617,40.617,0,0,1-1828.642,201.712Zm606.985,2.407,4.253,1.7s.331.621.73,1.55c1.221-1.842,2.732-3.434,3.806-5.032a1.809,1.809,0,0,1-.207-.058c-3.706.011-6.958.27-8.482,1C-1221.582,203.573-1221.615,203.852-1221.656,204.118Zm-402.272,2.358.5-.854s-.283.126-.872.338Zm90.9-1.21a24.672,24.672,0,0,1,2.337.856c.895-2.363,2.806-4.126,3.988-5.9-3.37,0-6.28.264-7.083,1.084-.723.738-1.5,1.477-2.209,2.137A10.273,10.273,0,0,0-1533.029,205.267Zm-109.423-20.045,2.516,6.707c2.83.738,5.478,1.826,7.089,3.425a77.218,77.218,0,0,1,6.711,8.081,18.155,18.155,0,0,0,1.432-1.443,26.028,26.028,0,0,1,3.967-4.9,5.937,5.937,0,0,1-2.025-2.143,13.187,13.187,0,0,0-3.525-4.3l.22,5.96-3.95-2.781-2.63-5.837-2.791,2.366-6.354-5.624A1.109,1.109,0,0,1-1642.452,185.222Zm-303.895,16.634s.307.465.792,1.229a9.254,9.254,0,0,1,4.34-3.321l.313-1.071-1.046-1.479a5.983,5.983,0,0,0-3.269,1.454,7.734,7.734,0,0,0-1.591,2.287Zm409.178.6,1.453-3.211-1.442-1.364a7.831,7.831,0,0,0-2.479,2.277C-1538.776,201-1537.947,201.775-1537.169,202.456Zm-374.221-3.107q.422-.23.875-.47a10.586,10.586,0,0,1-.463-3.69c-.15-.532-.313-1.087-.468-1.651A16.706,16.706,0,0,0-1911.39,199.348Zm573.364-1.314c.186-.325.293-.521.293-.521a6.167,6.167,0,0,0,.88-.4,15.578,15.578,0,0,1-.515-3.97,19.135,19.135,0,0,1-.937,2.565C-1338.25,196.457-1338.158,197.234-1338.026,198.034Zm-570.538-.16q.569-.285,1.177-.581c-.166-.207-.266-.315-.266-.315l.6-3.441a.414.414,0,0,1-.039-.081Zm4.543-3.392c.07.385.138.771.2,1.151.336-.15.679-.3,1.028-.453l-.045-.122-1.183-.834Zm285.25,1.105a6.215,6.215,0,0,1,1.627-.7,4.153,4.153,0,0,0,.591-.2,12.752,12.752,0,0,1-2.443-2.152l-3.529-4.306Zm-421.848-5.85,4.408,4.876c1.131-3.917,4.245-4.285,3.135-2.087a17.312,17.312,0,0,1,2.991-3.823,2.943,2.943,0,0,0,2.136-1.65c-.256-.944-.406-1.534-.406-1.534l-1.7-4.629-.738-.52q-.283.515-.6,1.084c.615,3.685.9,7.027-.094,6.96a1.194,1.194,0,0,1-.416-.157c-.181,2.2-.473,3.527-.985,1.836a19.676,19.676,0,0,0-1.46-3.546c-3.292,5.06-3.44,1.813-3.449-1.492l-1.212,3.641a12.49,12.49,0,0,1-1.743-5.058c-.276.518-.559,1.087-.845,1.686A25.316,25.316,0,0,0-2040.62,189.736Zm707.411,4.771q.471-.409.984-.89l.647-3.718a.6.6,0,0,1-.058-.12Zm-248.031-.7c5.375-3.942,10.87-8.608,10.87-8.608a9.265,9.265,0,0,0,.57-2.48l-7.285.96-2.318-6.325a51.573,51.573,0,0,0-3.9,6.627,4.586,4.586,0,0,1-2.751,2.417C-1584.395,189.055-1582.725,191.648-1581.24,193.809Zm84.336-21.146c5.855,6.974,15.487,17.981,20.337,20.862,8.056-4.355,23.321-17.316,23.321-17.316a12.387,12.387,0,0,0,.762-3.319l-9.749,1.285-3.1-8.466a68.877,68.877,0,0,0-5.224,8.87c-1.538,3.523-5.981,3.74-5.981,3.74l2.671-9.555c-.22-.026-.451-.058-.687-.1-.973.87-2.667,2.418-4.961,4.634-3.748,3.632-7.091,3.784-7.091,3.784l2.645-3.649c-3.014.512-6.708.585-6.979-2.047-2.052.131-2.578-.635-2.286-1.4a2.407,2.407,0,0,1,1.486-1.274c-1.364-2.139-4.227-3.842-6.321-4.879A30.078,30.078,0,0,1-1496.9,172.662Zm81.47,19.508c3.519-3.955,24.674-10.687,24.674-10.687,4.153-.2,4.333-4.52,6.889-3.775-.2-5.264,3.763-8.456,5.912-11.685-4.454,0-8.3.348-9.36,1.431-2.936,3-6.495,6-6.495,6l3.946-8.716-1.9-1.8s-2.407,1.071-5.27,5.951a12.284,12.284,0,0,1-2.734,3.2c.405.374.635.591.635.591s-.55.029-1.374-.015a14.554,14.554,0,0,1-4.863,2.313l1.279-2.935a8.676,8.676,0,0,1-.924-.359c-1.15-.528-3.156-1.275-5.012-1.938a16.37,16.37,0,0,1-2.308,1.79l3.351,5.518s-13.044,4.238-13.126-1.652c-.053-3.925-5.142-7.07-8.543-8.755,1.331,3.768,1.4,9.068,1.394,10.616,3.555,4.234,8.269,9.705,12.815,14.53A10.783,10.783,0,0,1-1415.434,192.171Zm265.189-1.452a13.48,13.48,0,0,1,6.179-4.615l.461-1.575-1.538-2.176a8.812,8.812,0,0,0-4.809,2.14,13.045,13.045,0,0,0-2.7,4.086C-1151.814,189.354-1151.01,190.071-1150.245,190.718Zm-402.208-4.733c1.175,1.4,2.519,2.979,3.946,4.618l10.025-3.411c1.8-.556,4.738-2.4,7.88-4.628a10.075,10.075,0,0,1-3.736-.747c-1.906-.874-6.956-2.558-6.956-2.558l3.99,6.571s-9.745,3.166-9.806-1.234c-.041-2.933-3.842-5.283-6.383-6.542A26.992,26.992,0,0,1-1552.452,185.985Zm-341.9.033a51.41,51.41,0,0,1,3.855,4.44q2.21-.749,4.617-1.5l-.108-1.534a11.831,11.831,0,0,1,.548-1.422q-.106-.163-.2-.338a12.811,12.811,0,0,0-.969-1.543c-.183.5-.287.821-.287.821l-1.3-2.59a6.115,6.115,0,0,0-.491-.406l.191,5.148-3.413-2.4-1.883-4.179-.657.5s.82,2.751-.528,4.459A6.833,6.833,0,0,1-1894.354,186.018Zm-61.673.912c1.093.875.711,1.29,2.783,2.94,3.256-1.193,5.959-2.053,5.959-2.053,2.822-.139,2.946-3.073,4.683-2.567-.137-3.578,2.559-5.748,4.019-7.943-3.027,0-5.641.237-6.362.973-2,2.038-4.415,4.078-4.415,4.078l2.683-5.926-1.3-1.226s-1.635.728-3.582,4.046a9.572,9.572,0,0,1-5.667,4.139l3.443-7.9-4.1,1.495s-2.266,3.285-4.835,4.483C-1961.16,182.671-1958.142,185.242-1956.028,186.93Zm368.86-2.321,1.584-5.668s-1.163.994-3.242,2.963C-1588.283,182.794-1587.729,183.7-1587.168,184.609Zm-310.94-.8c-.044-.158-.085-.316-.123-.471h-1.174l0,0-.011.029C-1898.971,183.5-1898.532,183.645-1898.107,183.806Zm14.349-.652c.159-.209.327-.418.506-.625l-1.729-2.109-.088.164Zm652.469-5.08c1.007,1.886,3.915,3.512,7.314,4.838,2.1-1.246,4.507-2.882,6.976-4.661-2.164-.685-10.418-3.333-18.447-6.392A53.614,53.614,0,0,1-1231.29,178.074Zm-309.564-3.668c2.792.723,9.2,6.57,10.627,7.891,6.356-4.547,13.377-10.508,13.377-10.508a10.3,10.3,0,0,0,.634-2.761l-8.109,1.069-2.58-7.042a57.352,57.352,0,0,0-4.345,7.378c-1.28,2.93-4.975,3.111-4.975,3.111l2.439-8.724s-1.788,1.527-4.915,4.549a11.623,11.623,0,0,1-4.732,2.913A8.142,8.142,0,0,0-1540.854,174.406Zm-423.384,6.361c.6-1.873,3.376-5.569,3.376-5.569l-3.6,3.4c-3.247,2.092-2.956-1.143-2.956-1.143l7.177-8.078.062-.021-4.409-4.472.13,4.433-7.126-5.67-.409-.141c3.366,5.188,2.359,10.4-1.263,4.117a5.957,5.957,0,0,0-3.584-2.635,22.02,22.02,0,0,1,.473,6.88l2.7,1.327a17.5,17.5,0,0,1,1.331,5.094c.064,2.214,2.939,1.022,2.939,1.022A20.947,20.947,0,0,1-1964.238,180.767Zm85.407-1.874.015.038.168-.573-1.164-1.647a5.774,5.774,0,0,0-1.753.457C-1879.919,178.168-1878.831,178.893-1878.831,178.893Zm625.745-27.219,8.075,8.933,16.033,9.9,12.106,7.646c4.3-3.108,8.772-6.642,12.056-9.307-2.611-1.378-7.025-9.845-7.025-9.845l-3.473-2.447c-1,1.6-2.154,3.53-3,5.243.273,1.758.2,2.9-.667,2.29a3.181,3.181,0,0,1-.337-.28c-1.985,3.018-6.09,3.218-6.09,3.218l2.51-8.977c-.222-.454-.438-.908-.644-1.35-.824.742-2.009,1.827-3.511,3.253.025.714-.064,1.185-.294,1.347-.279.2-.586.108-.909-.2l-.424.409c-4.119,3.992-7.794,4.16-7.794,4.16l2.3-3.178a22.937,22.937,0,0,1-1.842-4.055c-1.093.245-2.346.508-3.763.778-3.468.655-4.356-.346-3.975-1.346a2.874,2.874,0,0,1,3.27-1.467,5.384,5.384,0,0,0,3.514-.723c-1.392-4.262-2.516-8.686-2.516-8.686l-1.887-5.133-1.741-1.227v.379c.843,4.622,1.391,9.275.154,9.192a1.338,1.338,0,0,1-.461-.175c-.2,2.435-.525,3.911-1.093,2.036a20.126,20.126,0,0,0-3.945-7.38l.88-5.062a.58.58,0,0,1-.058-.119l-3.664,11.012a14.635,14.635,0,0,1-2.048-8.464c-.221-.782-.461-1.6-.688-2.429A25.463,25.463,0,0,0-1253.086,151.674Zm79.635,14.193c1.932,2.3,4.175,4.934,6.553,7.649,6.7-2.7,13.9-4.988,13.9-4.988,4.153-.2,4.333-4.519,6.889-3.775a9.879,9.879,0,0,1,.876-4.456,10.207,10.207,0,0,1-1.574-.562c-1.334-.612-3.715-1.494-5.845-2.25-.86.792-1.645,1.491-2.244,2.015l3.726,6.137s-14.335,4.658-14.426-1.816a5.585,5.585,0,0,0-.543-2.278,11.172,11.172,0,0,1-1.477.475l.75-1.72a17.021,17.021,0,0,0-4.705-4.183,19.056,19.056,0,0,1-2.441,2.083A49.838,49.838,0,0,1-1173.451,165.867ZM-1544,171.681l4.234-5.842a53.311,53.311,0,0,1-7.339,1.793q-.153.029-.3.052C-1546.166,169.2-1545.006,170.576-1544,171.681Zm62.479-1.623.727-1s-.363.132-1.119.356Zm-430.3-17.5c4.51,5.371,11.514,13.406,16.165,17.219,4.882-1.93,9.9-3.526,9.9-3.526,3.142-.153,3.279-3.42,5.213-2.857-.153-3.983,2.849-6.4,4.474-8.842-3.371,0-6.28.264-7.083,1.084-2.222,2.27-4.915,4.54-4.915,4.54l2.986-6.6-1.442-1.365s-1.821.81-3.988,4.5a10.657,10.657,0,0,1-6.308,4.608l3.833-8.792-4.57,1.665s-3.07,4.448-6.276,5.322c-2.408.663.479-3.806,2.059-6.065-.153.013-.306.024-.458.032l-2.653,2.5c-3.616,2.329-3.29-1.273-3.29-1.273l2.065-2.325a2.1,2.1,0,0,1-.368-1.223c-.041-2.933-3.842-5.283-6.383-6.542A27,27,0,0,1-1911.816,152.555Zm508.916,16.737,2.588-5.936-6.039,2.2s-.141.2-.4.544C-1405.4,167.164-1404.063,168.284-1402.9,169.292Zm-11.421-1.02.006-.01-.015,0Zm210.749-.433c.987-.808,1.822-1.5,2.452-2.024l-4.138-3.921-.916.121A23.052,23.052,0,0,1-1203.573,167.838Zm-121.525-1.875.56,1.493q.9-.365,1.847-.734l-1.57-1.389A1.408,1.408,0,0,1-1325.1,165.964Zm-158.891.021c.205-.162.393-.316.56-.455-.641-.219-1.052-.356-1.052-.356Zm73.1-2.849.159-.214-.2.189Zm211.877-1.755q.022-.155.043-.317l-.368.049Zm-111-3.406c.95.288,1.954.653,2.986,1.072.361-1.117,2.829-8.049,9.194-10.258l.462-1.575-1.539-2.176a8.811,8.811,0,0,0-4.809,2.14c-2.364,2-4.555,8.74-4.555,8.74l-4.633-9.246-5.345,4.052a8.977,8.977,0,0,1,.266,1.407C-1314.7,155.2-1311.858,157.413-1310.009,157.975Zm154.713.862.89-1.967c-1.521-.528-2.629-.9-2.629-.9Zm-75.584-.884.566-.78-.081-.215c-.124.041-.285.092-.484.154C-1230.879,157.394-1230.88,157.676-1230.881,157.953Zm87.128-.215c1.18-1.688,2.564-3.175,3.559-4.67a29.842,29.842,0,0,0-8.187.788C-1146.718,155.177-1145.1,156.557-1143.754,157.738Zm-756.75-11.656.138-.155-.292-.1Zm659.406-30.388,3.2,8.523c3.595.938,6.961,2.32,9.007,4.352a119.34,119.34,0,0,1,11.014,13.683c6.215-3.038,14.913-12.317,14.913-12.317s.295-.55.779-1.493c-.819.513-4.151,2.013-9.1-3.455l-4.485-5.47,6.6,12.935s-4.921-.7-6.9-4.4a16.761,16.761,0,0,0-4.479-5.469l.281,7.574-5.02-3.533-3.342-7.419-3.547,3.006-8.074-7.146A1.41,1.41,0,0,1-1241.1,115.694Zm-97.484,13.918c2.647,3.152,5.877,6.927,9.238,10.683,6.421-3.936,22.584-9.081,22.584-9.081,4.153-.2,4.333-4.52,6.889-3.775-.2-5.264,3.764-8.456,5.912-11.685-4.454,0-8.3.348-9.359,1.431-1.761,1.8-3.747,3.6-5.053,4.75,1.735,1.538,2.9,2.639,2.9,2.639a16,16,0,0,1-6.463-1.094c-.947-.434-2.421-1-3.957-1.569a14.9,14.9,0,0,1-3.628,2.164l3.223,5.307s-14.336,4.658-14.426-1.816c-.059-4.315-5.652-7.771-9.39-9.623C-1338.651,122.086-1338.576,127.911-1338.582,129.612Zm-692.058,7.822-.036-.621s1.47-6.247,5.876-8.124l.292-1.229-.977-1.7a5.078,5.078,0,0,0-3.058,1.67c-1.5,1.557-2.9,6.82-2.9,6.82l-2.946-7.215-3.025,2.814C-2035.26,132.332-2032.945,134.942-2030.64,137.434Zm710.2-14.876.855-1.962c-1.5-.518-2.58-.88-2.58-.88Zm11.443-1.176,3.13-6.915-1.9-1.8s-2.263,1.007-5.013,5.52C-1311.426,119.284-1310.12,120.4-1309,121.383Zm-733.14-1.037c1.467-.826,3.144-1.656,4.76-2.407a24.879,24.879,0,0,0-5.971-3.957A26.827,26.827,0,0,1-2042.138,120.346Zm725.025-5.425.8-1.835-2.326.847C-1318.149,114.23-1317.637,114.562-1317.113,114.921Zm-709.469-5.779a5.843,5.843,0,0,1,.775.268c.689-2.647,2.419-4.565,3.468-6.5-2.831,0-5.276.272-5.951,1.117-.6.751-1.239,1.5-1.831,2.176C-2028.539,107.876-2027.291,108.96-2026.581,109.141Zm-4.521-4,1.192-3.232-1.211-1.408a7.054,7.054,0,0,0-2.035,2.275C-2032.436,103.626-2031.749,104.419-2031.1,105.137Z" transform="translate(2153.499 1.661)" fill="#051115" stroke="rgba(0,0,0,0)" stroke-miterlimit="10" stroke-width="1"/>
</svg>
