<svg xmlns="http://www.w3.org/2000/svg" width="1812.107" height="500.011" viewBox="0 0 1812.107 500.011">
  <path id="Union_1" data-name="Union 1" d="M-900.331,497.094s4.856-78.013,3.441-90.75c-1.389-12.718-1.389-36.869-1.389-36.869l-2.018-21.421-1.525.514s-.785,3.584-3.559,15.094c-3.493,14.479-4.6,12.231-5.1,6.846l-1.059.451-2.1-6.774c-.937,4.593-1.94,10.688-2.953,14.173-1.83,6.2-1.426-9.1-1.426-9.1s.981-1.936-1.829.083-3.012,13.345-5.44,13.766c-2.412.42.72-18.478.72-18.478l-4.426,15.617s-3.442,19.848-5.668,16.722c-2.242-3.114-.339-16.553-.339-16.553s-2.673,16.625-4.994,15.29c-1.659-.961,2.191-17.166,4.549-26.4-1.558-2.391-2.613-6.949-3.286-11.325-.107.061-.223.169-.339.229-3.818,1.666-5.409,18.141-8.68,18.537-1.741.217-2.107-4.063-2.09-8.126a25.808,25.808,0,0,1-3.006-3.943l-1.522,1.394s-1.574,15.261-4.523,12.875-.108-12.949-.1-12.995c-.007.023-.783,2.6-1.915,5.378,1.59,17.259,3.23,33.625,3.23,33.625s-2.974,8.981-23.794,5.614c0,0,.917-14.73,1.838-32.432-9.741,7.7-1.007-5.164-1.007-5.164l1.355-1.688c.127-2.564.253-5.159.373-7.748l-5.624,8.547c-13.912,12.82-4.035-6.3-4.035-6.3l9.744-8.74.218-.276c.6-14,1-27.044.773-33.828a4.7,4.7,0,0,1-.759-.233l-2.8,3.947s-4.46,11.577-9.374,10.885-2.768-8.4-2.768-8.4-3.3,9.64-8.181,9.881c-4.656.229,7.179-17.507,8.34-19.231a35.139,35.139,0,0,1-4.622-7.094l-7.684-9.1s6.135,16.758,1.22,16.061c-4.73-.681-3.123-13.036-7.912-15.444-1.092,4.172-2.388,7.679-3.423,6.227-.973-1.352-1.165-4.647-1.071-7.946q-.456-.209-.9-.426a39.409,39.409,0,0,1-1.5,5.036c1.654,6.023,1.293,13.069-2.179,12.209l4.819,12.544s10.148,27.914,6.989,28.089c-3.149.138-6.055-13.927-6.055-13.927s2.014,11.276-1.093,12.851-6.9-15.29-6.9-15.29l-5.27-13.959s4.518,25.367,1.3,24.092c-3.207-1.25-2.386-21.193-6.034-23.863-3.668-2.656-7.868-9.557-7.868-9.557s3.621,22.564,1.431,16.975-7.332-26.628-9.3-26.545c-1.695.094,2.158,23.088-2.372,14.272l.289,7.632s4.466,45.259,3.713,49.552,6.123,73.042,6.123,73.042-2.974,8.981-23.794,5.614c0,0,4.856-78.013,3.442-90.75-.849-7.766-1.179-19.794-1.307-27.985-.09.029-.183.056-.28.079-3.54.86-7.352-5.477-8.719-8.012-2.094,6.7-2.885,4.394-3.284.081l-1.059.451-2.1-6.774-.023.114c1.363,4.426,3.216,11.883.053,11.428a2.79,2.79,0,0,1-1.991-1.5q-.072.34-.143.67c3.474,4.526,10.671,14.43,7.253,14.587-4.443.217-8.11-8.215-8.11-8.215s2.495,6.772-1.929,7.853c-4.4,1.073-9.238-9.033-9.238-9.033l-.885-1.049-.341,1.2s-3.441,19.848-5.668,16.722c-1.369-1.9-1.192-7.651-.847-11.841-.094-.142-.184-.293-.27-.453-.964,4.827-2.668,11.921-4.216,11.031-1.193-.691.463-9.266,2.364-17.461-.691-2.832-1.6-5.458-3.783-6.093a25.371,25.371,0,0,1-3.111-1.157c-.722,2.306-1.46,4.271-2.3,5.2,1.149,5.174.657,10.649-2.277,9.923l4.384,11.413s9.233,25.4,6.359,25.556c-2.866.126-5.51-12.671-5.51-12.671s1.833,10.26-.994,11.693-6.281-13.912-6.281-13.912l-4.794-12.7s4.11,23.079,1.186,21.919c-2.918-1.138-2.171-19.283-5.49-21.712-3.337-2.417-7.158-8.695-7.158-8.695s3.294,20.529,1.3,15.444-6.672-24.227-8.462-24.151c-1.543.086,1.963,21.006-2.159,12.985l.263,6.944s4.063,41.178,3.378,45.084,5.571,66.455,5.571,66.455-2.705,8.171-21.649,5.108c0,0,4.418-70.978,3.131-82.566-1.264-11.571-1.264-33.545-1.264-33.545l-1.835-19.49-1.387.468s-.715,3.261-3.238,13.733c-3.177,13.173-4.186,11.128-4.641,6.228l-.963.41-1.907-6.163c-.852,4.179-1.765,9.724-2.687,12.9-1.664,5.644-1.3-8.28-1.3-8.28s.893-1.76-1.664.076-2.74,12.142-4.95,12.524c-2.194.382.655-16.811.655-16.811l-4.027,14.208s-3.13,18.058-5.156,15.214-.309-15.06-.309-15.06-2.432,15.125-4.544,13.911c-1.509-.875,1.993-15.618,4.138-24.018-1.417-2.176-2.377-6.323-2.99-10.3-.1.056-.2.154-.309.208-3.473,1.516-4.92,16.505-7.9,16.866-1.583.2-1.916-3.7-1.9-7.394a23.409,23.409,0,0,1-2.735-3.586l-1.384,1.268a55.907,55.907,0,0,1-1.808,9.5c.859,13.842,4.5,50.167,4.5,50.167s-2.251,6.8-18.007,4.248c0,0,2.965-47.635,2.793-64.314a43.748,43.748,0,0,1-6.69,8.16c-14.567,13.071-4.684-1.487-4.684-1.487l7.791-9.7-4.959-.8-6.377,9.691c-12.658,11.665-3.67-5.731-3.67-5.731l8.866-7.952,8.7-10.995c-.213-7.151-.213-13.452-.213-13.452l-.751-7.976c-1.005,4.2-.786,9.77-3.734,10.495-1.357.33-1.88-.93-1.953-2.831-1.818,6.313-2.473,4.563-2.8,1.095l-.8.341-1.1-3.558c-.279.65-.734,1.651-1.321,2.756-.457,2.4-.927,4.775-1.4,6.4-.777,2.636-1.021.14-1.086-2.555-1.144,1.392-2.448,2.451-3.806,2.553q-.051.215-.1.424c1.322,4.435,2.3,8.615,1.292,8.671-1.2.052-2.349-2.93-3.126-5.561a2.324,2.324,0,0,1-.414-1.489c-.363-1.385-.576-2.418-.576-2.418s1.37,7.665-.743,8.736c-.612.309-1.265-.435-1.881-1.648-.091.4-.185.816-.283,1.226,2.267,3.583,7.89,12.868,5.382,13.02-3.1.192-5.663-7.045-5.663-7.045s1.733,5.807-1.345,6.736-6.458-7.745-6.458-7.745l-4.884-7.1s3.9,13.068.772,12.515c-2.643-.462-2.178-7.966-4.106-11.042a2.621,2.621,0,0,1-3.074,2.054l4.477,6.379s9.378,14.236,6.28,14.411-5.667-7.046-5.667-7.046,1.743,5.808-1.347,6.736c-1.085.324-2.208-.544-3.207-1.8.674,11.778,4.088,45.848,4.088,45.848s-2.022,6.106-16.176,3.817c0,0,.516-8.281,1.08-18.832-1.859-1.072-3.493-10.773-3.493-10.773s1.281,8.8-.694,10.029-4.389-11.932-4.389-11.932l-3.351-10.893s2.873,19.8.83,18.8c-2.039-.976-1.517-16.539-3.837-18.623s-5-7.457-5-7.457,2.3,17.608.91,13.247-4.662-20.781-5.913-20.715c-1.077.073,1.373,18.017-1.508,11.138l.184,5.956s2.84,35.32,2.361,38.669,3.893,57,3.893,57-1.891,7.009-15.127,4.382c0,0,3.087-60.881,2.187-70.821-.883-9.925-.883-28.772-.883-28.772l-1.282-16.717-.969.4s-.5,2.8-2.263,11.779c-2.22,11.3-2.925,9.544-3.243,5.342l-.673.352-1.332-5.287c-.6,3.584-1.234,8.34-1.877,11.06-1.163,4.842-.906-7.1-.906-7.1s.624-1.51-1.163.066-1.915,10.415-3.459,10.742.457-14.42.457-14.42l-2.813,12.187s-2.188,15.489-3.6,13.049-.215-12.917-.215-12.917-1.7,12.974-3.175,11.932c-1.055-.751,1.392-13.4,2.892-20.6-.991-1.867-1.661-5.422-2.089-8.837-.068.048-.142.131-.216.178-2.427,1.3-3.439,14.157-5.518,14.467-1.106.169-1.339-3.172-1.328-6.342a20.262,20.262,0,0,1-1.911-3.076l-.968,1.087s-1,11.91-2.875,10.048-.06-10.14-.06-10.14-2.514,10.264-4.493,9.474c-1.251-.488,1.381-8.434,3.492-14.2l-3.854,2.58a42.4,42.4,0,0,1-5.636,8.9c-3.376,3.718-4.873,4.83-5.365,4.655,1.392,15.564,3.1,32.637,3.1,32.637s-2.34,7.067-18.724,4.418c0,0,3.821-61.391,2.708-71.414-1.093-10.008-1.093-29.013-1.093-29.013l-1.588-16.857-1.2.4s-.618,2.82-2.8,11.877c-2.749,11.394-3.621,9.626-4.013,5.387l-.833.355-1.65-5.331c-.547,2.682-1.123,6.014-1.709,8.676.128.614.056,1.057-.29,1.254-.108.441-.216.851-.324,1.224-.665,2.257-.955.9-1.074-1.218a6.773,6.773,0,0,1-3.178-2.336c-.827,3.121-1.329,7.073-2.589,7.291-.844.147-.826-2.713-.545-5.935a2.8,2.8,0,0,1-1.395.773q-.081.02-.162.034l-.815,2.876s-2.708,15.619-4.46,13.159-.266-13.026-.266-13.026-2.1,13.082-3.93,12.033c-.525-.3-.35-2.545.168-5.589-3.469-.744-6.2-7.037-6.2-7.037s2.157,5.856-1.669,6.792c-3.809.927-7.989-7.814-7.989-7.814l-2.157-2.554a5.616,5.616,0,0,1-1.885,2.259c.663,3.106.821,6.037-1.044,5.772-3.163-.455-2.725-7.544-4.835-10.827a26.383,26.383,0,0,1-2.314,2.394c-1.563,1.4-2.8,2.436-3.768,3.173.125,3.06-.6,5.448-2.451,4.99l3.792,9.871s7.987,21.966,5.5,22.1c-2.478.109-4.765-10.96-4.765-10.96s1.585,8.874-.859,10.113-5.432-12.033-5.432-12.033l-4.148-10.984s3.556,19.961,1.027,18.958c-2.524-.984-1.878-16.678-4.748-18.779-2.887-2.09-6.191-7.52-6.191-7.52s2.849,17.756,1.126,13.358-5.77-20.955-7.319-20.889c-1.334.075,1.7,18.168-1.867,11.232l.228,6s3.514,35.617,2.921,38.994,4.819,57.479,4.819,57.479-2.34,7.067-18.724,4.418c0,0,3.821-61.391,2.708-71.414-1.094-10.008-1.094-29.013-1.094-29.013l-1.587-16.857-1.2.4s-.617,2.82-2.8,11.877c-2.749,11.394-3.621,9.626-4.013,5.387l-.834.355-1.649-5.331c-.737,3.614-1.527,8.41-2.324,11.154-1.439,4.882-1.121-7.161-1.121-7.161s.771-1.523-1.439.066-2.371,10.5-4.281,10.832.566-14.54.566-14.54l-3.483,12.289s-2.708,15.619-4.46,13.159-.266-13.026-.266-13.026-2.1,13.082-3.93,12.033c-1.306-.757,1.724-13.509,3.579-20.775-1.226-1.882-2.057-5.468-2.586-8.912-.085.049-.176.133-.267.18-3,1.31-4.256,14.276-6.83,14.588-1.37.17-1.658-3.2-1.644-6.4a20.318,20.318,0,0,1-2.365-3.1l-1.2,1.1s-1.239,12.01-3.559,10.131-.075-10.226-.075-10.226-3.112,10.35-5.561,9.554c-1.549-.492,1.711-8.505,4.323-14.324l-4.77,2.6a42.359,42.359,0,0,1-6.976,8.977c-12.6,11.306-4.052-1.286-4.052-1.286l6.739-8.391-4.289-.691-5.515,8.382c-10.948,10.089-3.175-4.957-3.175-4.957l7.668-6.878,8.792-11.114a23.936,23.936,0,0,1,11.456-4.465,13.044,13.044,0,0,1,1.794-2.98,19.677,19.677,0,0,1,2.587-4.617,36.476,36.476,0,0,1,4.79-2.138c-.618-7.564,6.07-8.921,4.326-6.107a18.68,18.68,0,0,1,3.7-3.855,3.759,3.759,0,0,0,3.266-3.519c.379-3.282,2.524-3.208,2.524-3.208l4.9-3.188c-.351-.927-.7-1.831-1.027-2.771l-6.822-1.751c-.363.888-1.849,3.4-6.342,9.858-5.836,8.4-6.034,4.615-6.043.831-.005-2.131.048-4.262-.811-4.217-2.412.123-7.272,11.542-9.559,14.634s.618-8.977.618-8.977a44.8,44.8,0,0,1-6.681,4.6c.513,2.384.629,4.05-.037,4.087-.839.037-1.656-1.26-2.361-2.954-4.057,1.881-1.845,11.954-5.612,12.88-3.818.928,0-12.676,0-12.676l-5.477,7.728s-3.509,9.11-7.377,8.566-2.178-6.608-2.178-6.608-2.323,6.78-5.82,7.68a14.288,14.288,0,0,1-.052,2.209c-.578,3.258,4.634,55.278,4.634,55.278s-2.251,6.8-18.007,4.249c0,0,3.675-59.039,2.6-68.678-1.051-9.625-1.051-27.9-1.051-27.9l-.594-6.3a17.357,17.357,0,0,1-3.3-4.293c-.38,1.606-.866,3.644-1.481,6.2-.268,1.111-.517,2.092-.75,2.953,1.417,2.366,2.192,4.341.882,4.4a3.35,3.35,0,0,1-2.046-.669c-1.188,3.053-1.681,1.361-1.947-1.5l-.8.341-.884-2.859c.29,1.561.332,3.894-1.822,4.421q-.092.022-.183.036c-.307,1.522-.619,2.926-.932,4-.976,3.311-1.112-1.475-1.107-4.583a9,9,0,0,1-1.84-1.732c-1.672,2.365-1.946,9.617-3.633,9.909-1.825.318.545-13.983.545-13.983l-3.35,11.818s-2.6,15.02-4.289,12.655-.256-12.527-.256-12.527a80.261,80.261,0,0,1-1.862,8.52c1.667,5.24,3.29,11.19,2.09,11.256-1.641.072-3.184-5.527-3.816-8.147a.381.381,0,0,1-.108-.02c.284,2.236.628,6.643-.935,7.435-2.112,1.067-4.693-10.394-4.693-10.394l-3.583-9.489s3.072,17.244.887,16.377c-2.181-.85-1.623-14.406-4.1-16.222a8.95,8.95,0,0,1-.806-.667c-.347.446-.731.582-1.153.24a3.689,3.689,0,0,1-.984-2.618c-.443-.565-.851-1.126-1.2-1.625-.228.488-.467.961-.713,1.4.63,4.271,1.521,10.973.48,8.317-.494-1.262-1.211-3.687-2-6.361a1.1,1.1,0,0,1-1.007.245c-.59-.187-.455-1.507.08-3.382-.635-2.121-1.276-4.18-1.851-5.745-.475.715-1.059,1.553-1.722,2.426.208,3.923.4,8.053-1.438,4.475l.2,5.188s3.036,30.767,2.524,33.684,4.162,49.654,4.162,49.654-2.021,6.1-16.175,3.816c0,0,3.3-53.032,2.339-61.69-.944-8.645-.944-25.063-.944-25.063l-.147-1.561c-1.16.428-.864-.708-.2-2.074l-.454-4.821-.358.544a24.933,24.933,0,0,1-3.374,2.723l-.3,1.237c-2.374,9.842-3.128,8.314-3.467,4.653l-.72.307-1.425-4.605c-.637,3.123-1.319,7.266-2.008,9.635-1.243,4.216-.968-6.187-.968-6.187s.667-1.316-1.244.057-2.047,9.072-3.7,9.357.49-12.56.49-12.56l-3.009,10.616s-2.34,13.492-3.854,11.368-.234-11.224-.23-11.253c-.008.048-1.819,11.3-3.395,10.394-1.128-.653,1.49-11.668,3.092-17.946-1.059-1.625-1.777-4.723-2.235-7.7-.072.041-.151.114-.229.156-2.6,1.131-3.677,12.332-5.9,12.6-1.183.148-1.432-2.762-1.421-5.524a15.385,15.385,0,0,1-1.622-2.044,3.784,3.784,0,0,1-.93-.17l-.527.482s-1.07,10.374-3.074,8.753-.065-8.833-.065-8.833-2.688,8.941-4.8,8.253c-1.337-.425,1.478-7.347,3.734-12.373l-1.43.78a3.215,3.215,0,0,1-2.491,2.752,2.86,2.86,0,0,1-1.022.057,33.4,33.4,0,0,1-5.2,6.414c-1.2,1.08-2.184,1.908-2.975,2.525.343,1.161.2,1.913-.72,1.955a3.948,3.948,0,0,1-1.892-.411.3.3,0,0,1-.322-.166,11.087,11.087,0,0,1-3.28-3.167c-1.108.693-1.677.684-1.9.266a3.311,3.311,0,0,1-2.557,3.119c-2.767.674-5.705-3.1-7.486-5.961,1.159,16.274,2.768,35.985,2.768,35.985s-1.891,7.009-15.128,4.381c0,0,.013-.262.038-.753-2.781-.316-5.31-12.555-5.31-12.555s1.817,10.17-.984,11.59-6.226-13.79-6.226-13.79l-4.753-12.588s4.075,22.877,1.176,21.728c-2.893-1.128-2.152-19.113-5.441-21.521-3.308-2.4-7.1-8.618-7.1-8.618s3.265,20.348,1.291,15.308-6.613-24.015-8.387-23.939c-1.529.085,1.946,20.822-2.14,12.872l.261,6.882s4.027,40.817,3.348,44.688,5.521,65.874,5.521,65.874-2.682,8.1-21.459,5.063c0,0,4.379-70.356,3.1-81.842-1.253-11.47-1.253-33.251-1.253-33.251l-1.819-19.318-1.375.464s-.708,3.232-3.209,13.613c-3.15,13.058-4.15,11.03-4.6,6.174l-.956.407-1.89-6.109c-.845,4.142-1.75,9.638-2.663,12.782-1.65,5.594-1.285-8.207-1.285-8.207s.885-1.745-1.65.076-2.716,12.035-4.907,12.414c-2.175.379.65-16.663.65-16.663l-3.992,14.083s-3.1,17.9-5.111,15.08-.306-14.927-.306-14.927-2.41,14.992-4.5,13.789c-1.5-.867,1.976-15.481,4.1-23.808-1.4-2.156-2.356-6.267-2.963-10.213-.1.056-.2.153-.306.207-1.6.7-2.762,4.266-3.846,7.929.625,2.742.809,4.706.072,4.747a1.647,1.647,0,0,1-1.248-.819c-.847,2.654-1.725,4.73-2.805,4.861-1.206.15-1.68-2.1-1.828-4.811-1.141.119-2.372-2.633-3.346-5.542l-.793.727s-1.419,13.763-4.079,11.612c-2.229-1.806-.787-8.8-.257-11.03l-.036-.027c-.8,2.485-3.762,11.067-6.165,10.287-1.7-.541,1.663-9.006,4.582-15.58q-.041-.29-.08-.587l-5.014,2.735a48.541,48.541,0,0,1-7.995,10.288q-.877.786-1.635,1.44c.536,6.808.9,12.67.673,13.944-.6,3.387,4.819,57.479,4.819,57.479s-2.341,7.067-18.724,4.418c0,0,3.821-61.391,2.708-71.414-.154-1.406-.286-2.989-.4-4.672-4.011,2.263-1.881-3.418-.352-6.82-.285-7.294-.333-14.592-.341-16.828a28.788,28.788,0,0,1-3.185-5.05l-1.912-2.264q-.231.965-.492,2.045a42.691,42.691,0,0,1-2.384,7.848c3.024,4.191,6.476,9.627,4.126,9.735-3.843.188-7.015-7.1-7.015-7.1s2.158,5.856-1.668,6.791c-2.635.642-5.447-3.341-6.931-5.859-.475,2.037-.973,3.749-1.791,3.891-.955.166-.806-3.513-.422-7.211l-.815-.965-1.619,5.711a3.518,3.518,0,0,1-.3,1.5c-.7,3.687-2.784,13.895-4.225,11.871-1.764-2.451-.267-13.026-.267-13.026s-2.1,13.082-3.93,12.032c-1.222-.708,1.356-11.934,3.212-19.325-.558-1.611-1.348-2.905-2.71-3.3a22.191,22.191,0,0,1-2.8-1.05c-.578,1.881-1.118,3.891-1.686,5.511.729,4.16.193,8.2-2.161,7.614l3.792,9.871s7.986,21.967,5.5,22.1c-2.478.109-4.766-10.96-4.766-10.96s1.586,8.874-.859,10.113-5.432-12.032-5.432-12.032l-4.147-10.984s3.556,19.962,1.027,18.959c-2.525-.985-1.878-16.678-4.748-18.779-2.887-2.09-6.191-7.52-6.191-7.52s2.849,17.755,1.126,13.357c-1.549-3.955-4.991-17.8-6.791-20.447q-.145.136-.292.268-.3.27-.586.522c-.187,3.968,1.48,15.834-1.518,10l.228,6.006s3.515,35.616,2.921,38.993,4.819,57.479,4.819,57.479-2.341,7.068-18.724,4.418c0,0,3.821-61.391,2.708-71.413-1.094-10.009-1.094-29.014-1.094-29.014l-1.476-15.675a1.453,1.453,0,0,1-.232-1.141l-1.079.363s-.617,2.82-2.8,11.878c-2.749,11.394-3.622,9.625-4.014,5.387l-.833.355-1.649-5.331c-.738,3.614-1.527,8.41-2.324,11.153-1.44,4.882-1.121-7.161-1.121-7.161s.771-1.523-1.44.066c-.99.711-1.568,2.9-2.079,5.132,1.6,5.506,2.684,10.456,1.426,10.526-1.224.054-2.407-2.272-3.357-4.936a.718.718,0,0,1-.271.11c-.592.1-.76-1.272-.71-3.213-.409-1.445-.725-2.754-.916-3.588l-.039.138c.375,2.651,1.088,9.382-1.152,10.518a1.07,1.07,0,0,1-1.257-.347c-.945,4.164-2.284,8.828-3.3,7.4-1.764-2.451-.267-13.026-.267-13.026s-2.1,13.082-3.93,12.032c-1.161-.673,1.109-10.841,2.93-18.193-.255-1.011-.4-1.655-.4-1.655l-3.114-8.248a12.317,12.317,0,0,0-.7,1.475c1,6.694,2.178,16.68.239,15.911-1.325-.516-1.888-4.568-2.424-9.041-.8,2.591-1.611,4.708-2.633,4.832-1.37.171-1.658-3.2-1.645-6.4a20.263,20.263,0,0,1-2.365-3.1l-1.2,1.1s-1.239,12.01-3.559,10.132-.075-10.226-.075-10.226-3.112,10.349-5.562,9.553c-1.548-.492,1.711-8.5,4.323-14.323l-4.769,2.6s-.383.673-1.044,1.7c1.082,11.429,3.3,35.893,2.786,38.847-.689,3.882,5.522,65.873,5.522,65.873s-2.683,8.1-21.459,5.063c0,0,4.379-70.356,3.1-81.842-.5-4.56-.8-10.75-.979-16.553-3.155,1.983-1.453-1.347-.1-3.6-.045-1.872-.079-3.653-.1-5.263l-1.821,2.767c-10.948,10.088-3.175-4.957-3.175-4.957l4.928-4.42c0-.788,0-1.228,0-1.228l-1.82-19.319-.8.269c-.233.3-.475.586-.724.849-.314,1.386-1.181,5.149-3.062,12.957-3.149,13.058-4.149,11.031-4.6,6.174l-.955.407-1.89-6.109c-.845,4.142-1.751,9.638-2.663,12.782-1.65,5.6-1.286-8.207-1.286-8.207s.885-1.745-1.65.076-2.715,12.036-4.906,12.415c-2.175.379.65-16.664.65-16.664l-3.992,14.084s-3.1,17.9-5.112,15.08-.305-14.928-.305-14.928-2.411,14.993-4.5,13.79c-1.5-.868,1.975-15.481,4.1-23.809-1.4-2.156-2.356-6.266-2.964-10.212-.1.055-.2.152-.306.206-1.029.449-1.878,2.09-2.642,4.181,2.182,3.213,4.022,6.549,2.314,6.628-1.388.068-2.675-.994-3.7-2.253-1.183,4.028-2.293,7.979-3.8,8.161-1.454.182-1.844-3.117-1.882-6.517a11.456,11.456,0,0,1-3.46-3.683l-.625.573s-1.42,13.764-4.079,11.612c-2.058-1.668-.986-7.759-.393-10.439a.881.881,0,0,1-.146.124c-1.048,3.112-3.718,10.259-5.921,9.544-1.411-.448.66-6.342,3.072-12.09-.271-.885-.482-1.9-.715-2.907l-2.87,1.566a55.2,55.2,0,0,1-4.685,6.759l2.134,5.554s6.9,18.977,4.751,19.094c-2.141.094-4.116-9.467-4.116-9.467s1.37,7.665-.743,8.735-4.693-10.394-4.693-10.394l-3-7.94-.283.237c.716,4.385,2.333,15.286.586,14.593-1.622-.633-1.729-8.294-2.7-12.926-4.953,3.63-2.971-.409-1.3-3.211a1.312,1.312,0,0,0-.1-.085,14.645,14.645,0,0,1-2.5-2.488c-.748.674-1.413,1.238-2,1.7.534,3.9.978,8,.126,5.827-.4-1.011-.936-2.771-1.539-4.806-4.051,2.6-2.9-1.569-1.486-5.026-1.292-4.3-2.594-8.242-3.3-8.212-1.153.064,1.466,15.694-1.614,9.7l.2,5.188s3.036,30.767,2.524,33.685,4.162,49.653,4.162,49.653-2.022,6.1-16.176,3.817c0,0,3.3-53.033,2.34-61.691-.945-8.646-.945-25.064-.945-25.064l-1.371-14.561-1.037.349s-.534,2.436-2.419,10.261c-2.374,9.842-3.127,8.315-3.467,4.654l-.72.306-1.425-4.6c-.637,3.122-1.32,7.265-2.008,9.634-1.243,4.217-.968-6.187-.968-6.187s.667-1.315-1.244.058-2.047,9.071-3.7,9.357.49-12.561.49-12.561l-3.009,10.616s-2.339,13.492-3.854,11.367-.234-11.224-.23-11.253c-.008.048-1.82,11.3-3.395,10.394-1.128-.653,1.49-11.669,3.092-17.945-1.059-1.626-1.777-4.724-2.234-7.7-.073.041-.152.115-.23.156-2.6,1.132-3.677,12.332-5.9,12.6-1.184.147-1.432-2.763-1.421-5.525a17.49,17.49,0,0,1-2.043-2.679l-1.034.947s-1.071,10.374-3.075,8.752-.064-8.833-.064-8.833-2.688,8.941-4.805,8.253c-1.337-.425,1.478-7.346,3.735-12.372l-4.121,2.247a36.563,36.563,0,0,1-6.026,7.755c-10.884,9.766-3.5-1.111-3.5-1.111l5.821-7.249-3.705-.6-4.765,7.241c-9.457,8.716-2.743-4.282-2.743-4.282l6.625-5.941,7.594-9.6a20.684,20.684,0,0,1,9.9-3.857,11.274,11.274,0,0,1,1.549-2.574,17.021,17.021,0,0,1,2.236-3.989,31.656,31.656,0,0,1,4.137-1.847c-.534-6.534,5.244-7.707,3.738-5.275a16.148,16.148,0,0,1,3.2-3.33,3.247,3.247,0,0,0,2.822-3.04c.328-2.835,2.181-2.77,2.181-2.77l4.232-2.754c-.3-.8-.606-1.581-.886-2.394l-5.893-1.512c-.313.768-1.6,2.934-5.479,8.516-5.041,7.256-5.212,3.987-5.221.717-.005-1.841.041-3.682-.7-3.643-2.083.106-6.281,9.97-8.258,12.641s.534-7.754.534-7.754a34.143,34.143,0,0,1-7.708,4.9c-3.687,1.462-1.687,10.374-4.982,11.183s0-10.95,0-10.95l-4.731,6.676s-3.031,7.871-6.373,7.4-1.881-5.708-1.881-5.708-2.246,6.553-5.561,6.717,5.73-13.164,5.73-13.164l4.344-6.007c-4.949.883,1.16-5.215,1.16-5.215,2.12-1.454,3.413-1.363,4.2-1.272.715.084,1.009.167,1.12-.918.446-4.23,8.74-8.821,7.391-6.993a29.808,29.808,0,0,0,2.491-3.81s1.744-.564,4.542-3.433a1.422,1.422,0,0,1,.868-.457l1.017-4.79a21.557,21.557,0,0,1-4.517,1.508c-1.243.062-1.074,4.557-3.048,7.236a22.359,22.359,0,0,1-2.79,3.351l.472-9.68s-3.69,1.474-4,4.066-5.518,7.992-5.518,7.992l2.977-9.169-4.441,3.448s-1.106,3.924-4.008,4.065,1.859-5.887,1.859-5.887,5.934-8.025,9.984-10.8c2.571-1.757,11.2-7.045,27.544-12.115l-.1-1.378s1.571-5.441,6.283-7.077l.313-1.07-1.046-1.48a5.989,5.989,0,0,0-3.269,1.455c-1.607,1.355-3.1,5.941-3.1,5.941l-3.149-6.285-3.634,2.754s.949,3.179-1.073,4.564c-1.231.843-1.948-.944-2.323-2.479h-1.054l0,0c-.538,1.441-1.29,3.484-1.917,5.324-1.124,3.269-.709-7.7-.709-7.7l-2.707,5.279c.1,2.584-3.176,4.029-3.176,4.029l1.755-8.457-4.783,5.377c-3.636,2.763-2.144-1.822-2.144-1.822l-4.782,5.385c-6.594,1.624,2.591-8.486,2.591-8.486l4.847-3.461c-2.487.122-5.486-2.32-1.391-3.8a11.374,11.374,0,0,1,7.907.248c2.392-2.687,16.773-7.265,16.773-7.265,2.822-.139,2.946-3.073,4.683-2.566-.138-3.578,2.558-5.748,4.019-7.943-3.028,0-5.641.237-6.362.973-2,2.039-4.416,4.078-4.416,4.078l2.683-5.925-1.295-1.227s-1.635.728-3.582,4.046a9.575,9.575,0,0,1-5.667,4.139l3.443-7.9-4.1,1.5s-2.758,4-5.638,4.78,2.66-6.571,2.66-6.571l-3.6,3.4c-3.247,2.092-2.956-1.144-2.956-1.144l7.177-8.077,11.083-3.772c4.93-1.525,19.43-13.836,19.43-13.836a9.228,9.228,0,0,0,.569-2.48l-7.284.96-2.317-6.326a51.609,51.609,0,0,0-3.9,6.628c-1.149,2.633-4.469,2.795-4.469,2.795l2.191-7.836s-1.607,1.372-4.416,4.086-5.3,2.828-5.3,2.828l4.347-6a47.912,47.912,0,0,1-6.592,1.61c-2.357.445-2.961-.234-2.7-.914a1.955,1.955,0,0,1,2.223-1c2.1.538,5.7-2.861,5.7-2.861s3.964-5.34,8.084-6.187,11.717-8.947,11.717-8.947,6.793-12.659,6.206-17.137,2.656-12.373,2.656-12.373l3,13.382,2.217,7.649c4.948,6.844,15.224,20.72,17.588,21.325,3.151.816,10.91,8.156,10.91,8.156a10.893,10.893,0,0,1-4.394-.744c-1.905-.874-6.955-2.558-6.955-2.558l3.99,6.571s-9.745,3.166-9.807-1.235c-.04-2.933-3.841-5.283-6.383-6.541a27,27,0,0,1,1.042,7.932,199.253,199.253,0,0,0,13.832,15.149c1.072-1.313,1.9-2.227,1.9-2.227l6.431-4.59c-3.3.162-7.277-3.08-1.846-5.035a15.089,15.089,0,0,1,10.491.329c3.174-3.566,22.253-9.638,22.253-9.638,3.745-.184,3.908-4.076,6.212-3.4-.182-4.747,3.395-7.626,5.333-10.537-4.017,0-7.484.314-8.441,1.291C-2015.788,155.3-2019,158-2019,158l3.559-7.861-1.718-1.626s-2.17.966-4.753,5.367a12.7,12.7,0,0,1-7.516,5.491l4.567-10.478-5.446,1.985s-3.658,5.3-7.479,6.341,3.529-8.717,3.529-8.717l-4.782,4.51c-4.308,2.776-3.921-1.517-3.921-1.517l9.521-10.716,14.7-5c6.54-2.022,25.777-18.355,25.777-18.355a12.244,12.244,0,0,0,.755-3.29l-9.663,1.274-3.075-8.393a68.368,68.368,0,0,0-5.178,8.793c-1.525,3.492-5.928,3.707-5.928,3.707l2.906-10.4s-2.132,1.821-5.857,5.421-7.029,3.751-7.029,3.751l5.766-7.958a63.612,63.612,0,0,1-8.744,2.137c-3.127.591-3.928-.311-3.586-1.214a2.592,2.592,0,0,1,2.949-1.323c2.783.715,7.565-3.8,7.565-3.8s5.26-7.085,10.725-8.208,15.545-11.87,15.545-11.87,9.013-16.793,8.234-22.734,3.524-16.415,3.524-16.415l3.974,17.753,2.941,10.148c6.566,9.078,20.2,27.488,23.333,28.291,4.18,1.083,14.474,10.82,14.474,10.82a14.453,14.453,0,0,1-5.829-.987c-2.529-1.16-9.227-3.394-9.227-3.394l5.292,8.717s-12.928,4.2-13.01-1.638c-.053-3.891-5.1-7.008-8.467-8.678,1.319,3.735,1.386,8.987,1.381,10.522,5.107,6.083,12.627,14.741,18.557,20.292,1.477-1.753,5-5.513,8.634-6.259,4.777-.984,13.564-10.357,13.564-10.357s7.864-14.654,7.185-19.838,3.074-14.323,3.074-14.323l3.468,15.491,2.566,8.855c5.729,7.922,17.624,23.985,20.361,24.685,2.978.772,9.514,6.579,11.811,8.683l3.53-1.2c5.708-1.765,22.492-16.016,22.492-16.016a10.68,10.68,0,0,0,.66-2.871l-8.432,1.111-2.683-7.322a59.657,59.657,0,0,0-4.519,7.673c-1.33,3.047-5.172,3.235-5.172,3.235l2.535-9.071s-1.86,1.589-5.111,4.73-6.133,3.272-6.133,3.272l5.032-6.943a55.541,55.541,0,0,1-7.631,1.864c-2.729.516-3.428-.272-3.128-1.059a2.261,2.261,0,0,1,2.573-1.154c2.428.624,6.6-3.312,6.6-3.312s4.59-6.182,9.359-7.161,13.564-10.358,13.564-10.358,7.864-14.653,7.185-19.838,3.074-14.323,3.074-14.323l3.468,15.491,2.566,8.855c5.729,7.922,17.624,23.986,20.361,24.686,3.647.945,12.629,9.441,12.629,9.441a12.6,12.6,0,0,1-5.086-.862c-2.207-1.012-8.051-2.961-8.051-2.961l4.618,7.607s-11.281,3.665-11.353-1.429c-.046-3.395-4.447-6.116-7.389-7.573a31.21,31.21,0,0,1,1.206,9.182c5.19,6.181,13.234,15.409,18.618,19.854l2.149-2.419,14.7-5c6.541-2.022,25.777-18.355,25.777-18.355a12.274,12.274,0,0,0,.756-3.29l-9.664,1.274-3.074-8.392a68.367,68.367,0,0,0-5.179,8.792c-1.525,3.492-5.928,3.708-5.928,3.708l2.907-10.4s-2.132,1.821-5.858,5.421-7.029,3.75-7.029,3.75l5.767-7.958a63.61,63.61,0,0,1-8.745,2.137c-3.127.591-3.928-.311-3.585-1.214a2.592,2.592,0,0,1,2.948-1.323c2.784.715,7.565-3.8,7.565-3.8s5.26-7.084,10.726-8.207,15.544-11.87,15.544-11.87,9.013-16.793,8.234-22.735,3.524-16.414,3.524-16.414l3.974,17.753,2.94,10.148c2.373,3.281,5.668,7.781,9.058,12.228l8.624-3.6c4.612-1.751,18.172-15.883,18.172-15.883a12.6,12.6,0,0,0,.533-2.848l-6.812,1.1-2.168-7.262a63.087,63.087,0,0,0-3.65,7.609,4.962,4.962,0,0,1-4.18,3.208l2.049-9s-1.5,1.576-4.129,4.691-4.955,3.245-4.955,3.245l4.065-6.886a38.247,38.247,0,0,1-6.165,1.85c-2.2.511-2.769-.27-2.528-1.05a1.746,1.746,0,0,1,2.08-1.146c1.962.618,5.333-3.284,5.333-3.284s3.708-6.13,7.562-7.1,10.957-10.272,10.957-10.272,6.354-14.531,5.805-19.673,2.484-14.2,2.484-14.2l2.8,15.362,2.073,8.781c4.629,7.857,14.239,23.787,16.449,24.481,2.947.937,10.2,9.363,10.2,9.363a8.469,8.469,0,0,1-4.109-.854c-1.782-1-6.5-2.937-6.5-2.937l3.73,7.543s-9.114,3.635-9.172-1.417c-.037-3.367-3.593-6.065-5.969-7.51a37.693,37.693,0,0,1,.974,9.105c5.4,7.9,14.636,20.816,18.166,22.135,5.107,1.9,12.684,8.1,12.684,8.1l2.586,7.973s-2.264,2.355-5.912-2.588l-2.852-4.27,4.2,10.094a6.309,6.309,0,0,1-4.389-3.434,12.658,12.658,0,0,0-2.848-4.268l.178,5.91-3.191-2.758-2.125-5.789-2.255,2.346-5.134-5.577a.938.938,0,0,1-.532.492l2.032,6.651a12.144,12.144,0,0,1,5.726,3.4c4.046,4.935,9.813,15.676,9.813,15.676s10.484,11.933,13.648,13.959-1.368,6-5.045.311l-4.84-5.63s3.722,7.181,2.171,7.267-4.905-7.83-4.905-7.83l-5.592-4.836s2.652,10.184,1.052,8.806-4.174-9.373-4.174-9.373l-2.4-1.83c1.082,4.606,1.811,8.546,1.257,9.025-.636.553-1.5-1.782-2.255-4.495.058,3.829-.068,7.861-.981,5.656a1.168,1.168,0,0,1-.077.226c-1.267,2.589-4.4-12.552-4.4-12.552l-1.2-4.006-1.107-.957v.3c.537,3.606.885,7.238.1,7.172a.769.769,0,0,1-.293-.136c-.127,1.9-.333,3.053-.694,1.589a16.878,16.878,0,0,0-2.508-5.76l.56-3.949a.5.5,0,0,1-.036-.094l-2.33,8.593a13.387,13.387,0,0,1-1.3-6.6c-.141-.611-.293-1.248-.438-1.9a24.212,24.212,0,0,0,.6,9.4l5.135,6.971,10.193,7.729,7.961,6.173s-6.134-2.344-12.073-5.123a43.67,43.67,0,0,1,2.642,4.851c1.881,4.325,14.2,6.9,14.2,6.9s6.964,5.549,11.776,9.66l7.353-2.5c4.93-1.525,19.43-13.836,19.43-13.836a9.25,9.25,0,0,0,.569-2.48l-7.284.96-2.318-6.325a51.435,51.435,0,0,0-3.9,6.628c-1.149,2.632-4.469,2.794-4.469,2.794l2.191-7.836s-1.607,1.372-4.415,4.086-5.3,2.827-5.3,2.827l4.347-6a47.909,47.909,0,0,1-6.592,1.61c-2.357.446-2.961-.235-2.7-.915a1.954,1.954,0,0,1,2.223-1c2.1.539,5.7-2.861,5.7-2.861s3.965-5.34,8.086-6.186,11.716-8.948,11.716-8.948,6.794-12.659,6.207-17.137,2.655-12.372,2.655-12.372l3,13.381,2.217,7.65c4.948,6.844,15.224,20.72,17.588,21.325a17.835,17.835,0,0,1,4.991,3.059l7.382-2.512c5.489-1.7,21.631-15.4,21.631-15.4a10.274,10.274,0,0,0,.635-2.76l-8.109,1.068-2.58-7.042a57.242,57.242,0,0,0-4.345,7.378c-1.28,2.93-4.975,3.111-4.975,3.111l2.439-8.724s-1.789,1.527-4.916,4.549-5.9,3.147-5.9,3.147l4.839-6.678a53.326,53.326,0,0,1-7.338,1.794c-2.624.5-3.3-.262-3.009-1.019a2.175,2.175,0,0,1,2.475-1.111c2.335.6,6.348-3.185,6.348-3.185s4.414-5.944,9-6.887,13.045-9.961,13.045-9.961,7.563-14.092,6.909-19.077,2.956-13.774,2.956-13.774l3.335,14.9,2.467,8.516c5.51,7.618,16.949,23.066,19.58,23.74,3.508.908,12.146,9.079,12.146,9.079a12.111,12.111,0,0,1-4.891-.829c-2.121-.973-7.743-2.848-7.743-2.848l4.441,7.315s-10.849,3.525-10.917-1.374c-.044-3.265-4.277-5.882-7.105-7.283a30.033,30.033,0,0,1,1.159,8.83c6.432,7.661,17.421,20.187,21.623,21.466,6.078,1.841,15.1,7.856,15.1,7.856l3.077,7.733s-2.7,2.283-7.037-2.511l-3.395-4.14,4.995,9.789s-3.723-.527-5.224-3.33a12.7,12.7,0,0,0-3.39-4.139l.212,5.731-3.8-2.674-2.528-5.614-2.685,2.275-6.11-5.408a1.067,1.067,0,0,1-.634.477l2.419,6.45c2.721.709,5.268,1.755,6.816,3.293,4.816,4.785,11.68,15.2,11.68,15.2s12.48,11.571,16.247,13.536c1.46.761,1.549,1.8.856,2.475l1.75-.6c5.708-1.764,22.493-16.016,22.493-16.016a10.7,10.7,0,0,0,.659-2.871l-8.432,1.112-2.683-7.323a59.662,59.662,0,0,0-4.519,7.673c-1.33,3.047-5.172,3.236-5.172,3.236l2.536-9.072s-1.86,1.589-5.111,4.73-6.134,3.272-6.134,3.272l5.032-6.943a55.6,55.6,0,0,1-7.631,1.865c-2.729.516-3.427-.272-3.128-1.059a2.262,2.262,0,0,1,2.574-1.155c2.428.624,6.6-3.312,6.6-3.312s4.59-6.181,9.36-7.161,13.563-10.358,13.563-10.358,7.864-14.653,7.185-19.837,3.074-14.324,3.074-14.324l3.468,15.491,2.566,8.855c5.729,7.923,17.625,23.986,20.361,24.686,3.647.945,12.63,9.441,12.63,9.441a12.608,12.608,0,0,1-5.087-.861c-2.206-1.012-8.051-2.962-8.051-2.962l4.618,7.607s-11.281,3.666-11.353-1.429c-.046-3.395-4.447-6.115-7.388-7.573a31.243,31.243,0,0,1,1.205,9.182c6.689,7.965,18.115,20.991,22.485,22.32a46.2,46.2,0,0,1,7.86,3.488l.024-.009a13.166,13.166,0,0,1,9.155.287c2.769-3.111,19.417-8.41,19.417-8.41,3.268-.16,3.41-3.557,5.421-2.971-.159-4.143,2.962-6.655,4.652-9.2-3.5,0-6.531.275-7.365,1.127-2.311,2.36-5.111,4.721-5.111,4.721l3.1-6.859-1.5-1.419s-1.894.842-4.147,4.683a11.081,11.081,0,0,1-6.559,4.792l3.985-9.142-4.752,1.731s-3.192,4.625-6.526,5.534,3.079-7.607,3.079-7.607l-4.172,3.936c-3.759,2.422-3.421-1.324-3.421-1.324l8.307-9.351,12.829-4.366c5.708-1.764,22.493-16.016,22.493-16.016a10.7,10.7,0,0,0,.659-2.871l-8.432,1.112-2.683-7.323A59.689,59.689,0,0,0-1395,154.3c-1.33,3.046-5.173,3.236-5.173,3.236l2.536-9.072s-1.86,1.589-5.111,4.73-6.134,3.272-6.134,3.272l5.032-6.944a55.594,55.594,0,0,1-7.631,1.865c-2.729.516-3.427-.272-3.128-1.059a2.262,2.262,0,0,1,2.574-1.155c2.428.624,6.6-3.312,6.6-3.312s4.589-6.181,9.359-7.161,13.563-10.358,13.563-10.358,7.864-14.653,7.185-19.837,3.074-14.324,3.074-14.324l3.469,15.491,2.565,8.855c5.729,7.923,17.625,23.986,20.361,24.686,3.647.945,12.63,9.441,12.63,9.441a12.609,12.609,0,0,1-5.087-.861c-2.206-1.012-8.051-2.962-8.051-2.962l4.618,7.607s-11.281,3.666-11.352-1.429c-.047-3.395-4.448-6.115-7.389-7.573a31.271,31.271,0,0,1,1.206,9.182c6.688,7.965,18.114,20.991,22.484,22.32,6.321,1.915,15.7,8.169,15.7,8.169l1.98,4.976a67.064,67.064,0,0,0,6.713-7.462s6.353-14.531,5.8-19.672,2.484-14.2,2.484-14.2l2.8,15.362,2.073,8.781c.286.485.59,1,.911,1.54.865-1.09,4.314-5.187,7.879-5.92,4.126-.85,11.716-8.947,11.716-8.947s6.794-12.659,6.207-17.137,2.655-12.372,2.655-12.372l3,13.381,2.217,7.649c2.388,3.3,6.016,8.242,9.4,12.538a2.2,2.2,0,0,1,1.412-.116c2.335.6,6.348-3.185,6.348-3.185s4.414-5.945,9-6.887,13.045-9.961,13.045-9.961,7.563-14.092,6.909-19.077,2.957-13.774,2.957-13.774l3.335,14.9,2.467,8.516c5.51,7.618,16.949,23.066,19.58,23.74a14.065,14.065,0,0,1,3.885,2.157c2.064-2.121,5.151-4.738,8.306-5.386,5.522-1.138,15.682-11.975,15.682-11.975s9.092-16.942,8.307-22.936,3.554-16.56,3.554-16.56l4.009,17.91,2.966,10.238c5.785,8,17.008,23.178,21.865,27.434l5.593-6.3,16.3-5.548c7.253-2.243,28.582-20.354,28.582-20.354a13.593,13.593,0,0,0,.838-3.649l-10.715,1.413-3.409-9.306a75.887,75.887,0,0,0-5.742,9.75c-1.69,3.873-6.574,4.111-6.574,4.111l3.223-11.527s-2.364,2.019-6.5,6.01-7.794,4.16-7.794,4.16l6.394-8.824a70.441,70.441,0,0,1-9.7,2.37c-3.468.655-4.356-.346-3.976-1.346a2.876,2.876,0,0,1,3.271-1.467c3.086.793,8.388-4.208,8.388-4.208s5.832-7.855,11.894-9.1,17.236-13.163,17.236-13.163,9.994-18.621,9.13-25.209,3.906-18.2,3.906-18.2l4.407,19.686,3.261,11.253c4.9,6.78,13.361,18.254,19.424,25.295l2.145-2.414,16.3-5.549c7.253-2.242,28.583-20.353,28.583-20.353a13.624,13.624,0,0,0,.837-3.649l-10.714,1.413-3.41-9.306a75.874,75.874,0,0,0-5.742,9.75c-1.69,3.872-6.573,4.111-6.573,4.111l3.222-11.527s-2.363,2.019-6.5,6.01-7.793,4.159-7.793,4.159l6.394-8.824a70.444,70.444,0,0,1-9.7,2.37c-3.468.655-4.356-.346-3.975-1.346a2.875,2.875,0,0,1,3.271-1.467c3.085.792,8.387-4.208,8.387-4.208s5.832-7.856,11.893-9.1,17.236-13.162,17.236-13.162,9.994-18.621,9.13-25.209S-977.279,0-977.279,0l4.406,19.685,3.261,11.253c7.28,10.067,22.4,30.48,25.873,31.37,4.635,1.2,16.049,12,16.049,12a16,16,0,0,1-6.463-1.094c-2.8-1.286-10.232-3.763-10.232-3.763l5.869,9.665s-14.336,4.658-14.426-1.815c-.059-4.315-5.652-7.771-9.39-9.623,1.462,4.142,1.537,9.967,1.532,11.668,8.5,10.121,23.02,26.674,28.572,28.364,8.032,2.435,19.951,10.382,19.951,10.382l4.011,10.079c2.452-4.8,8.911-18.09,8.21-23.44-.854-6.588,3.907-18.2,3.907-18.2l4.406,19.686,3.261,11.253c4.155,5.746,10.863,14.862,16.5,21.8l10-3.4c7.253-2.243,28.582-20.353,28.582-20.353a13.588,13.588,0,0,0,.838-3.648l-10.715,1.412-3.409-9.305a75.838,75.838,0,0,0-5.742,9.749c-1.69,3.873-6.574,4.112-6.574,4.112l3.223-11.528s-2.363,2.019-6.5,6.011-7.794,4.159-7.794,4.159l6.395-8.824a70.559,70.559,0,0,1-9.7,2.369c-3.468.655-4.356-.346-3.975-1.346a2.874,2.874,0,0,1,3.27-1.467c3.086.793,8.388-4.208,8.388-4.208s5.832-7.855,11.893-9.1,17.236-13.162,17.236-13.162,9.994-18.621,9.13-25.209,3.907-18.2,3.907-18.2L-819.109,57l3.261,11.253c7.28,10.067,22.4,30.48,25.873,31.369,4.635,1.2,16.049,12,16.049,12a16.018,16.018,0,0,1-6.464-1.1c-2.8-1.286-10.231-3.763-10.231-3.763l5.868,9.666s-14.335,4.658-14.426-1.815c-.058-4.315-5.651-7.772-9.389-9.624,1.463,4.142,1.536,9.967,1.532,11.668,8.5,10.122,23.02,26.675,28.572,28.364a51.073,51.073,0,0,1,7.83,3.3c4.214-1.375,11.175-8.8,11.175-8.8s6.793-12.658,6.206-17.136,2.656-12.373,2.656-12.373l3,13.382,2.216,7.649c4.949,6.844,15.225,20.72,17.589,21.325,3.15.816,10.91,8.156,10.91,8.156a10.891,10.891,0,0,1-4.394-.744c-1.906-.875-6.955-2.558-6.955-2.558l3.989,6.571s-9.745,3.166-9.806-1.235c-.04-2.933-3.842-5.283-6.383-6.541a26.956,26.956,0,0,1,1.041,7.931c5.778,6.881,15.649,18.133,19.423,19.282l.085.026,6.585-7.412,14.833-5.047c6.6-2.04,26.005-18.518,26.005-18.518a12.386,12.386,0,0,0,.762-3.319l-9.749,1.285-3.1-8.466a68.957,68.957,0,0,0-5.224,8.87c-1.538,3.523-5.981,3.74-5.981,3.74l2.932-10.489s-2.151,1.837-5.909,5.469-7.091,3.784-7.091,3.784l5.818-8.028a64.137,64.137,0,0,1-8.823,2.156c-3.155.6-3.963-.314-3.617-1.225a2.618,2.618,0,0,1,2.976-1.335c2.807.721,7.631-3.829,7.631-3.829s5.305-7.147,10.821-8.279,15.682-11.975,15.682-11.975,9.093-16.942,8.307-22.936,3.554-16.56,3.554-16.56l4.009,17.91,2.966,10.238c6.624,9.159,20.377,27.731,23.54,28.541,3.611.936,11.748,8.276,14.009,10.363a13.743,13.743,0,0,1,2.129.7c3.52-3.954,24.674-10.687,24.674-10.687,4.153-.2,4.333-4.52,6.889-3.775-.2-5.265,3.763-8.457,5.912-11.686-4.454,0-8.3.349-9.36,1.432-2.936,3-6.494,6-6.494,6l3.946-8.716-1.9-1.8s-2.407,1.071-5.27,5.951a14.08,14.08,0,0,1-8.335,6.089l5.064-11.618-6.039,2.2s-4.055,5.878-8.293,7.033,3.913-9.666,3.913-9.666l-5.3,5c-4.778,3.078-4.349-1.683-4.349-1.683l10.557-11.883,16.3-5.548c7.253-2.243,28.583-20.353,28.583-20.353a13.593,13.593,0,0,0,.838-3.649l-10.715,1.412-3.41-9.305a75.728,75.728,0,0,0-5.741,9.75c-1.691,3.872-6.574,4.111-6.574,4.111l3.222-11.527S-591.071,78-595.2,81.99-603,86.149-603,86.149l6.394-8.824a70.556,70.556,0,0,1-9.7,2.369c-3.468.656-4.356-.345-3.975-1.345A2.876,2.876,0,0,1-607,76.882c3.085.792,8.387-4.209,8.387-4.209s5.833-7.855,11.893-9.1,17.236-13.163,17.236-13.163,9.994-18.621,9.13-25.209S-556.45,7-556.45,7l4.406,19.685,3.261,11.253c7.28,10.067,22.4,30.48,25.874,31.37,4.634,1.2,16.049,12,16.049,12a16.016,16.016,0,0,1-6.464-1.1c-2.8-1.286-10.232-3.763-10.232-3.763l5.869,9.666s-14.336,4.658-14.426-1.815c-.059-4.315-5.652-7.771-9.39-9.623,1.463,4.142,1.537,9.966,1.533,11.668,8.5,10.121,23.019,26.674,28.571,28.364,8.033,2.434,19.951,10.382,19.951,10.382l.813,2.042c1.874-2.225,6.359-7.011,10.977-7.96,6.07-1.25,17.236-13.163,17.236-13.163s9.994-18.621,9.13-25.209,3.906-18.2,3.906-18.2l4.407,19.686,3.261,11.253c7.28,10.066,22.4,30.479,25.873,31.369,4.634,1.2,16.049,12,16.049,12a16.009,16.009,0,0,1-6.464-1.094c-2.8-1.286-10.231-3.763-10.231-3.763l5.868,9.666s-14.335,4.658-14.426-1.816c-.059-4.315-5.651-7.772-9.389-9.623,1.463,4.142,1.536,9.967,1.532,11.668,8.5,10.122,23.02,26.674,28.572,28.363,8.032,2.434,19.951,10.382,19.951,10.382l4.066,10.218s-3.562,3.019-9.3-3.316l-4.486-5.471,6.6,12.935s-4.92-.7-6.9-4.4a16.775,16.775,0,0,0-4.479-5.469l.28,7.574-5.02-3.533-3.342-7.418-3.547,3.006-8.074-7.147a1.41,1.41,0,0,1-.838.63l3.2,8.524c3.595.938,6.961,2.319,9.006,4.352,6.363,6.323,15.434,20.089,15.434,20.089s16.49,15.29,21.469,17.887c4.994,2.6-2.154,7.682-7.937.4l-7.613-7.214s5.853,9.2,3.414,9.311c-2.423.114-7.714-10.032-7.714-10.032l-8.8-6.2s4.172,13.05,1.654,11.283-6.565-12.009-6.565-12.009l-3.78-2.345c1.7,5.9,2.848,10.952,1.978,11.565-1,.709-2.365-2.283-3.548-5.759.09,4.905-.106,10.074-1.543,7.249a1.351,1.351,0,0,1-.121.289c-1.993,3.318-6.924-16.085-6.924-16.085l-1.887-5.133-1.741-1.227v.38c.844,4.621,1.391,9.274.154,9.191a1.346,1.346,0,0,1-.461-.175c-.2,2.435-.525,3.911-1.093,2.037a20.131,20.131,0,0,0-3.944-7.381l.879-5.061a.6.6,0,0,1-.057-.12l-3.665,11.012a14.635,14.635,0,0,1-2.047-8.464c-.221-.782-.461-1.6-.689-2.428a25.47,25.47,0,0,0,.949,12.045l8.076,8.933,16.032,9.9,12.523,7.91s-9.649-3-18.991-6.564a53.607,53.607,0,0,1,4.156,6.215c2.959,5.543,22.342,8.848,22.342,8.848s12.222,7.934,19.766,13.247c7.529,5.314,9.527,9.48,9.527,9.48l-12.115-5.091-11.362-9.39.207,5.682-11.21-7.267L-393.1,256c5.294,6.649,3.709,13.332-1.988,5.276a9.459,9.459,0,0,0-5.636-3.376,23.123,23.123,0,0,1,.742,8.816l4.253,1.7s1.966,3.691,2.092,6.529c.1,2.837,4.624,1.31,4.624,1.31s7.682.938,9.574,2.73c-3.271-3.1,6,3.487,11.454,7.032,2.083,1.358.762,1.852,7.013,5.338,0,0,15.286,11.372,6.236,10.64l1.978,3.149s14.759,18.223,9.872,18.464-8.907-9.027-8.907-9.027,2.725,7.44-2.116,8.631-10.159-9.924-10.159-9.924l-7.682-9.094s6.14,16.745,1.214,16.037c-4.156-.591-3.424-10.208-6.458-14.15-.526,1.695-2.083,2.849-4.836,2.633l7.042,8.175s14.75,18.242,9.878,18.465c-4.883.239-8.913-9.029-8.913-9.029s2.741,7.442-2.12,8.631c-4.84,1.178-10.153-9.929-10.153-9.929l-7.684-9.1s6.135,16.758,1.22,16.061-2.98-14.072-8.537-15.689c-5.577-1.623-11.86-6.046-11.86-6.046s.261.775.6,1.9a3.067,3.067,0,0,1,2.316,1.382c4.157,5.482,5.277,19.293.494,18.11l4.819,12.544s10.148,27.914,6.989,28.089c-3.149.138-6.055-13.927-6.055-13.927s2.014,11.276-1.093,12.851-6.9-15.29-6.9-15.29l-5.27-13.959s4.518,25.367,1.3,24.092c-3.208-1.25-2.387-21.193-6.035-23.863-3.668-2.656-7.868-9.557-7.868-9.557s3.621,22.564,1.432,16.975-7.333-26.628-9.3-26.545c-1.7.094,2.157,23.088-2.373,14.272l.289,7.632s4.466,45.259,3.712,49.552,6.124,73.042,6.124,73.042-2.974,8.981-23.8,5.614c0,0,4.856-78.013,3.442-90.75-1.39-12.718-1.39-36.87-1.39-36.87l-2.017-21.42-1.525.514s-.786,3.584-3.559,15.094c-3.493,14.479-4.6,12.231-5.1,6.846l-1.059.451-2.1-6.774c-.937,4.593-1.94,10.688-2.953,14.173-1.829,6.2-1.425-9.1-1.425-9.1s.98-1.935-1.83.084-3.011,13.345-5.441,13.766c-2.412.42.721-18.478.721-18.478l-4.427,15.617s-3.441,19.848-5.668,16.722-.338-16.553-.338-16.553-2.673,16.624-4.995,15.29c-1.659-.961,2.191-17.166,4.549-26.4-1.558-2.391-2.613-6.949-3.286-11.325-.107.061-.223.169-.339.229-3.818,1.666-5.408,18.141-8.68,18.537-1.74.217-2.106-4.064-2.09-8.127a25.75,25.75,0,0,1-3.005-3.942l-1.522,1.394s-1.574,15.261-4.523,12.875-.107-12.949-.095-12.995c-.016.053-3.961,13.15-7.068,12.141-1.967-.626,2.174-10.807,5.493-18.2l-6.061,3.307s-4,7.032-8.865,11.408c-16.011,14.367-5.148-1.634-5.148-1.634l8.563-10.663-5.451-.878-7.009,10.651a31.818,31.818,0,0,1-4.587,3.678c1.6,21.079,5.512,60.123,5.512,60.123s-2.974,8.98-23.794,5.614c0,0,4.855-78.013,3.441-90.751-1.389-12.718-1.389-36.869-1.389-36.869l-2.018-21.421-1.525.515s-.785,3.583-3.559,15.094c-3.492,14.479-4.6,12.231-5.1,6.845l-1.059.451-2.1-6.773c-.683,3.347-1.4,7.491-2.132,10.842,1.638,1.954,2.146,3.584-.864,3.475q-.073.239-.141.432l1.513,2.408s13.428,16.58,8.981,16.8-8.1-8.212-8.1-8.212,2.479,6.769-1.925,7.853-9.243-9.029-9.243-9.029l-4.125-4.883c-.216,1.076-.474,2.31-.762,3.584.932,3.914,1.355,7.954-1,7.616a2.332,2.332,0,0,1-1-.386q-.136.368-.272.695c3.657,4.86,9.542,13.305,6.388,13.451-4.443.217-8.11-8.215-8.11-8.215s2.495,6.772-1.929,7.852c-4.4,1.073-9.238-9.033-9.238-9.033l-6.991-8.28s5.582,15.247,1.111,14.612-2.712-12.8-7.767-14.273c-5.074-1.477-10.791-5.5-10.791-5.5s.238.706.546,1.728a2.8,2.8,0,0,1,2.107,1.257c3.782,4.989,4.8,17.555.449,16.477l4.384,11.413s9.233,25.4,6.359,25.555c-2.866.126-5.51-12.671-5.51-12.671s1.833,10.26-.994,11.692S-629.271,348-629.271,348l-4.794-12.7s4.11,23.079,1.187,21.919c-2.919-1.138-2.172-19.283-5.49-21.712-3.338-2.417-7.159-8.695-7.159-8.695s3.294,20.529,1.3,15.444-6.672-24.227-8.462-24.151c-1.543.085,1.963,21.005-2.159,12.985l.264,6.943s4.063,41.178,3.377,45.084,5.571,66.455,5.571,66.455-2.705,8.171-21.649,5.108c0,0,4.418-70.979,3.131-82.566-1.264-11.571-1.264-33.546-1.264-33.546l-1.836-19.489-1.387.468s-.715,3.26-3.238,13.732c-3.177,13.174-4.186,11.129-4.64,6.229l-.964.41-1.907-6.163c-.852,4.179-1.765,9.724-2.687,12.9-1.664,5.644-1.3-8.28-1.3-8.28s.893-1.76-1.664.077-2.74,12.141-4.95,12.523c-2.194.383.655-16.811.655-16.811l-4.027,14.208s-3.131,18.058-5.157,15.214-.309-15.06-.309-15.06-2.432,15.125-4.544,13.911c-1.509-.875,1.993-15.618,4.138-24.019-1.417-2.175-2.377-6.322-2.99-10.3-.1.056-.2.153-.308.208-3.474,1.515-4.921,16.505-7.9,16.866-1.583.2-1.916-3.7-1.9-7.394a23.413,23.413,0,0,1-2.735-3.587l-1.384,1.268s-1.433,13.885-4.116,11.714-.086-11.823-.086-11.823-3.6,11.966-6.43,11.046c-1.79-.569,1.977-9.833,5-16.559l-5.514,3.009a48.987,48.987,0,0,1-8.066,10.379,61.262,61.262,0,0,1-5.116,4.227c1.194,14.734,3.507,37.823,3.507,37.823s-2.021,6.1-16.175,3.816c0,0,3.3-53.032,2.339-61.69-.538-4.923-.769-12.365-.869-17.861a8.069,8.069,0,0,1-2.961-2.014c-1.223,1.744-2.786,3.236-4.584,3.325-1.669.082-1.01-2.372.467-5.472-.743,1.252-1.09-.169-1.291-2.338l-.721.306-1.424-4.6c-.637,3.122-1.319,7.265-2.008,9.635-.673,2.283-.9.28-.969-2.037a1.376,1.376,0,0,1-1.228.343,2.689,2.689,0,0,1-1.607-.868c-.641,2.6-1.086,5.613-2.107,5.79-1.21.211-.368-6.731.157-10.383q-.067-.269-.131-.543l-2.546,8.981s-2.339,13.492-3.853,11.367-.234-11.224-.23-11.253a62.252,62.252,0,0,1-2.015,8.685l.163.424s10.148,27.914,6.989,28.089c-3.149.139-6.055-13.927-6.055-13.927s2.014,11.276-1.093,12.851-6.9-15.29-6.9-15.29l-5.27-13.958s4.518,25.366,1.305,24.092c-3.208-1.251-2.387-21.194-6.035-23.863-3.668-2.656-7.868-9.556-7.868-9.556s1.2,7.5,1.8,12.782c3.116,2.994,5.425,6.2.486,5.8l1.978,3.149s14.759,18.223,9.871,18.464-8.907-9.027-8.907-9.027,2.725,7.44-2.115,8.631-10.159-9.924-10.159-9.924l-1.418-1.678c1.22,13.494,2.676,31.093,2.22,33.691-.763,4.3,6.124,73.042,6.124,73.042s-2.974,8.981-23.8,5.615c0,0,4.487-72.083,3.579-88.983-4.406-.887-8.738-9.947-8.738-9.947l-7.683-9.1s6.134,16.758,1.22,16.061-2.981-14.072-8.537-15.689a42.236,42.236,0,0,1-9.411-4.458c-.066.318-.135.644-.206.977a4.236,4.236,0,0,1,.672.716c4.156,5.483,5.276,19.293.494,18.11l4.818,12.544s10.149,27.914,6.989,28.089c-3.149.138-6.055-13.928-6.055-13.928s2.014,11.276-1.092,12.851-6.9-15.29-6.9-15.29l-5.27-13.958s4.519,25.366,1.3,24.091c-3.208-1.25-2.387-21.193-6.035-23.863-3.668-2.656-7.867-9.556-7.867-9.556s3.62,22.563,1.431,16.974-7.333-26.628-9.3-26.545c-1.695.094,2.157,23.088-2.373,14.272l.29,7.632s4.466,45.259,3.712,49.552,6.123,73.042,6.123,73.042-2.111,6.369-15.21,6.369A53.951,53.951,0,0,1-900.331,497.094Zm-375.393-126.6s3.112,10.506,4.341,16.971c.549-10.723,1.079-22.729,1.168-30.593-.67-3.258-1.061-7.379-3.2-8.143-3.546-1.266-7.54-4.719-7.54-4.719s.166.606.382,1.482a1.917,1.917,0,0,1,1.471,1.078c2.643,4.279,3.355,15.057.315,14.134Zm-84.29,8.657a29.976,29.976,0,0,1,2.187-4.866l5.445-8.321-3.466-.686-4.456,8.312-.178.2C-1360.333,375.527-1360.176,377.325-1360.014,379.148Zm-1.62-23.779a102.743,102.743,0,0,0,.569,11.316l4.392-4.835,7.1-11.022a17.388,17.388,0,0,1,9.255-4.428,13.787,13.787,0,0,1,1.449-2.956,20.981,20.981,0,0,1,2.091-4.578,26.9,26.9,0,0,1,3.741-2.062c-1.864-2.757-3.337-9.891-3.337-9.891s1.585,8.874-.859,10.113c-1.326.669-2.811-2.924-3.892-6.354a29.278,29.278,0,0,1-1.386,2.81c-1.4,2.322-.4-3.932.171-7.14-.133-.529-.228-.932-.28-1.155-.533.52-1.38,1.314-2.385,2.149.262,3.4.175,6.01-.781,5.631-.731-.285-1.2-1.8-1.557-3.867a16.339,16.339,0,0,1-1.879,1.1c-3.448,1.679-1.578,11.91-4.659,12.839s0-12.571,0-12.571l-4.425,7.664s-1.587,5.057-3.695,7.378A76.981,76.981,0,0,1-1361.634,355.37Zm399.934,7.112c.385-.886.77-1.755,1.144-2.588l-1.31.715Q-961.784,361.54-961.7,362.481Zm418.739-23.569a36.535,36.535,0,0,0,.086,5.177c.6-1.308,1.077-2.234,1.077-2.234l9.745-8.74,11.172-14.124a25.781,25.781,0,0,1,7.356-3.961c-2.682-2.969-5.328-14.718-5.328-14.718L-521.5,293.3a5.569,5.569,0,0,0-1.254,1.784c1,7.2,1.876,16.133-.063,15.364-.988-.385-1.593-2.542-2.065-5.421-.486,2.04-1.239,3.612-2.774,3.989-4.851,1.178,0-16.109,0-16.109l-6.961,9.822s-4.46,11.577-9.374,10.885a4.3,4.3,0,0,1-.456-.09C-543.462,325.062-542.595,336.826-542.961,338.912Zm-198.16,4.048c.45-.714.78-1.2.78-1.2l7.791-9.7-4.959-.8-3.946,6C-741.416,338.565-741.3,340.543-741.121,342.96Zm-222.67-11.048a65.688,65.688,0,0,0,.286,8.406,33.868,33.868,0,0,1,10.418-3.072,16.565,16.565,0,0,1,2.28-3.786,24.981,24.981,0,0,1,3.287-5.867,46.468,46.468,0,0,1,6.088-2.718c-.786-9.611,7.714-11.335,5.5-7.759a23.751,23.751,0,0,1,4.7-4.9,4.718,4.718,0,0,0,3.992-3.606c-1.488-1.968-2.8-6.246-3.607-9.328l-.334.507c.285,3.4.27,7.866-1.6,8.814-.9.454-1.854-.633-2.759-2.408l-.142.2c-7.415,10.675-7.667,5.865-7.68,1.056a30.891,30.891,0,0,0-.143-3.968.665.665,0,0,1-.145-.04,2.248,2.248,0,0,1-1.04-1.3c-3.151,1-9.035,14.734-11.85,18.542-2.279,3.088-.509-5.652.368-9.592a5.547,5.547,0,0,1-1.187-.53,53,53,0,0,1-7.2,4.734C-963.927,323.475-963.519,330.362-963.791,331.912Zm138.378,4.418c-.039-1.444-.071-2.85-.1-4.192a5.626,5.626,0,0,1-3.08.5Zm-257.767-.568c.006-1.576.037-2.76.037-2.76s.98-1.935-1.83.084a2.283,2.283,0,0,0-.294.254ZM-1208.2,326.3s.327,3.316.761,7.981a33.774,33.774,0,0,1,5.154-1.1,15.023,15.023,0,0,1,2.074-3.445c.084-.264.187-.536.3-.81-1.016-2.951-2.591-8.755-4.018-13.212a25.232,25.232,0,0,1-1.5,2.406c-1.751,2.373-.875-2.932-.079-6.8-.442-1.008-.826-1.61-1.118-1.6-1.283.071,1.633,17.473-1.8,10.8Zm91.409,5.818a2.638,2.638,0,0,1,1.819.913q0-.335,0-.669c-.295-.3-.593-.636-.892-1-.917-.582-1.472-.973-1.472-.973S-1117.094,331.1-1116.786,332.121Zm-215.282-.594c1.121-2.282,2.921-2.686,2.892-1.612a32.879,32.879,0,0,1,1.873-3.143l3.753-4.674c.384-1.323,1.077-1.726,1.484-1.848l.584-.727-3.705-.6-4.765,7.241a23.219,23.219,0,0,1-2.938,2.387C-1332.591,329.577-1332.312,330.581-1332.068,331.527Zm85.478-1c.186-.436.394-.891.62-1.36q.161-.65.316-1.268l-2.245-5.946s.77,4.323,1.265,8.53Zm505.027-.681,2.872-2.576,9.982-12.62c-1.106-3.857-1.112-13.1-3.129-14.577l-.007-.005c-.437,2.615-1.061,4.834-2.848,5.273a1.275,1.275,0,0,1-1.044-.13c-.013.651-.149.742-.477-.095-.627-1.6-1.613-5.077-2.644-8.555l-2.168,3.059s-.267.694-.74,1.715c2.892,4.39,5.06,8.631,2.727,8.738a6.05,6.05,0,0,1-4.337-2.091C-742.8,314.146-741.942,323.676-741.563,329.843Zm-622.993-13.468s.53,5.369,1.143,12.135l1.608-2.73c-4.628,1.013,1.085-5.986,1.085-5.986,1.982-1.669,3.192-1.565,3.926-1.46a1.724,1.724,0,0,0,.613.032c-.611-1.869-1.373-4.5-2.173-7.21-.18.239-.286.373-.286.373l.187-.708c-.551-1.867-1.117-3.76-1.663-5.464-.285.964-1.159,3.4-2.856,4.092-.018,2.47-.39,3.689-1.813.92Zm-41.365,12.048c.741-3.595,1.715-7.622,2.523-10.819a30.26,30.26,0,0,1-1.711-3.008l-3-3.551c-.374.948-.724,2.034-1.062,3.153.681,3.14.862,6.135-1.028,5.862a2.012,2.012,0,0,1-.719-.245c-.087.232-.175.454-.264.664A64.487,64.487,0,0,1-1405.921,328.423Zm156.688-.118a17.035,17.035,0,0,0-1.386-5.629c-.341,1.027-.664,2.136-.982,3.222A8.691,8.691,0,0,0-1249.233,328.305ZM-1722.774,306.9s4.834,13.3,6.383,20.623c.371-7.706,1.05-22.358,1.532-35.974-1.015-3.817-1.5-8.887-4.639-9.8-5.03-1.463-10.7-5.453-10.7-5.453s.236.7.541,1.713a2.769,2.769,0,0,1,2.089,1.246c3.749,4.945,4.758,17.4.446,16.332Zm523.568,20.6a28.476,28.476,0,0,1,1.991-3.1q.832-.452,1.695-.863a36.076,36.076,0,0,1-5.143-6.569S-1199.613,323.517-1199.206,327.5Zm-134.906-2.927c-.015-.457-.019-.939-.02-1.421,0-2.113.039-4.226-.655-4.182a1.607,1.607,0,0,0-.953.692C-1335.253,321.086-1334.682,322.788-1334.112,324.572Zm-93.158-4.117c.142-.529.318-1.106.522-1.72l-1.742-2.064S-1427.882,318.335-1427.27,320.455Zm-11.757-.416c.182-.279.3-.447.3-.447l2.629-3.274a32.5,32.5,0,0,1-3.057-1.435l-1.086,1.651A18.081,18.081,0,0,1-1439.027,320.039Zm631.294-4.757s1.522,1.133,3.322,2.66c-.9-3.007-1.9-6.5-2.89-9.727-5.84,4.633-2.034-1.476-.975-3.1-.357-1.1-.706-2.128-1.04-3.047l-1.359,2.065c-.453.418-.869.785-1.25,1.107a55.4,55.4,0,0,1,.11,7.452A31.837,31.837,0,0,0-807.733,315.282Zm-581.74,2.306c.008-.564.018-.92.018-.92s.611-1.205-.811-.353C-1389.989,316.746-1389.722,317.172-1389.473,317.588Zm324.584-.066-.539-5.723-1.525.514s-.173.79-.644,2.818C-1066.748,315.833-1065.784,316.667-1064.888,317.522Zm-330.26-.873q.021-.157.043-.311c-.127-.254-.221-.454-.278-.579l-.007.026C-1395.334,315.962-1395.241,316.266-1395.148,316.649Zm-19.35-.326v-.155a20.307,20.307,0,0,1-2.365-3.1l-.247.226Zm59.085-.515a12.166,12.166,0,0,1,2.5-3.9,41.489,41.489,0,0,1-3.088-4.116q-.221.345-.441.674C-1356.161,310.312-1355.724,313.263-1355.413,315.807Zm575.17-.511c.669-3.909,1.981-9.319,2.935-13.053-1.058-1.625-1.776-4.723-2.234-7.7-.072.041-.151.115-.23.156a3.06,3.06,0,0,0-1.257,1.443c1.071,5.471.448,10.982-2.647,10.216Zm-544.868-.566,1.576-1.993-.59-.186A18.986,18.986,0,0,1-1325.111,314.731Zm814.282-.528c1.134-.3,2.221-.522,3.227-.691a62.905,62.905,0,0,1-3.256-10.76S-509.433,310.732-510.829,314.2Zm-216.13-.9a22.936,22.936,0,0,1,2.543-1.417c-.387-1.432-.623-2.479-.623-2.479l-3.583-9.488A122.369,122.369,0,0,1-726.959,313.3Zm-716.5-.72.182-.163c-.2-.133-.3-.208-.3-.208S-1443.536,312.343-1443.46,312.578ZM-596.037,312c-.046-1.712.028-3.569.145-5.266-.093-.352-.191-.7-.3-1.035-.313,1.532-.693,3.244-1.114,4.834Zm-961.522-31.366s1.948,19.748,2.637,30.676a100.41,100.41,0,0,1,6.241-10.529l5.028-6.953c-5.729,1.022,1.343-6.036,1.343-6.036q.3-.205.58-.376c-.476-3.966-1.023-7.917-2.342-8.883a11.12,11.12,0,0,1-1.271-1.1,3.667,3.667,0,0,1-.726.108c-1.192.059-1.268-.78-.871-1.887a44.22,44.22,0,0,1-3.087-4.354s2.74,17.075,1.083,12.846-5.549-20.152-7.038-20.089c-1.175.065,1.174,14.681-1.062,11.995a2.805,2.805,0,0,1-.692-.11ZM-1183.11,311c.431-.369.714-.589.714-.589a4.345,4.345,0,0,0,3.776-4.069,6.888,6.888,0,0,1,.3-1.4,2.781,2.781,0,0,0-.728-.331,27.77,27.77,0,0,1-5.41-2.375q-.376.551-.786,1.147A18.632,18.632,0,0,1-1183.11,311Zm678.226-.308c.259-.384.54-.772.84-1.16a25.005,25.005,0,0,1,3.288-5.867,46.458,46.458,0,0,1,6.087-2.718c-.785-9.611,7.714-11.336,5.5-7.759a23.732,23.732,0,0,1,4.7-4.9,4.776,4.776,0,0,0,4.151-4.472c.482-4.171,3.208-4.075,3.208-4.075l1.824-1.187c-3.267-2.461-5.6-7.827-5.6-7.827s2.742,7.442-2.12,8.631a4.115,4.115,0,0,1-3.234-.778c-.782,1.151-1.67,2.443-2.676,3.89-7.416,10.675-7.667,5.865-7.681,1.055-.007-2.708.06-5.416-1.031-5.359-2.885.148-8.528,13.019-11.6,17.8C-507.7,300.561-505.86,306.387-504.883,310.69Zm-767.823-.657.033.016-.015-.164Q-1272.7,309.96-1272.706,310.033Zm552.467-8.6s1.42,3.906,2.771,8.185c.775-.155,1.511-.274,2.188-.365a15.079,15.079,0,0,1,2.074-3.446,22.757,22.757,0,0,1,2.991-5.338A42.344,42.344,0,0,1-704.677,298a11.16,11.16,0,0,1,.477-4.516,23.215,23.215,0,0,1-3.372-5.073L-712.137,283q-.122.211-.244.426c.965,2.918,3.078,10.088.414,9.71-1.728-.249-2.212-2.789-2.795-5.34-1.056,1.982-2.049,3.853-2.873,5.2,1.632,2.943,2.333,5.237.62,5.321-2.268.114-4.353-1.829-5.934-3.941ZM-1940.9,309.227c.207-1.434.367-2.4.367-2.4l-.535,1.889Zm104.17-1.071,5.213-6.492-4.916-.792-.828,1.258C-1837.084,304.07-1836.9,306.108-1836.729,308.156Zm1236.912-.543c.177-.959.375-1.963.589-3a5.136,5.136,0,0,1-2.784.447Zm-763.1-8.474c-.514.029-.38,2.733-.225,5.649.587-1.082,1.124-1.916,1.124-1.916s.245-.407.668-1.081c-.625-1.618-1.169-2.651-1.558-2.652Zm604.207,5.565c.2-.393.4-.794.617-1.2l-.116-.182C-758.389,303.884-758.556,304.34-758.709,304.7Zm-227.971-.143.088.11c.356-.4.678-.753.925-1.014-.949-3.26-1.426-7.572-3.219-9.9-.526,1.695-2.083,2.849-4.836,2.633Zm61.112-.212a2.714,2.714,0,0,1,1.7-.679l6.225-4.052c-.446-1.178-.892-2.326-1.3-3.522l-8.669-2.224a10.637,10.637,0,0,1-.521,1.047C-927.108,298.261-926.143,301.657-925.568,304.348Zm-98.682-4.525a3.067,3.067,0,0,1,2.316,1.382,11.835,11.835,0,0,1,.931,1.45c.109-.669.233-1.372.368-2.1-2.468-1.4-4.214-2.629-4.214-2.629S-1024.589,298.7-1024.25,299.823Zm196.9,2.363-.315-3.343-1.525.514s-.127.579-.458,2.016A15.244,15.244,0,0,1-827.349,302.186Zm-153.6-.9a6.773,6.773,0,0,1,1.837-.021c-.044-1.422-.081-2.821-.113-4.174l-4.417-5.229A72.752,72.752,0,0,1-980.95,301.289Zm244.547-2.477c.147-1.086.344-2.194.551-3.23-.5-.712-.9-1.321-1.126-1.676l-.127.18C-736.968,294.956-736.68,296.823-736.4,298.812Zm-75.252-1.041c-.193.011-.314.318-.384.842l.742-.665a.537.537,0,0,0-.346-.177Zm-1026.071-.743.124-.112,2.808-3.55a5.749,5.749,0,0,1-3.484-2.165C-1838.144,292.6-1837.95,294.627-1837.726,297.027Zm1291.053-7.667s.223,2.259.561,5.817l5.99-8.283c-5.643,1.006-1.512-4.156.631-6.529-1.981-6.635-4.019-12.954-5.1-12.909-1.695.094,2.157,23.088-2.373,14.272Zm-1140.643,4.986c.37-.592.65-1,.65-1l5.623-7q-.174-.162-.346-.334l-3.161-.509-4.218,6.41C-1688.232,292.749-1687.737,293.575-1687.317,294.345Zm-6.921-.466c.081-.355.194-.739.326-1.134-.63-1.127-.99-1.955-.99-1.955A13.129,13.129,0,0,1-1694.237,293.88Zm95.358-3.84s.534,1.467,1.258,3.589c.794-4.1,2.01-9.085,2.928-12.678-1.179-1.81-1.977-5.259-2.487-8.57-.081.046-.169.128-.257.173-1.039.453-1.86,2.355-2.6,4.621.091,2.144-.3,3.911-1.3,4.3-.124.411-.248.812-.372,1.2Zm1020.527,3.118c0-1.9.038-3.424.038-3.424s.981-1.935-1.829.084a3.3,3.3,0,0,0-.874,1.038C-580.215,291.509-579.266,292.313-578.353,293.157Zm66.56-4.567s.545,1.5,1.343,3.8c.562-3.31,1.46-7.038,1.46-7.038s-1.245,1.06-3.116,2.418Zm-1321.867,3.341,2.73-3.451c-1.959-6.514-4.7-16.622-5.909-16.571-1.231.068,1.258,15.5-1.158,12.406C-1836.053,287.055-1834.069,290.159-1833.659,291.93Zm-23.762-1.213q-.015-.145-.029-.3l-.148.063Zm1138.328-.151c.5-3.092,1.386-6.754,1.386-6.754s-1.608,1.37-3.872,2.934c.009.058.017.116.026.174C-720.71,288.114-719.862,289.358-719.093,290.567Zm20.08-.561.077-.1c-.19-.381-.294-.618-.294-.618S-699.127,289.57-699.013,290.006Zm-1274.34-8.205c-.637.036-.4,3.661-.213,7.3a19.665,19.665,0,0,1,2.935-1.668c-1.1-3.273-2.081-5.632-2.711-5.633Zm113.885,6.286s.215.266.577.726l-1.041-3.366c-.112.546-.224,1.12-.338,1.709Zm444.228.343a19.929,19.929,0,0,1,2.565-4.548,36.467,36.467,0,0,1,4.79-2.138,10.635,10.635,0,0,1,.086-2.586l-2.055-.863-6.676-5.517a57.738,57.738,0,0,1-3.243,5.674c-1.255,1.7-.949-1.154-.417-4.085l-2.958-1.918c-.766.51-1.6,1.028-2.455,1.5.651,2.5-.4,3.753-2.675,1.281-1.29.624-1.936,2.088-2.346,3.816l.6.239a15.162,15.162,0,0,1,1.647,5.137c.079,2.233,3.639,1.031,3.639,1.031s6.045.738,7.535,2.148c-.468-.443-.609-.635-.5-.635A13.988,13.988,0,0,1-1415.239,288.429Zm-280.532-6.149s2.062,2.55,4.293,5.654l6.044-5.421.733-.926c-.871-1.443-1.4-2.554-1.4-2.554l-6.928-8.2s5.537,15.1,1.094,14.463c-3.749-.533-3.088-9.205-5.823-12.761-.474,1.528-1.879,2.569-4.362,2.374ZM-585.3,287.929c.247-1.7.434-2.825.434-2.825l-.744,2.624Q-585.459,287.826-585.3,287.929Zm-114.587-5.053s1.664,2.059,3.413,4.509c.627-.555,1.076-.9,1.076-.9a4.345,4.345,0,0,0,3.776-4.069c.006-.053.013-.1.02-.156-.622-1.04-1-1.828-1-1.828l-3.494-4.136q-.341.509-.718,1.065c.974,3.332,2.008,8.107-.185,7.791-1.405-.2-1.989-1.917-2.474-3.923q-.433.623-.831,1.169Zm-264.6,3.95c.945-1.484,1.661-2.788,1.661-2.788a15.632,15.632,0,0,0,4.716-3.174c-.674-2.257-1.413-4.805-2.161-7.316-1.557.675-1.468,6.836-4.23,10.586-.372.5-.716.958-1.032,1.369A13.444,13.444,0,0,1-964.482,286.826Zm-1090.9-.018.463-.585c-.519-.335-.823-.55-.823-.55S-2055.592,286.129-2055.385,286.808Zm225.816-.049,2.042-2.581.161-.125a45.8,45.8,0,0,1-3.279-4.613S-1830.051,283.15-1829.569,286.759Zm290.3-.383a5.308,5.308,0,0,1,1.779-.063l-3-7.955S-1539.808,282.21-1539.269,286.376Zm-298.923-2.336a9.857,9.857,0,0,1-.514-.9l.007.2C-1838.531,283.568-1838.362,283.8-1838.192,284.04Zm732.187-.484q.123-.349.265-.67-.229-.066-.463-.126Q-1106.1,283.156-1106.006,283.556Zm-708.65-4.46.259-.036q.068-.169.145-.342a1.729,1.729,0,0,1-.568-.051Zm858.439-.029.076-.078a2.086,2.086,0,0,1,1.277-.672l.718-3.384c-.706-.91-1.348-1.806-1.879-2.577-.358.136-.731.272-1.1.4C-956.866,274.465-956.525,276.771-956.216,279.067Zm-575.368-.119c2.457-1.923,4.822-2.921,3.986-1.789a34.481,34.481,0,0,0,2.884-4.41,10.88,10.88,0,0,0,3.028-1.917,1.5,1.5,0,0,1-.264-.015c-1.092-.157-1.738-1.137-2.211-2.474a13.105,13.105,0,0,1-1.871,4.482,25.815,25.815,0,0,1-3.23,3.879l.547-11.206a9.987,9.987,0,0,0-3.893,2.89,3.715,3.715,0,0,1-.726,1.725c0,.03-.009.061-.012.092a6.3,6.3,0,0,1-.794,2.086Zm995.037-.822q.208-.1.406-.185c-.369-.568-.579-.914-.579-.914S-536.655,277.434-536.547,278.126Zm-751.007-2.048,2,1.52,1.063-.692c-.3-.8-.606-1.581-.886-2.394l-4.11-1.054Zm815.856.141.814-.53c-.445-1.178-.892-2.327-1.3-3.522l-2.116-.543A37.389,37.389,0,0,1-471.7,276.219Zm-936.119-1.379q.741.523,1.392,1.025c1.664-2.123,3.978-2.023,2.867-.23a18.68,18.68,0,0,1,3.7-3.855,3.759,3.759,0,0,0,3.266-3.519c.38-3.282,2.525-3.208,2.525-3.208l4.9-3.188c-.351-.927-.7-1.831-1.027-2.771l-6.822-1.751c-.363.888-1.849,3.4-6.341,9.858-5.837,8.4-6.035,4.615-6.044.831-.005-2.131.048-4.262-.811-4.217-1.2.061-2.994,2.9-4.782,6.124C-1412.537,271.584-1409.941,273.344-1407.817,274.84Zm722.907.053s.268.332.7.887l1.17-.761c-.405-1.073-.811-2.117-1.187-3.2l-.106-.027c.139.682-.352,1.092-1.925.965Zm-1130.3-10.477c2.057,2.713,3.168,8.017,2.775,11.35l.093-.121a22.562,22.562,0,0,1,2.965-5.292c1.105-.6,2.256-1.144,3.43-1.639a3.738,3.738,0,0,0-2.223-2.122,35.478,35.478,0,0,1-8.3-4.072c-.172.292-.338.564-.5.813A2.429,2.429,0,0,1-1815.209,264.416Zm721.025,10.682a4.917,4.917,0,0,0,1.973-3.61c.482-4.171,3.208-4.075,3.208-4.075l6.225-4.052c-.446-1.178-.892-2.327-1.3-3.522l-5.021-1.288a.493.493,0,0,1-.478.316,2.348,2.348,0,0,1-1.482-.818l-1.69-.434c-.461,1.129-2.349,4.316-8.059,12.527-.792,1.14-1.5,2.1-2.14,2.909C-1098.892,274.224-1095.115,274.931-1094.184,275.1Zm-142.106-4.293,2.892,1.156a16.684,16.684,0,0,1,.969,2.288l.566-.368c-.338-.892-.675-1.76-.987-2.665l-3.381-.867C-1236.248,270.506-1236.267,270.659-1236.29,270.806Zm255.735,2.439.208-.236-1.081-11.48-1.525.514s-.463,2.113-1.933,8.305C-983.408,271.344-981.895,272.363-980.554,273.245Zm-695.384-1.613a22.279,22.279,0,0,1,8-2.577,11.239,11.239,0,0,1,1.55-2.574,17.01,17.01,0,0,1,2.235-3.989,31.484,31.484,0,0,1,4.138-1.847c-.534-6.534,5.243-7.707,3.737-5.275a16.137,16.137,0,0,1,3.2-3.331,3.246,3.246,0,0,0,2.822-3.039c.328-2.835,2.181-2.77,2.181-2.77l4.232-2.754c-.3-.8-.606-1.581-.886-2.395l-5.893-1.511c-.314.767-1.6,2.934-5.478,8.515-5.042,7.257-5.212,3.987-5.221.717-.005-1.84.041-3.682-.7-3.643-2.083.107-6.281,9.97-8.257,12.642s.534-7.755.534-7.755a34.107,34.107,0,0,1-7.709,4.9c-2.073.823-2.348,4-2.777,6.769,3.511,2.989,8.1,7.583,2.555,7.134Zm567.447-.488c-.006-2.69.053-5.362-1.031-5.306-.863.044-1.973,1.227-3.188,2.993A19.039,19.039,0,0,0-1108.491,271.144Zm-412.185-1.186c.384-.35.79-.742,1.218-1.181a1.644,1.644,0,0,1,1.005-.53l.737-3.473-1.181-1.4c-.715.281-1.56.592-2.3.807C-1520.65,266.406-1520.275,268.733-1520.677,269.958Zm-510.375-4.688c.395-.585.675-.956.675-.956a41.955,41.955,0,0,1,5.489-2.451,11,11,0,0,1,.5-4.555l-2.22-.933-7.453-6.158-.246.459.115,3.179-1.346-.873a49.219,49.219,0,0,1-2.973,5.108c-1.782,2.416-.817-3.2-.014-7.045l-1.877-1.217q-.363.266-.763.549c2.222,3.867.981,6.83-2.433,2q-.095-.135-.2-.261a32.32,32.32,0,0,1-3.04,1.662,11.39,11.39,0,0,1-.089,2.3l2.892,1.156a13.12,13.12,0,0,1,1.423,4.438c.068,1.928,3.143.89,3.143.89s5.223.637,6.509,1.856c-.4-.383-.527-.549-.434-.549A13.864,13.864,0,0,1-2031.052,265.271Zm1173.559-2.55a4.59,4.59,0,0,0,2.511-2.291c-1.81-.647-3.689-1.336-5.554-2.046C-859.453,259.817-858.388,261.311-857.492,262.721Zm-107.927-2.265c-.221.012-.347.412-.411,1.079q.508-.277,1.05-.566c-.233-.333-.444-.514-.627-.514Zm-475.534-3c.724,1.355,2.694,2.54,5.068,3.53a11.7,11.7,0,0,1,3.282-4.327c-1.547-.509-3.522-1.172-5.685-1.93-.84.958-1.448,1.589-1.448,1.589l.612-1.884c-1.326-.469-2.708-.97-4.094-1.49a5.583,5.583,0,0,1-.416.411A38.2,38.2,0,0,1-1440.953,257.452Zm925.112,2.574a13.181,13.181,0,0,0,2.454-1.449c-.981-.491-1.911-1-2.749-1.482-.172.472-.363.938-.579,1.39A13.874,13.874,0,0,1-515.842,260.026Zm-1021.092-4.22a2.322,2.322,0,0,1,1.752,1.046,10.983,10.983,0,0,1,1.362,2.5,18.115,18.115,0,0,1,1.46-1.129q.325-.222.762-.508a43.231,43.231,0,0,1-5.792-3.342S-1537.19,254.956-1536.934,255.806Zm-146.453,3.4c.42-2.182.94-4.032.94-4.032l-2.3,3.245C-1684.344,258.665-1683.893,258.927-1683.386,259.21Zm1064.218-.244.22-.066-.255-.067ZM-854.121,257c.874-2.616,2.881-2.546,2.881-2.546l6.225-4.052c-.2-.517-.391-1.029-.585-1.541-.42-.622-.851-1.349-1.274-2.123l-5.373-1.378c.178,1.341.141,2.23-.193,2.465-.733.519-1.659-.944-2.567-3.127a17.112,17.112,0,0,1-1.014,1.893c-.13,2.872-.533,4.643-1.51,2.724a1.312,1.312,0,0,1-.122.289.647.647,0,0,1-.508.382c-.6.921-1.311,1.981-2.138,3.2Zm-577.789-.938c2.567-2.091,5.184-3.231,4.311-2.048a34.488,34.488,0,0,0,2.884-4.41,9.782,9.782,0,0,0,2.526-1.521c-.688-.925-1.375-2-1.952-2.967a13.275,13.275,0,0,1-1.892,4.563,25.806,25.806,0,0,1-3.23,3.879l.547-11.206a11.471,11.471,0,0,0-2.218,1.255c.4,1.927.505,3.429-.334,2.841a5.591,5.591,0,0,1-1.207-1.387,4.066,4.066,0,0,0-.873,2c-.193,1.54-1.873,3.939-3.462,5.908Zm98.538-1.261,1.337.535c2.45-1.093,4.5-1.916,5.068-2.14a9.108,9.108,0,0,1-2.555-2.676,7.441,7.441,0,0,0-4.435-2.658A18.207,18.207,0,0,1-1333.372,254.8Zm-686.558.061a21.4,21.4,0,0,1,4.242-4.417,4.309,4.309,0,0,0,3.744-4.033c.435-3.762,2.893-3.676,2.893-3.676l5.614-3.654c-.4-1.063-.8-2.1-1.176-3.176l-7.818-2.005c-.416,1.018-2.119,3.893-7.268,11.3-6.688,9.626-6.915,5.289-6.926.952-.006-2.443.055-4.885-.93-4.834-1.325.068-3.3,3.112-5.277,6.653,2.588,1.718,5.622,3.758,7.983,5.42.7.493,1.326.971,1.89,1.43a3.973,3.973,0,0,1,2.617-1.509C-2019.625,253.313-2019.3,253.855-2019.929,254.866Zm327.79-2.085,1.221-1.688c-2.121.378-2.211-.526-1.621-1.682a.374.374,0,0,1-.078-.029c-1.527-.73-1.618-9.639-2.541-14.944l-5.5-4.546c.5,4.469.908,9.147.113,6.656-.3-.935-.683-2.426-1.117-4.192l.063,1.728-6.274-4.067.09,2.909s.469,5.831.993,12.98c2.176.368,5.679,1.106,6.825,2.191-.536-.508-.7-.728-.576-.728C-1700.1,247.368-1695.868,250.282-1692.14,252.781Zm366.668-.082c1.411-.933,1.748-2.967,3.039-2.5q-.007-.217,0-.428l-5.016-3.251-.5-.142C-1325.925,248.925-1325.181,251.483-1325.472,252.7Zm-113.662-1.2.8.5,2.048-6.306-5.141,3.992s-.034.122-.107.326Zm811.841-8.344c2.045,3.831,12.713,6.487,17.724,7.543.879-1.484,1.749-2.635,1.749-2.635a46.4,46.4,0,0,1,6.087-2.717c-.786-9.611,7.714-11.336,5.5-7.76a12.684,12.684,0,0,1,1.2-1.589,9.415,9.415,0,0,1-3.719-2.969l-1.2-1.141c-.987.978-1.709,1.392-2.24,1.4.275.952.242,1.622-.376,1.65-1.683.08-4.887-5.284-6.309-7.825-2.872,4.647-6.085,11.528-7.95,14.051q-.108.147-.2.259l3.248,2.052s-7.458-2.323-15.282-5.223a6.144,6.144,0,0,0-.663,1.068A39.864,39.864,0,0,1-627.293,243.158Zm-312.957,6.4a2.714,2.714,0,0,1,1.344.444q.557-.191,1.123-.382c-1.844-1.1-3.066-1.961-3.066-1.961S-940.588,248.43-940.25,249.554Zm-245.246-2.173a6.247,6.247,0,0,0,2.377,2.166,18.094,18.094,0,0,1,2.1-4.126c-.777-.266-1.6-.55-2.438-.848-.539,1.334-.871,2.357-.871,2.357l-1.631-3.255c-.887-.324-1.785-.658-2.68-1A40.617,40.617,0,0,1-1185.5,247.381Zm469.935,1.97.026-.123-.159.069Zm-413.133-.277c.453-.765.742-1.291.742-1.291s2.566-.83,6.681-5.049a2.707,2.707,0,0,1,.481-.391c-.582-2.04-.96-3.53-.96-3.53l-.812-2.208a16.458,16.458,0,0,1-1.9.534c.327,2.637.326,4.647-.453,4.594a1.214,1.214,0,0,1-.419-.158c-.182,2.215-.477,3.559-.994,1.852a19.789,19.789,0,0,0-.73-2.02,18.386,18.386,0,0,1-2.573,6.469l-.067.091Zm-563.3-.553a22.572,22.572,0,0,1,2.239-2.642q.27-.185.522-.338c-.524-2.234-.86-4.067-.86-4.067l-1.215-3.95-.228-.1-.663-.548a3.144,3.144,0,0,1-.422.1C-1692.133,241.259-1691.663,246.464-1692,248.521Zm-185.483-.115a15.663,15.663,0,0,1,2.787-3.089q-.358-.439-.751-.993a6.636,6.636,0,0,0-3.32-2.318q-.429.554-.805.994a18.839,18.839,0,0,1,.381,4.545,2.594,2.594,0,0,1,1.347-.493C-1877.215,247.051-1876.934,247.523-1877.48,248.405Zm419.375-11.727,6.355,7.029,7.336,4.533c.3-.406.5-.657.5-.657s.493-.667,1.3-1.7c-1.79-1.069-4.791-12.88-4.791-12.88l-1.486-4.039-1.369-.966v.3c.664,3.637,1.094,7.3.121,7.232a1.051,1.051,0,0,1-.363-.137c-.158,1.915-.412,3.078-.859,1.6a15.847,15.847,0,0,0-3.1-5.808l.692-3.982a.571.571,0,0,1-.045-.094l-2.883,8.666a11.52,11.52,0,0,1-1.612-6.66c-.174-.616-.363-1.258-.542-1.912A20.048,20.048,0,0,0-1458.105,236.678Zm37.809,9.783q.394-.374.817-.805l-2.786-2.639S-1421.191,244.706-1420.3,246.462Zm-264.563-1.839a.421.421,0,0,0,.069-.029c-.144-.746-.223-1.217-.223-1.217S-1684.943,243.863-1684.86,244.623Zm504.894-.577a11.979,11.979,0,0,1,5.135-3.6l.419-1.433-1.4-1.979a8.013,8.013,0,0,0-4.376,1.947,11.266,11.266,0,0,0-2.327,3.459Zm45.842-.978.823.911.154-3.162a13.323,13.323,0,0,1-.691-1.879c-.318.16-.709.372-1.132.632A26.041,26.041,0,0,0-1134.124,243.068Zm-737.7.614a3.659,3.659,0,0,0,1.093-1.654l-2.644-1.714-.5-.142A13.474,13.474,0,0,1-1871.823,243.682Zm431.144-.21c.322-.39.66-.794,1.01-1.2-.33-.739-.661-1.62-.975-2.544C-1440.62,241.034-1440.622,242.369-1440.679,243.473Zm120.555-.076c.519-.8,1.037-1.561,1.45-2.322h-.236c-.7.363-1.09.3-1.291.029a18.907,18.907,0,0,0-2.284.216l-.3.335C-1322.22,242.022-1321.287,242.632-1320.124,243.4Zm-97.748-1.029.6-2.808s-1.275.565-2.627,1.052C-1419.236,241.2-1418.554,241.785-1417.872,242.368Zm-265.344-1.422.011-.015-.017-.007Zm1058.027-4.667,7.235,4.57c-.069-2.39,1.306-8.535,1.758-10.486a3.409,3.409,0,0,1-.282-.253,54.043,54.043,0,0,1-9,5.988Zm-701.271,4.374.215-.583-1.21-1.407a5.515,5.515,0,0,0-1.425,1.416C-1328.01,240.3-1327.188,240.492-1326.46,240.653Zm-111.585-.241c.686-.761,1.394-1.516,2.1-2.226-.306-.723-.49-1.186-.49-1.186l-2.974-1.845C-1438.851,237.093-1438.368,238.913-1438.045,240.412Zm-244.144-.66c2.5-2.569,6.057-4.3,5.138-3.058a29.758,29.758,0,0,0,2.491-3.809s1.744-.564,4.541-3.433a1.415,1.415,0,0,1,.869-.457l.827-3.894a3,3,0,0,1-.863-.453,14.812,14.812,0,0,1-3.464,1.066c-1.243.061-1.074,4.556-3.049,7.236a22.342,22.342,0,0,1-2.789,3.351l.472-9.68s-3.69,1.475-4,4.066c-.155,1.236-1.419,3.114-2.7,4.739.192.68.4,1.445.63,2.268A26.96,26.96,0,0,1-1682.189,239.752Zm183.054-.312a11.328,11.328,0,0,1,5.821-5.033l.363-1.239-1.21-1.712a6.933,6.933,0,0,0-3.785,1.684c-1.17.987-2.285,3.452-2.953,5.146A21.029,21.029,0,0,0-1499.135,239.44Zm310.716-.669-.127-.254-.127.1Zm-407.234-1.4,2.892,1.157s.038.071.1.2c.653-.595,1.153-.983,1.153-.983a3.614,3.614,0,0,0,3.141-3.384,4.254,4.254,0,0,1,.8-2.219l-2.978-1.93-.437-.123c3.6,4.521,2.522,9.063-1.351,3.587a5.014,5.014,0,0,0-1.738-1.5q-.387.561-.81,1.169-.387.558-.741,1.042A12.388,12.388,0,0,1-1595.653,237.375Zm338-2.22,3.209,3.55q3.3-1.285,7.188-2.61c-.671-2.228-1.151-4.119-1.151-4.119l-1.283-3.489-1.183-.833v.258c.573,3.142.945,6.3.1,6.248a.913.913,0,0,1-.313-.119c-.137,1.654-.356,2.659-.743,1.384a14.813,14.813,0,0,0-1.537-3.44c-.7-.156-1.2-1.18-1.527-2.268l-1.549,4.655a8.443,8.443,0,0,1-.979-2.228c-.2.558-.4,1.127-.6,1.692Q-1257.865,234.482-1257.655,235.155Zm-460.839,1.877,3.168,1.268c-.029-2.969-.029-4.913-.029-4.913l-.21-2.738a10.718,10.718,0,0,0-3.6-1.568A20.865,20.865,0,0,1-1718.493,237.032Zm-150.8-1.959s1.089.707,2.76,1.8l3.444-2.241c-.351-.927-.7-1.831-1.027-2.772l-6.822-1.75a31.661,31.661,0,0,1-2.442,4.112C-1871.01,234.78-1869.294,235.073-1869.294,235.073Zm365.678.784-1.561-3.114-1.455,1.1C-1505.586,234.549-1504.539,235.253-1503.616,235.857Zm-551.777-.475c.183-.229.375-.456.573-.678q-.739-.274-1.481-.556C-2055.993,234.554-2055.688,234.968-2055.393,235.382Zm1331.831-4.316c.914,1.713,4.136,3.111,7.378,4.127a197.746,197.746,0,0,1,20.074-7.364l-.13-1.842s.06-.208.191-.565c-.963.987-3.756,1.147-6.194-1.923l-3.9-3.7a8.089,8.089,0,0,1,.025,1.009c.985,1.807,2.014,4.069,1.02,4.113-.491.023-1.155-.574-1.846-1.423a3.624,3.624,0,0,1-.9.882c-1.648,1.129-2.607-1.263-3.109-3.319h-1.411l-.005,0c-.721,1.929-1.727,4.664-2.566,7.125-1.069,3.108-1.1-3.4-1.026-7.434a13.106,13.106,0,0,1-.782-1.2l-2.766,5.392a4.147,4.147,0,0,1-.55,2.2l6.583,4.158s-3.483-1.085-7.831-2.61a10.008,10.008,0,0,1-2.453,1.647l.487-2.346c-1.023-.369-2.071-.756-3.113-1.153A36.476,36.476,0,0,1-723.561,231.066Zm-617.391,3.244q.067.125.147.248l1.872-2.587.8-.334c-1.932-.676-4.021-1.43-6.09-2.218A42.219,42.219,0,0,1-1340.952,234.31Zm-711.8-1.6c3.042-2.567,6.307-4.025,5.269-2.619a23.505,23.505,0,0,0,1.537-2.123,14.853,14.853,0,0,1-.864-1.366,22.168,22.168,0,0,1-2.58,2.967l.368-7.539c-.34-.793-.551-1.323-.551-1.323l-2.569-1.595c1.156,4.013,1.935,7.446,1.344,7.862-.681.481-1.608-1.553-2.412-3.915.061,3.335-.072,6.848-1.05,4.928a.89.89,0,0,1-.082.2c-.449.747-1.117-.2-1.81-1.8-.681.988-1.451,1.98-2.187,2.878Zm1461.212-.041.035.019a4.776,4.776,0,0,0,4.122-4.468c.482-4.171,3.208-4.076,3.208-4.076l6.225-4.051c-.446-1.179-.892-2.326-1.305-3.522l-8.669-2.224c-.462,1.129-2.349,4.315-8.06,12.526q-.642.925-1.214,1.7A42.332,42.332,0,0,0-591.539,232.669Zm-1094.069-.344.064.219.985-3.034-1.553,1.206Zm257.461.164c5.082-2.868,14.069-7.218,27.672-11.438l-.113-1.594s1.819-6.3,7.273-8.193l.363-1.239-1.21-1.712a6.933,6.933,0,0,0-3.785,1.684c-1.86,1.57-3.584,6.878-3.584,6.878l-3.646-7.276-4.207,3.188s1.1,3.68-1.243,5.284c-1.425.976-2.255-1.093-2.688-2.871h-1.22l0,0c-.624,1.668-1.494,4.033-2.219,6.162-1.3,3.784-.822-8.912-.822-8.912l-1.487,2.9,1.17,2.94a3.335,3.335,0,0,1-2.815.457c-.047,2.874-3.678,4.478-3.678,4.478l.366-1.765a8.749,8.749,0,0,1-3.793-1.888l-.078.087c-4.209,3.2-2.482-2.111-2.482-2.111l-1.911,2.153,0,.046-.026-.018-2.849,3.209C-1432.4,226.375-1429.667,230.267-1428.146,232.489Zm411.081-1.9a20.422,20.422,0,0,1,3.713-4.074c-2-.673-4.321-1.469-6.762-2.342a6.342,6.342,0,0,1-2.644,2.079c.466.724.889,1.427,1.25,2.091a6.006,6.006,0,0,0,1.525,1.746,4,4,0,0,1,2.461-1.222C-1016.729,228.868-1016.371,229.468-1017.066,230.589Zm-341.04-17.053,6.355,7.029,12.616,7.795,3.521,2.224,7.045-2.942a24.486,24.486,0,0,0,5.56-3.865c-1.422-2.132-2.641-4.471-2.641-4.471l-6.922-4.876s3.283,10.269,1.3,8.879-5.166-9.451-5.166-9.451l-2.974-1.845c1.338,4.645,2.241,8.618,1.556,9.1-.788.558-1.861-1.8-2.792-4.532.071,3.86-.083,7.927-1.214,5.7a1.059,1.059,0,0,1-.1.227c-1.569,2.612-5.448-12.657-5.448-12.657l-1.486-4.039-1.369-.966v.3c.664,3.637,1.094,7.3.121,7.232a1.058,1.058,0,0,1-.363-.137c-.157,1.915-.412,3.078-.859,1.6a15.847,15.847,0,0,0-3.1-5.808l.693-3.982a.435.435,0,0,1-.045-.094l-2.884,8.666a11.52,11.52,0,0,1-1.612-6.66c-.174-.616-.363-1.258-.542-1.912A20.048,20.048,0,0,0-1358.105,213.536Zm156.114,13.866,2.807,3.106c2.625-1.181,5.656-2.357,8.385-3.355-.541-1.876-.9-3.29-.9-3.29l-1.428-3.884-1.317-.929v.287c.638,3.5,1.052,7.019.116,6.956a1.012,1.012,0,0,1-.349-.132c-.151,1.842-.4,2.96-.826,1.541a15.24,15.24,0,0,0-2.985-5.585l.666-3.829a.415.415,0,0,1-.043-.091l-2.773,8.334a11.075,11.075,0,0,1-1.55-6.405c-.167-.592-.349-1.21-.521-1.838A19.263,19.263,0,0,0-1201.991,227.4Zm598.376,2.652c-.029-.53-.039-1.094-.044-1.664l-2.027-1.921S-604.6,228.174-603.616,230.054Zm-916.481-1.2c.255-.048.474-.1.622-.146,2.321-2.1,10.121-5.036,15.016-6.742l-.493-.207-8.6-7.105.157,4.3-8.483-5.5-.485-.138c4.006,5.033,2.807,10.089-1.5,3.993a7.154,7.154,0,0,0-4.265-2.555,17.522,17.522,0,0,1,.563,6.672l3.218,1.288a14.612,14.612,0,0,1,1.584,4.94,1.493,1.493,0,0,0,.108.529A13.417,13.417,0,0,1-1520.1,228.849Zm-66.918-3.163s2.086,1.354,4.813,3.16l.974-.634c-.338-.892-.675-1.76-.987-2.665l-6.561-1.683a11.6,11.6,0,0,1-.7,1.331C-1588,225.517-1587.014,225.686-1587.014,225.686Zm-475.788.814,2.859,1.766,2.141-6.593q-.1-.343-.2-.675l-5.327,4.136s-.062.218-.192.567Zm375.369-.007a38.126,38.126,0,0,1,6.27-6.16c.32-.219.733-.492,1.244-.812-.8-3.342-1.057-8.13-3.379-8.959q-.34-.122-.685-.268l-.25.282c-2.253.555-2.664-.26-2.229-1.574a36.443,36.443,0,0,1-4.177-2.99c-.038.042-.079.082-.122.122.069.26.177.68.3,1.192a1.915,1.915,0,0,1,1.472,1.078c2.643,4.279,3.354,15.057.314,14.134Zm-12.393-.232c-.961-1.609-1.631-2.959-1.631-2.959s.106.815.26,2.051Zm-345.035-.036c.417-.7.684-1.189.684-1.189a8.885,8.885,0,0,0,1.913-1.04l-2.067-1.456a11.907,11.907,0,0,1-.944,1.967C-2045.125,225.079-2044.98,225.669-2044.86,226.225Zm1033.2-.681a4.769,4.769,0,0,0,3.448-4.324c.482-4.171,3.208-4.075,3.208-4.075l5.43-3.534c-1.408-2.261-2.488-4.332-2.488-4.332l-.478-.337-6.213-1.594a11.124,11.124,0,0,1-.561,1.119c.856,3.357,1.5,6.87.11,5.9a9.481,9.481,0,0,1-2.1-2.648c-1.236,1.919-3.006,4.555-5.512,8.158q-.629.9-1.19,1.665Zm288.911-.085,1.233-5.94a1.957,1.957,0,0,1-.17-.191l-3.9,4.38Zm-513.471-.1q.181-.072.367-.136l.349-1.192-1.165-1.647a5.626,5.626,0,0,0-1.585.389C-1237.569,223.605-1236.884,224.481-1236.219,225.355Zm539.372-2.126c.761.4,1.108.878,1.142,1.331.963-2.235,3.324-6.466,7.874-8.045l.419-1.433-1.4-1.979a8.012,8.012,0,0,0-4.376,1.947c-2.048,1.728-3.953,7.374-4.13,7.91C-697.148,223.064-696.991,223.154-696.848,223.229Zm-327.534.644c-.043-.4-.069-.839-.085-1.291q-.6-.225-1.2-.453C-1025.231,222.7-1024.8,223.288-1024.381,223.873Zm-679.392-.219c-1.071-4.267-2.1-7.851-2.686-7.821-.432.029-.3,2.932-.166,5.955C-1706.1,222.132-1705.086,222.792-1703.774,223.654Zm1218.507-.035-.129-1.822s2.146-7.435,8.506-10.127l-.269-.113-3.408-2.816a9.526,9.526,0,0,0-1.474,1.035c-2.364,2-4.555,8.74-4.555,8.74l-4.632-9.246-5.346,4.052s1.395,4.676-1.579,6.714c-1.144.783-1.986.023-2.59-1.213q.031.266.043.525c.1,2.838,4.623,1.31,4.623,1.31s7.682.938,9.575,2.73c-.594-.564-.775-.808-.638-.808A8.563,8.563,0,0,1-485.267,223.619Zm-212.1-.689-4.18-8.34-3.233,2.45A75.108,75.108,0,0,0-697.367,222.93Zm-1370.924-2.5,2.091,2.313.019-.024s1.218-1.647,3.022-3.87a12.692,12.692,0,0,0-1.986-3.167l.6-3.441a.422.422,0,0,1-.039-.081l-2.491,7.485a9.947,9.947,0,0,1-1.391-5.753c-.15-.532-.313-1.087-.468-1.652A17.3,17.3,0,0,0-2068.291,220.427Zm1421.168-1.287,3.2,3.543a7.292,7.292,0,0,1,4.616-.927c1.052.122,1.482.245,1.645-1.351a10.153,10.153,0,0,1,2.942-5.4l-.031-.122-1.718-4.67-1.583-1.115v.345c.768,4.2,1.265,8.438.14,8.362a1.222,1.222,0,0,1-.419-.158c-.182,2.215-.477,3.559-.994,1.852a18.323,18.323,0,0,0-3.588-6.715l.8-4.6a.574.574,0,0,1-.052-.109l-3.334,10.019a13.314,13.314,0,0,1-1.863-7.7q-.108-.383-.222-.778a5.458,5.458,0,0,1-.635.408A23.676,23.676,0,0,0-647.123,219.14Zm-673.867,2.884.51-.458-1.785-1.692S-1321.666,220.816-1320.99,222.024Zm-720.364-3.647s1.129,1.047,2.779,2.533q.208-.207.423-.427a1.884,1.884,0,0,1,1.152-.607l1.349-6.355s-4.343,1.924-5.991,2c-.409.02-.7.4-.953,1.018C-2041.824,217.664-2041.354,218.377-2041.354,218.377Zm617.453,2.488.693-3.337a12.805,12.805,0,0,1-1.565-1.38l-.975,1.1Zm-79.093-2.432c1.059.748,1.974,1.465,2.761,2.138,3.162-.229,3.324-3.544,5.312-2.964-.159-4.143,2.962-6.655,4.652-9.2-3.5,0-6.53.274-7.365,1.127-2.311,2.36-5.111,4.72-5.111,4.72l3.1-6.859-1.5-1.419s-1.894.842-4.147,4.683a10.2,10.2,0,0,1-3.754,3.632C-1506.939,215.7-1504.791,217.167-1502.994,218.433Zm726.343,1.708q.822-.264,1.671-.528l-.1-1.377a13.132,13.132,0,0,1,2.005-3.839c-.6-.2-1.262-.417-1.962-.651-.523,1.229-.858,2.26-.858,2.26l-1.538-3.07c-1.263-.431-2.613-.9-4.013-1.395l-1.232.934s.7,2.336-.378,3.876A17.884,17.884,0,0,0-776.651,220.14Zm-672.021-11.776,2.516,6.707c2.829.738,5.477,1.826,7.088,3.425.479.476.977,1.005,1.486,1.573a30.058,30.058,0,0,1,1.874-2.733l-.53-.373-2.63-5.837-2.791,2.366-6.354-5.624A1.111,1.111,0,0,1-1448.672,208.364Zm-267.762,10.948-.2-2.642-.969.4s-.09.505-.329,1.776C-1717.436,219.009-1716.933,219.164-1716.434,219.312Zm398.523-.12c4.034-3.807,7.514-7.434,7.514-7.434a6.229,6.229,0,0,0,.219-.809l-1.144,1.079c-3.248,2.092-2.956-1.144-2.956-1.144l1.307-1.471-3.705.6-2.168-7.262a63.246,63.246,0,0,0-3.65,7.609,4.66,4.66,0,0,1-2.375,2.681C-1323.135,214.616-1320.522,216.96-1317.911,219.192Zm579.532-6.072,5.443,6.021,5.345-3.815-.106-.335c-2.093-.13-4.229-1.479-3.975-2.918a1.145,1.145,0,0,1-.138-.068c-.136,1.654-.356,2.659-.742,1.383a13.675,13.675,0,0,0-2.681-5.017l.6-3.441a.414.414,0,0,1-.039-.081l-2.491,7.485a9.95,9.95,0,0,1-1.392-5.753c-.15-.532-.313-1.087-.468-1.651A17.315,17.315,0,0,0-738.379,213.12Zm-384.837-2.787,2.909,7.754c.92.24,1.824.512,2.689.82q3.2-1.351,6.915-2.764l-1.179-2.616-3.227,2.734-7.346-6.5A1.288,1.288,0,0,1-1123.216,210.333Zm-53.26,8.377c.67-2.939,2.739-5.116,4.342-7.188a6.1,6.1,0,0,1-1.242-1.1,31.047,31.047,0,0,0-3.8.317l.014.382-.437-.308a4.447,4.447,0,0,0-2.226.88c-.387.4-.785.79-1.184,1.177C-1179.465,214.707-1177.879,216.79-1176.476,218.71Zm-112.983-.062a8.176,8.176,0,0,1,2.044-5.342,2.362,2.362,0,0,1-1.228-2.242c0-.069,0-.139-.007-.208a5.8,5.8,0,0,0-3.151.855c-.485.5-1,.991-1.49,1.457C-1292.141,214.844-1290.835,216.719-1289.459,218.648Zm-387.456-.889q1.123-.619,2.507-1.326l-4.239-6.162A66.572,66.572,0,0,1-1676.915,217.759Zm-215.416-.093,1.133-5.336s-3.789,1.678-5.229,1.746c-.293.014-.518.242-.71.62Zm867.758-.2c-.108-1.147-.359-1.922-.949-1.892a2.11,2.11,0,0,0-1.168.584Zm-1036.939-4.278c.2,1.08.37,2.162.479,3.115.374-.436.76-.878,1.152-1.32l-.448-1.219-1.183-.833Zm812.007-2.487,1.189,3.171c.888-.319,1.723-.612,2.466-.868l-3.086-2.731A.961.961,0,0,1-1249.505,210.7Zm477.139,2.858a8.813,8.813,0,0,1,3.571-2.4l.314-1.07-1.046-1.48a5.993,5.993,0,0,0-3.27,1.455,7.61,7.61,0,0,0-1.562,2.231Zm-738.454-.451,2.96-6.791-4.751,1.731a22.132,22.132,0,0,1-2.081,2.5C-1513.567,211.28-1512.233,212.162-1510.82,213.1Zm-155.752-2.082s.367.557.932,1.452l.37-.149c-.734-1.518-1.029-4.09-1.528-6.369-.3.835-.608,1.7-.889,2.528a1.636,1.636,0,0,1-.273.56Zm339.649.14s.238.221.659.607l1.639-7.2s-1.388,1.455-3.826,4.332C-1327.5,210.28-1326.922,211.162-1326.922,211.162Zm-335.73.147q1.75-.66,3.671-1.329c-.486-1.026-.775-1.768-.775-1.768l-2.1-3.047a2.716,2.716,0,0,1-.534.48.893.893,0,0,1-1.071.07A29.735,29.735,0,0,1-1662.652,211.308Zm931.053-5.432a27.938,27.938,0,0,1,.592,5.132,5.976,5.976,0,0,1,1.881-1.042l-.006-.025-1.283-3.489-1.183-.833Zm-452.084,4.041q.407.4.833.86l.706-1.561-1.732-1.641a6.216,6.216,0,0,0-1.459,1.078A8.782,8.782,0,0,1-1183.684,209.917Zm-761.445.3a12.2,12.2,0,0,1,4.229-4.385c-1.131-.38-2.371-.8-3.679-1.259a20.534,20.534,0,0,0-2.28,4.465A12.229,12.229,0,0,0-1945.128,210.216Zm651.435,0,.158-.349-.184-.175C-1293.709,209.867-1293.7,210.042-1293.693,210.212Zm-315.141-.749.574-2.7s-1.56.691-3.026,1.187Zm511.72-.522c.654-1.824,3.212-7.85,9.066-9.881l.461-1.575-1.538-2.176a8.813,8.813,0,0,0-4.81,2.14c-2.364,2-4.555,8.74-4.555,8.74l-4.632-9.246-5.346,4.052a9.563,9.563,0,0,1,.327,2.52A73.434,73.434,0,0,1-1097.114,208.941Zm-571.175-.366a34.787,34.787,0,0,1-.176-4.915,2.49,2.49,0,0,1-1.915.994l-.279.544Zm150.337-.168.127.083c.919-1.391,1.766-2.519,1.766-2.519l-2.472,2.331C-1518.16,208.371-1517.952,208.407-1517.952,208.407Zm-16.908-6.7c1.409,2.64,7.742,4.609,12.243,5.706l7.273-8.186,9.1-3.1c-1.4-.007-3.216-.75-4.881-2.847l-5.761-5.459s4.43,6.964,2.584,7.047-5.838-7.593-5.838-7.593l-6.656-4.69s3.157,9.876,1.252,8.539-4.968-9.088-4.968-9.088l-2.861-1.775c1.288,4.468,2.156,8.288,1.5,8.753-.759.536-1.79-1.728-2.685-4.359.068,3.713-.08,7.624-1.168,5.486a1.007,1.007,0,0,1-.092.219c-1.509,2.511-5.24-12.173-5.24-12.173l-1.428-3.884-1.317-.928v.286c.638,3.5,1.052,7.019.116,6.956a1.012,1.012,0,0,1-.349-.132c-.151,1.842-.4,2.96-.826,1.541a15.239,15.239,0,0,0-2.985-5.585l.666-3.829a.415.415,0,0,1-.043-.091L-1550,180.86a11.076,11.076,0,0,1-1.55-6.405c-.167-.592-.349-1.21-.521-1.838a19.264,19.264,0,0,0,.718,9.115l6.112,6.761,12.133,7.5,9.477,5.987s-7.3-2.274-14.372-4.968A40.617,40.617,0,0,1-1534.86,201.712Zm804.631-13.05,2.174,5.794a13.809,13.809,0,0,1,6.123,2.958,85.494,85.494,0,0,1,7.979,9.994c6.727-3.3,18-6.884,18-6.884,3.778-.185,3.943-4.112,6.268-3.434-.184-4.79,3.424-7.694,5.378-10.631-4.052,0-7.55.317-8.515,1.3-2.672,2.729-5.909,5.458-5.909,5.458l3.59-7.931-1.732-1.641s-2.19.975-4.8,5.414a11.572,11.572,0,0,1-3.708,3.812l1.735,4.36s-2.421,2.051-6.322-2.255l-3.048-3.719,4.487,8.793s-3.345-.473-4.693-2.991a11.393,11.393,0,0,0-3.045-3.718l.19,5.148-3.413-2.4-2.272-5.043-2.411,2.044-5.488-4.858A.96.96,0,0,1-730.229,188.662Zm-197.646,15.457,4.253,1.7s.331.621.73,1.55c1.221-1.842,2.732-3.434,3.806-5.032a1.8,1.8,0,0,1-.207-.058c-3.706.011-6.958.271-8.483,1C-927.8,203.573-927.834,203.852-927.876,204.118Zm-1132.266-8.15,2.173,5.794a13.8,13.8,0,0,1,6.123,2.958c.552.549,1.135,1.18,1.731,1.865.826-.5,1.788-1.053,2.888-1.659l-2.174-1.53-2.271-5.043-2.411,2.044-5.489-4.858A.961.961,0,0,1-2060.141,195.969Zm155.88,10.577q.577-.353,1.271-.758a12.016,12.016,0,0,1-1.243-6.019c-.175-.616-.363-1.258-.542-1.912A19.819,19.819,0,0,0-1904.261,206.545Zm574.113-.069.5-.854s-.283.126-.872.338Zm90.9-1.209a24.687,24.687,0,0,1,2.338.856c.894-2.363,2.805-4.126,3.988-5.9-3.37,0-6.28.264-7.083,1.084-.723.738-1.5,1.477-2.21,2.137A10.272,10.272,0,0,0-1239.249,205.267Zm-576.381.529q1.626-.71,3.415-1.445c-1.888-.662-3.919-1.4-5.931-2.162C-1817.245,203.382-1816.359,204.63-1815.63,205.8Zm-86.641-.422c.928-.527,1.993-1.107,3.2-1.729a12.277,12.277,0,0,0-1.311-1.8l.692-3.982a.489.489,0,0,1-.045-.094Zm-36.955-.348.352-1.2-1.21-1.713a6.449,6.449,0,0,0-2.492.8Zm-106.819-.74q1.019-.544,2.175-1.13a10.605,10.605,0,0,0-2.309-2.5Zm1240.5-15.3,8.076,8.933,9.863,6.094a132.43,132.43,0,0,1,12.739-4.8,3.311,3.311,0,0,0,1.385-.359,55.2,55.2,0,0,1-2.875-5.6c-.365.317-.587.5-.587.5l.408-.9C-777.408,190.9-778,189.4-778,189.4l-.233-.145c-.288.4-.59.866-.9,1.393a8.186,8.186,0,0,1-1.251,1.619c.827,3.432,1.177,5.933.581,6.353-.882.625-2.045-1.622-3.118-4.542-.142.071-.281.136-.413.195.024,4.411-.261,8.391-1.561,5.837a1.351,1.351,0,0,1-.122.289c-1.08,1.8-3.021-3.073-4.574-7.915a5.84,5.84,0,0,1-1.509.682c-1.6.442-.593-1.651.616-3.59-.083-.281-.163-.557-.241-.826l-1.319,1.245c-3.248,2.092-2.956-1.144-2.956-1.144l3.281-3.693c-.142-.535-.22-.845-.22-.845l-1.888-5.133-1.741-1.226v.379c.844,4.622,1.391,9.275.154,9.191a1.328,1.328,0,0,1-.461-.175c-.2,2.434-.525,3.912-1.093,2.037A20.141,20.141,0,0,0-800.913,182l.879-5.061a.6.6,0,0,1-.057-.12l-3.665,11.012a14.634,14.634,0,0,1-2.047-8.463c-.221-.783-.461-1.6-.688-2.429A25.471,25.471,0,0,0-805.541,188.988Zm-543.129-3.767,2.516,6.707c2.829.738,5.477,1.826,7.088,3.425a77.23,77.23,0,0,1,6.712,8.081,18.142,18.142,0,0,0,1.432-1.443,26.021,26.021,0,0,1,3.967-4.9,5.938,5.938,0,0,1-2.026-2.143,13.19,13.19,0,0,0-3.524-4.3l.221,5.96-3.95-2.781-2.63-5.837-2.791,2.366-6.354-5.624A1.109,1.109,0,0,1-1348.671,185.222Zm-464.386,15.908,3.448,2.178c4.091-1.6,8.76-3.26,14.038-4.9a45.378,45.378,0,0,1-4-6.329l-5.313-3.743-.722.547a8.617,8.617,0,0,1,.292,2.419c.691,2.682,1.231,5.557.122,4.779a6.067,6.067,0,0,1-1.325-1.566,3.637,3.637,0,0,1-.513.424c-1.634,1.118-2.584-1.253-3.082-3.29h-1.4l-.006-.005-.11.294c.141,1.06.113,1.763-.15,1.95a.457.457,0,0,1-.56-.03c-.561,1.532-1.178,3.249-1.724,4.849-.714,2.073-.96-.171-1.023-3.078-.176.162-.4.011-.7-.57a1.059,1.059,0,0,1-.1.227c-.463.771-1.127-.016-1.833-1.507l-.881,1.717a4.052,4.052,0,0,1-.428,1.953Zm1192.372,2.014a29.867,29.867,0,0,0,4.243-3.679,2.084,2.084,0,0,1,1.277-.673l.62-2.921a15.537,15.537,0,0,0-2.472-2.784c-.163.059-.327.117-.491.173l.233,6.3-4.51-3.175c-.317,1.174-.626,2.65-1.09,4.139C-622.154,201.35-621.418,202.232-620.684,203.143Zm-1031.882-1.288s.307.465.792,1.229a9.255,9.255,0,0,1,4.34-3.32l.313-1.071-1.046-1.479a5.987,5.987,0,0,0-3.27,1.454,7.738,7.738,0,0,0-1.59,2.286Zm1144.923,1.021q.294-.179.614-.362-.373-.114-.76-.213Q-507.713,202.588-507.642,202.876Zm-735.746-.421,1.453-3.21-1.441-1.364a7.837,7.837,0,0,0-2.479,2.277C-1244.995,201-1244.166,201.775-1243.389,202.455Zm-652.792-3.506c.189,1.035.359,2.073.483,3.026q.724-.343,1.5-.7l-.611-1.661-1.37-.965Zm-145.065,2.915.735-.349-2.417-2.948Zm423.636-2.516q.423-.23.876-.47a10.593,10.593,0,0,1-.463-3.69c-.151-.532-.314-1.087-.468-1.651A16.692,16.692,0,0,0-1617.609,199.348Zm-418.713-1.753.688,1.73a197.463,197.463,0,0,1,19.238-7.014l-.13-1.827s2.084-7.22,8.335-9.389l.416-1.42-1.387-1.963a7.948,7.948,0,0,0-4.337,1.93c-2.132,1.8-4.108,7.882-4.108,7.882l-4.179-8.339-4.82,3.654s1.258,4.217-1.424,6.055c-1.634,1.119-2.585-1.252-3.082-3.29h-1.4l-.005,0c-.715,1.912-1.712,4.622-2.543,7.062-1.492,4.336-.942-10.212-.942-10.212l-3.591,7c.079,2.1-1.514,3.628-2.764,4.5C-2039.022,195.8-2036.322,197.6-2036.322,197.6Zm992.077.439c.186-.325.293-.521.293-.521a6.161,6.161,0,0,0,.88-.4,15.587,15.587,0,0,1-.515-3.968,19.092,19.092,0,0,1-.937,2.562C-1044.468,196.456-1044.377,197.233-1044.245,198.034Zm-570.538-.16q.569-.285,1.177-.581c-.166-.207-.266-.315-.266-.315l.6-3.441a.414.414,0,0,1-.039-.081Zm843.549-1.071a1.173,1.173,0,0,1,1.052-.157,6.99,6.99,0,0,1,.976-3.783l-3.815-2.688-.042.042C-772.882,190.79-771.894,193.958-771.234,196.8Zm142.993-.825.033-.679s-.292.117-.747.344Q-628.59,195.8-628.24,195.977Zm111.561-10.9c2.959,5.542,22.342,8.847,22.342,8.847s1.186.77,3.046,1.99c3.569-1.261,6.208-2.1,6.208-2.1,4.152-.2,4.333-4.52,6.888-3.775-.2-5.264,3.764-8.456,5.912-11.685-4.453,0-8.3.348-9.359,1.431-2.937,3-6.5,6-6.5,6l3.947-8.716-1.9-1.8s-2.407,1.071-5.27,5.951A14.083,14.083,0,0,1-499.7,187.3l5.063-11.618-6.038,2.2a26.65,26.65,0,0,1-4.878,5.2l3.708,2.342s-1.9-.591-4.825-1.56a8.688,8.688,0,0,1-2.3,1.052c-1.446.4-1.447-.6-.821-2.1-3.265-1.109-7.182-2.487-11.047-3.96A53.667,53.667,0,0,1-516.679,185.074ZM-1821.75,195.758l1.275-6.141-3.977,4.471Zm211.51-1.277c.07.385.138.771.2,1.151q.5-.224,1.027-.453l-.045-.122-1.183-.834Zm285.249,1.105a6.216,6.216,0,0,1,1.627-.7,4.143,4.143,0,0,0,.591-.2,12.752,12.752,0,0,1-2.443-2.152l-3.53-4.306Zm-554.591-.078q2.472-.843,5.185-1.687l-.113-1.594a13.344,13.344,0,0,1,.8-1.971,5.56,5.56,0,0,1-1.2-1.509q-.069-.129-.139-.255c-.259.691-.409,1.153-.409,1.153l-2.341-4.673a7.4,7.4,0,0,0-.635-.529l.221,5.96-3.951-2.781-.985-2.186-.161.122s.879,2.945-.611,4.714C-1882.519,191.79-1881.016,193.64-1879.582,195.508Zm84.7-.658c.094-.21.2-.434.317-.669l-1.624-1.538S-1795.57,193.615-1794.881,194.851ZM-1967.838,183.7l7.283,8.056,4.671,2.885c1.661-.646,3.313-1.248,4.765-1.761a53.515,53.515,0,0,1-3.069-8.411,11.381,11.381,0,0,1-3.578,1.645l2.455-5.634c-.167-.627-.262-1-.262-1l-.6-1.637-2,.727c.231,2.236.162,3.853-.534,3.806a1.2,1.2,0,0,1-.416-.158c-.181,2.2-.473,3.528-.985,1.837a19.663,19.663,0,0,0-.917-2.444,10.1,10.1,0,0,1-4.034,2.624c-2.431.67.33-3.694,2-6.1-.079-.105-.152-.2-.218-.282l-1.966,1.854-.981,2.948a9.425,9.425,0,0,1-.819-1.594,2.542,2.542,0,0,1-1.412.3C-1968.294,182.12-1968.09,182.9-1967.838,183.7Zm221,6.039,4.409,4.877c1.13-3.918,4.245-4.285,3.136-2.088a17.289,17.289,0,0,1,2.99-3.823,2.944,2.944,0,0,0,2.137-1.65c-.256-.944-.405-1.534-.405-1.534l-1.7-4.629-.738-.52q-.283.515-.6,1.084c.616,3.685.9,7.028-.094,6.96a1.193,1.193,0,0,1-.416-.157c-.181,2.2-.473,3.527-.985,1.836a19.678,19.678,0,0,0-1.46-3.547c-3.292,5.06-3.44,1.812-3.449-1.492l-1.212,3.642a12.485,12.485,0,0,1-1.744-5.058c-.276.519-.559,1.087-.845,1.686A25.345,25.345,0,0,0-1746.839,189.736Zm707.412,4.771q.471-.409.983-.89l.647-3.718a.6.6,0,0,1-.057-.12Zm-248.031-.7c5.375-3.943,10.871-8.609,10.871-8.609a9.248,9.248,0,0,0,.569-2.48l-7.284.96-2.318-6.325a51.468,51.468,0,0,0-3.9,6.627,4.586,4.586,0,0,1-2.751,2.417C-1290.614,189.055-1288.943,191.648-1287.459,193.809Zm84.336-21.147c5.855,6.973,15.488,17.98,20.338,20.862,8.057-4.355,23.321-17.316,23.321-17.316a12.387,12.387,0,0,0,.762-3.319l-9.75,1.285-3.1-8.466a68.949,68.949,0,0,0-5.224,8.87c-1.538,3.523-5.981,3.74-5.981,3.74l2.671-9.555c-.221-.026-.451-.058-.687-.1-.973.87-2.668,2.418-4.961,4.634-3.748,3.632-7.091,3.784-7.091,3.784l2.645-3.65c-3.014.512-6.708.586-6.98-2.047-2.052.131-2.578-.635-2.287-1.4a2.41,2.41,0,0,1,1.487-1.274c-1.364-2.139-4.227-3.842-6.321-4.879A30.038,30.038,0,0,1-1203.123,172.662ZM-2043.5,193.335l2.025-9.757-6.345,7.133q-.268.2-.508.367A46.492,46.492,0,0,1-2043.5,193.335Zm921.848-1.164c3.519-3.955,24.673-10.687,24.673-10.687,4.153-.2,4.333-4.52,6.889-3.775-.2-5.264,3.764-8.456,5.912-11.685-4.453,0-8.3.348-9.359,1.431-2.937,3-6.5,6-6.5,6l3.946-8.716-1.9-1.8s-2.406,1.071-5.27,5.951a12.291,12.291,0,0,1-2.734,3.2c.405.374.635.591.635.591s-.55.029-1.374-.015a14.547,14.547,0,0,1-4.862,2.313l1.279-2.935a8.663,8.663,0,0,1-.923-.359c-1.151-.528-3.157-1.275-5.013-1.938a16.371,16.371,0,0,1-2.308,1.79l3.35,5.518s-13.043,4.238-13.125-1.652c-.054-3.925-5.143-7.07-8.543-8.755,1.331,3.768,1.4,9.068,1.394,10.616,3.555,4.234,8.268,9.705,12.814,14.53A10.77,10.77,0,0,1-1121.652,192.171Zm-826.232-.4c1.009-.337,1.621-.532,1.621-.532l.112-.007a25.688,25.688,0,0,1-1.677-4.04C-1947.8,188.8-1947.8,190.45-1947.884,191.766Zm155.185-.55a12.12,12.12,0,0,1,5.51-4.082l.416-1.42-1.388-1.962a7.942,7.942,0,0,0-4.337,1.93,11.6,11.6,0,0,0-2.4,3.616C-1794.186,189.925-1793.447,190.571-1792.7,191.217Zm936.236-.5a13.482,13.482,0,0,1,6.179-4.615l.461-1.575-1.538-2.176a8.813,8.813,0,0,0-4.81,2.14,13.051,13.051,0,0,0-2.695,4.087C-858.033,189.354-857.228,190.072-856.463,190.719Zm-1087.933-.05c1.439-.9,1.936-2.54,3.184-2.471-1.036-2.228-1.79-4.132-1.79-4.132l-2.773-1.72-.415.382A52.88,52.88,0,0,1-1944.4,190.669Zm685.726-4.684c1.175,1.4,2.519,2.979,3.946,4.617l10.025-3.411c1.8-.556,4.738-2.4,7.879-4.628a10.08,10.08,0,0,1-3.737-.747c-1.906-.874-6.955-2.558-6.955-2.558l3.99,6.571s-9.745,3.166-9.807-1.234c-.04-2.933-3.841-5.283-6.383-6.542A27,27,0,0,1-1258.671,185.985Zm-341.9.033a51.391,51.391,0,0,1,3.855,4.44q2.21-.749,4.617-1.5l-.109-1.534a11.824,11.824,0,0,1,.549-1.423q-.106-.162-.2-.338a12.811,12.811,0,0,0-.969-1.543c-.183.5-.287.821-.287.821l-1.3-2.59a6.115,6.115,0,0,0-.491-.406l.19,5.148-3.412-2.4-1.883-4.18-.658.5s.82,2.75-.527,4.459A6.863,6.863,0,0,1-1600.573,186.018ZM-2051.034,190a9.812,9.812,0,0,1,.369-1.706l-1.1,1.235Q-2051.38,189.793-2051.034,190Zm388.787-3.069c1.094.875.712,1.29,2.784,2.94,3.257-1.193,5.959-2.053,5.959-2.053,2.823-.139,2.946-3.073,4.683-2.567-.138-3.578,2.558-5.748,4.019-7.943-3.028,0-5.641.237-6.362.973-2,2.038-4.415,4.078-4.415,4.078l2.682-5.926-1.294-1.226s-1.635.728-3.583,4.046a9.571,9.571,0,0,1-5.666,4.139l3.443-7.9-4.1,1.495s-2.266,3.284-4.836,4.483C-1667.379,182.671-1664.361,185.242-1662.247,186.93Zm955.085,2.868,2.513-5.767-5.494,2s-.38.551-1.024,1.334C-709.443,188.357-707.993,189.266-707.162,189.8ZM-1832.027,186.3l1.937,2.143,3.949-2.819a5.375,5.375,0,0,1-4.047-1.532l-.433,1.3a11.513,11.513,0,0,1-1.611-6.66c-.175-.616-.363-1.257-.542-1.911A20.044,20.044,0,0,0-1832.027,186.3Zm1195.811.1.682,1.818c.478-.433.951-.84,1.413-1.212l-1.332-1.179A1.286,1.286,0,0,1-636.216,186.4Zm-145.427,1.136.137-.315-.277-.172Zm-1090.268-.11a12.493,12.493,0,0,1,.882-.978l-.107-.118-1.83-2.232c-.118.184-.234.377-.348.576Zm-19.613-1.552c.013-.415.022-.661.022-.661l-.3.585Zm1176.284-.7c.642-.919,1.113-1.545,1.113-1.545l-1.459,1.377Zm-578.146-.573,1.585-5.669s-1.164.994-3.242,2.963C-1294.5,182.794-1293.947,183.7-1293.386,184.61Zm-310.94-.8c-.044-.158-.086-.316-.124-.471h-1.174l0,0-.011.029C-1605.19,183.5-1604.751,183.645-1604.326,183.806Zm14.349-.652q.238-.314.505-.625l-1.729-2.109-.088.164Zm652.469-5.079c1.006,1.886,3.915,3.512,7.313,4.838,2.1-1.246,4.507-2.882,6.976-4.661-2.163-.684-10.417-3.333-18.446-6.392A53.74,53.74,0,0,1-937.508,178.074Zm-309.565-3.668c2.793.724,9.206,6.571,10.627,7.891,6.355-4.547,13.376-10.508,13.376-10.508a10.269,10.269,0,0,0,.635-2.761l-8.109,1.069-2.58-7.042a57.242,57.242,0,0,0-4.345,7.378c-1.28,2.93-4.975,3.111-4.975,3.111l2.439-8.724s-1.789,1.527-4.916,4.549a11.618,11.618,0,0,1-4.732,2.913A8.144,8.144,0,0,0-1247.073,174.406Zm-582.129,6.726a7.6,7.6,0,0,1,.829-.392l.68-3.913a.5.5,0,0,1-.045-.094Zm1320.334-.145a63.389,63.389,0,0,1,3.812-5.738l-5.172,4.879Zm-1161.589-.219c.6-1.873,3.375-5.569,3.375-5.569l-3.6,3.4c-3.248,2.092-2.956-1.143-2.956-1.143l7.177-8.078.062-.021-4.41-4.473.131,4.433-7.127-5.67-.408-.141c3.366,5.188,2.358,10.4-1.264,4.117a5.953,5.953,0,0,0-3.583-2.635,22.013,22.013,0,0,1,.472,6.88l2.7,1.327a17.476,17.476,0,0,1,1.33,5.094c.065,2.214,2.94,1.022,2.94,1.022A20.941,20.941,0,0,1-1670.457,180.767Zm-151.9-.946-.454-1.235-1.37-.966v.3c.116.633.224,1.267.319,1.882q.275-.01.544-.01C-1822.988,179.791-1822.667,179.8-1822.356,179.821Zm1199.868-.685q.571.173,1.168.385a200.418,200.418,0,0,1,29-11.3l-.143-2.025s2.311-8.005,9.242-10.411l.461-1.574-1.538-2.176a8.8,8.8,0,0,0-4.809,2.14c-2.364,1.994-4.555,8.74-4.555,8.74l-4.633-9.246-5.345,4.052s1.4,4.676-1.579,6.714c-1.811,1.24-2.866-1.389-3.416-3.649h-1.551l-.006-.005c-.792,2.12-1.9,5.126-2.821,7.832-1.654,4.808-1.044-11.325-1.044-11.325l-3.982,7.765c.143,3.8-4.672,5.927-4.672,5.927l2.582-12.441-7.036,7.909c-5.349,4.064-3.154-2.681-3.154-2.681l-4.464,5.026C-629.766,174.048-625.065,178.352-622.488,179.136Zm-962.562-.243.015.037.168-.573-1.165-1.647a5.773,5.773,0,0,0-1.752.457C-1586.137,178.168-1585.049,178.893-1585.049,178.893Zm-383.854-.409.914-1.029a14.175,14.175,0,0,1-.085-2.43c-.2-.706-.416-1.442-.621-2.191A21.782,21.782,0,0,0-1968.9,178.484Zm1009.6-26.81,8.076,8.933,16.033,9.9,12.105,7.646c4.3-3.108,8.772-6.642,12.057-9.307-2.611-1.378-7.026-9.846-7.026-9.846l-3.473-2.447c-1,1.6-2.154,3.53-3,5.244.273,1.758.2,2.9-.668,2.29a3.178,3.178,0,0,1-.336-.279c-1.986,3.017-6.09,3.218-6.09,3.218l2.509-8.977c-.222-.454-.438-.908-.644-1.35-.824.742-2.009,1.828-3.512,3.253.024.714-.065,1.185-.294,1.346-.279.2-.585.108-.908-.2l-.424.409c-4.119,3.992-7.794,4.16-7.794,4.16l2.3-3.178a22.929,22.929,0,0,1-1.842-4.055c-1.093.245-2.346.508-3.764.778-3.468.655-4.356-.346-3.975-1.346a2.876,2.876,0,0,1,3.271-1.467,5.383,5.383,0,0,0,3.514-.723C-944.581,151.422-945.7,147-945.7,147l-1.888-5.133-1.74-1.227v.379c.843,4.622,1.391,9.275.153,9.192a1.353,1.353,0,0,1-.461-.175c-.2,2.435-.524,3.911-1.093,2.036a20.132,20.132,0,0,0-3.944-7.38l.879-5.062a.622.622,0,0,1-.057-.119l-3.664,11.012a14.64,14.64,0,0,1-2.048-8.464c-.221-.782-.461-1.6-.688-2.429A25.473,25.473,0,0,0-959.306,151.674Zm420.829,7,8.076,8.933,16.033,9.905.385.243,7.825-8.808a73.73,73.73,0,0,1-4.779-9.863l-3.781-2.344c1.7,5.9,2.848,10.951,1.978,11.565-1,.708-2.365-2.284-3.548-5.76.09,4.906-.105,10.075-1.543,7.249a1.3,1.3,0,0,1-.122.288C-519.946,173.4-524.875,154-524.875,154l-1.888-5.133-1.74-1.227v.379c.843,4.622,1.391,9.274.154,9.191a1.329,1.329,0,0,1-.462-.174c-.2,2.434-.524,3.911-1.092,2.036a20.141,20.141,0,0,0-3.945-7.38l.88-5.062a.624.624,0,0,1-.058-.119l-3.664,11.012a14.635,14.635,0,0,1-2.047-8.464c-.221-.782-.462-1.6-.689-2.429A25.461,25.461,0,0,0-538.476,158.674Zm-1284.117-.683,2.516,6.707c2.829.738,5.477,1.825,7.088,3.425a72.4,72.4,0,0,1,6.123,7.294c5.764-2.27,11.624-4.135,11.624-4.135,3.744-.183,3.907-4.075,6.212-3.4-.182-4.747,3.394-7.627,5.332-10.538-4.017,0-7.484.314-8.44,1.292-.795.812-1.64,1.623-2.434,2.362l2.754,6.92s-2.8,2.375-7.317-2.61l-3.016-3.678-.124.137,4.8,9.415s-3.872-.548-5.432-3.462a14.416,14.416,0,0,0-2.578-3.479c-.314.171-.616.32-.9.449l.173,4.686-3.951-2.781-2.6-5.773a15.216,15.216,0,0,1-1.595,1.262l-1.225,1.038-.235-.208a6.573,6.573,0,0,1-.967.351c-1.3.358-1.3-.536-.749-1.871l-1.842-1.63c-2.884,1.116-2.583-2.223-2.583-2.223l.031-.035-.008-.007A1.113,1.113,0,0,1-1822.594,157.991Zm1029.04-4.982,3.2,8.523c3.595.938,6.961,2.319,9.006,4.352a93.179,93.179,0,0,1,7.926,9.462,105.361,105.361,0,0,0,9.007-6.424,8.361,8.361,0,0,1-4.117-3.554,18.762,18.762,0,0,0-1.952-2.956,4.672,4.672,0,0,1-2.364,1.9l.117,3.164-5.02-3.534-.746-1.656a7.9,7.9,0,0,1-3.74,1.538l2.733-3.772-.7-1.556c-1.047.267-2.463.594-4.277.939l-.06.011-.1.083-.062-.055c-2.174.363-2.732-.3-2.482-.954a1.573,1.573,0,0,1,.608-.705l-6.137-5.433A1.415,1.415,0,0,1-793.553,153.009Zm-86.116,12.858c1.932,2.3,4.174,4.934,6.552,7.649,6.7-2.7,13.9-4.988,13.9-4.988,4.152-.2,4.333-4.519,6.888-3.775a9.88,9.88,0,0,1,.877-4.456,10.2,10.2,0,0,1-1.574-.562c-1.334-.612-3.716-1.494-5.846-2.25-.86.792-1.645,1.49-2.244,2.015l3.727,6.138s-14.336,4.658-14.426-1.816a5.587,5.587,0,0,0-.543-2.278,11.166,11.166,0,0,1-1.476.475l.749-1.719a17.022,17.022,0,0,0-4.705-4.183,19.066,19.066,0,0,1-2.441,2.083A49.851,49.851,0,0,1-879.669,165.867Zm-1003.051,6.869q.3.091.611.2c4.178-1.561,7.845-2.728,7.845-2.728,3.267-.159,3.409-3.556,5.421-2.97-.159-4.143,2.961-6.655,4.652-9.2-3.5,0-6.53.274-7.366,1.127-2.31,2.36-5.111,4.72-5.111,4.72l3.1-6.859-1.5-1.419s-1.894.842-4.147,4.683a11.079,11.079,0,0,1-6.558,4.792l3.984-9.143-4.752,1.732s-3.191,4.625-6.525,5.534,3.079-7.607,3.079-7.607l-4.172,3.936a3.276,3.276,0,0,1-2.446.77C-1891.141,166.305-1885.5,171.89-1882.72,172.736Zm632.506-1.055,4.233-5.842a53.267,53.267,0,0,1-7.338,1.793q-.153.029-.3.052C-1252.385,169.2-1251.224,170.576-1250.214,171.681Zm62.479-1.623.727-1s-.364.132-1.12.356Zm-430.3-17.5c4.51,5.371,11.514,13.406,16.165,17.219,4.882-1.93,9.9-3.526,9.9-3.526,3.143-.153,3.28-3.42,5.214-2.857-.153-3.983,2.848-6.4,4.474-8.842-3.37,0-6.28.264-7.083,1.084-2.222,2.27-4.916,4.54-4.916,4.54l2.986-6.6-1.441-1.365s-1.821.81-3.988,4.5a10.659,10.659,0,0,1-6.308,4.608l3.832-8.792-4.57,1.665s-3.069,4.448-6.276,5.322c-2.407.663.479-3.806,2.06-6.065q-.23.019-.458.032l-2.653,2.5c-3.615,2.329-3.29-1.273-3.29-1.273l2.065-2.325a2.1,2.1,0,0,1-.368-1.223c-.04-2.933-3.841-5.283-6.383-6.542A27,27,0,0,1-1618.034,152.555Zm508.915,16.737,2.587-5.936-6.038,2.2s-.141.2-.4.544C-1111.614,167.164-1110.282,168.284-1109.119,169.292Zm-11.421-1.02.006-.01-.015,0Zm210.749-.433c.987-.808,1.822-1.5,2.452-2.024l-4.138-3.921-.916.121A23.045,23.045,0,0,1-909.791,167.839Zm147.055-.239c1-.8,1.926-1.543,2.715-2.187a14.97,14.97,0,0,1-3.724-3.11l-3.99-4.867-.1.164Zm-268.581-1.636.56,1.493q.9-.365,1.847-.734l-1.57-1.389A1.41,1.41,0,0,1-1031.317,165.964Zm527.192.714,5.29-1.8-7.193-5.067S-504.851,163.49-504.125,166.677Zm-686.083-.692c.206-.162.393-.316.56-.455-.641-.219-1.052-.356-1.052-.356Zm541.725-12.655c2.887,3.438,6.537,7.692,10.242,11.753a67.612,67.612,0,0,1,4.7-5.874l7.131-5.09a6.452,6.452,0,0,1-3.033-.636c-3.254.884-11.825,2.758-11.891-2.013-.054-3.925-5.142-7.07-8.543-8.755C-648.546,146.483-648.48,151.782-648.483,153.33Zm-1308.543-2.082,2.883,7.687c3.242.845,6.277,2.092,8.122,3.925q.48.477.981,1.014c1-.593,2.1-1.3,3.242-2.081l-.979-.69-3.013-6.69-3.2,2.711-7.282-6.445A1.274,1.274,0,0,1-1957.027,151.249Zm839.917,11.887c.1-.138.159-.214.159-.214l-.2.188Zm590.622-40.441,3.2,8.523c3.595.938,6.961,2.319,9.006,4.352,6.363,6.323,15.434,20.088,15.434,20.088s3.315,3.074,7.422,6.7l3.584-1.219c7.253-2.243,28.582-20.354,28.582-20.354a13.592,13.592,0,0,0,.838-3.649l-10.715,1.413-3.409-9.306a75.874,75.874,0,0,0-5.742,9.75c-1.69,3.873-6.574,4.111-6.574,4.111l3.223-11.527s-2.364,2.019-6.5,6.01-7.794,4.16-7.794,4.16l4.369-6.029a9.425,9.425,0,0,1-2.7-1.481q-1.174.279-2.657.594l2.359,4.623s-4.517-.64-6.639-3.951c-1.833-.007-2.3-.781-2.005-1.556a2.1,2.1,0,0,1,.579-.795,15.513,15.513,0,0,0-3.317-3.567l.28,7.574-5.02-3.534-3.342-7.418-3.546,3.006-8.075-7.146A1.412,1.412,0,0,1-526.487,122.694Zm-378.744,38.687q.022-.155.043-.317l-.368.049Zm-1033.2-1.98q.577-.424,1.153-.855a10.382,10.382,0,0,0-1.224-1.085Zm33.227-8.986c2.207,2.628,4.93,5.808,7.744,8.936a3.43,3.43,0,0,1-.115-1.142l6.285-7.074c-3.306.619-7.687.84-7.731-2.329-.046-3.4-4.447-6.115-7.389-7.573A31.2,31.2,0,0,1-1905.2,150.415Zm109.341,8.91,1.423-3.144-1.717-1.626a9.394,9.394,0,0,0-2.982,2.749C-1797.742,158.134-1796.589,158.859-1795.862,159.326Zm779.634-1.35c.95.288,1.953.653,2.985,1.072.361-1.117,2.83-8.049,9.195-10.258l.461-1.575-1.538-2.176a8.815,8.815,0,0,0-4.81,2.14c-2.363,2-4.554,8.74-4.554,8.74l-4.633-9.246-5.345,4.052a8.966,8.966,0,0,1,.266,1.408C-1020.918,155.2-1018.076,157.413-1016.228,157.975Zm154.712.861.891-1.967c-1.522-.528-2.63-.9-2.63-.9Zm-75.584-.885.565-.781-.081-.215c-.124.041-.285.092-.484.154Q-937.1,157.536-937.1,157.952Zm87.127-.214c1.18-1.688,2.564-3.175,3.558-4.67a29.84,29.84,0,0,0-8.187.788C-852.937,155.177-851.317,156.557-849.972,157.738Zm-1083.673-1.976.2-.158-.745-.909Zm5.269-4.23c1.5-1.233,2.432-2.025,2.432-2.025a10.68,10.68,0,0,0,.66-2.871l-8.432,1.111-2.683-7.322s-1.745,2.521-3.188,5.067A98.139,98.139,0,0,1-1928.377,151.532ZM-630.4,149.514a7.6,7.6,0,0,1,1.945-.979,14.894,14.894,0,0,1,4.068-.851c-2.654-1.187-9.161-3.357-9.161-3.357Zm-1258.234-.871,6.9-2.348a9.53,9.53,0,0,1-2.5-.705c-2.207-1.012-8.051-2.961-8.051-2.961Zm281.912-2.561.138-.155-.291-.1Zm-337.271-2.255.438-1.565s-.444.379-1.277,1.133A8.8,8.8,0,0,0-1943.994,143.827Zm996.676-28.133,3.2,8.523c3.595.938,6.961,2.32,9.006,4.352A119.283,119.283,0,0,1-924.1,142.252c6.216-3.038,14.913-12.317,14.913-12.317s.295-.55.779-1.493c-.819.513-4.15,2.012-9.1-3.455l-4.486-5.47,6.6,12.935s-4.92-.7-6.9-4.4a16.775,16.775,0,0,0-4.479-5.469l.28,7.574-5.02-3.533-3.342-7.419-3.547,3.006-8.074-7.146A1.408,1.408,0,0,1-947.318,115.694Zm-97.483,13.918c2.647,3.152,5.876,6.927,9.238,10.683,6.421-3.936,22.584-9.081,22.584-9.081,4.152-.2,4.333-4.52,6.889-3.775-.2-5.264,3.763-8.456,5.912-11.685-4.454,0-8.3.348-9.36,1.431-1.761,1.8-3.746,3.6-5.053,4.75,1.736,1.538,2.9,2.639,2.9,2.639a16.009,16.009,0,0,1-6.464-1.094c-.946-.434-2.42-1-3.957-1.569a14.893,14.893,0,0,1-3.629,2.164l3.222,5.308s-14.335,4.658-14.426-1.816c-.058-4.315-5.651-7.771-9.389-9.623C-1044.869,122.086-1044.8,127.911-1044.8,129.612Zm-692.058,7.822-.036-.621s1.469-6.247,5.875-8.124l.293-1.229-.978-1.7a5.077,5.077,0,0,0-3.057,1.67c-1.5,1.557-2.9,6.82-2.9,6.82l-2.945-7.215-3.025,2.814C-1741.478,132.332-1739.164,134.942-1736.858,137.434Zm1238.7-5.015a8.1,8.1,0,0,0,1.409-.511l-4.421-5.392Zm-528.506-9.861.855-1.961c-1.5-.518-2.58-.88-2.58-.88Zm11.443-1.175,3.131-6.914-1.9-1.8s-2.264,1.007-5.013,5.52C-1017.645,119.284-1016.339,120.4-1015.217,121.383Zm-733.14-1.037c1.467-.826,3.144-1.656,4.76-2.408a24.876,24.876,0,0,0-5.972-3.957A26.837,26.837,0,0,1-1748.357,120.346Zm725.025-5.425.8-1.835-2.326.847C-1024.367,114.23-1023.856,114.562-1023.331,114.921Zm-709.468-5.78a5.853,5.853,0,0,1,.774.267c.688-2.646,2.419-4.565,3.467-6.5-2.831,0-5.276.272-5.95,1.117-.6.751-1.239,1.5-1.832,2.176C-1734.758,107.876-1733.51,108.96-1732.8,109.141Zm-4.521-4,1.192-3.232-1.211-1.408a7.055,7.055,0,0,0-2.036,2.276C-1738.656,103.625-1737.967,104.42-1737.321,105.137Z" transform="translate(2153.499 1.661)" fill="#051115" stroke="rgba(0,0,0,0)" stroke-miterlimit="10" stroke-width="1"/>
</svg>
