<svg xmlns="http://www.w3.org/2000/svg" width="467.525" height="747.261" viewBox="0 0 467.525 747.261">
  <path id="Path_4" data-name="Path 4" d="M325.891,646.162l-4.344-6.045c19.763,1.38-13.591-20.4-13.591-20.4-13.653-6.682-10.763-7.613-15.309-10.2-11.905-6.807-32.16-19.433-25.006-13.481-4.145-3.435-20.925-5.224-20.925-5.224s-9.882,2.924-10.111-2.515-4.546-12.523-4.546-12.523l-9.29-3.239c.835-4.578.19-10.965-1.622-16.89,5.237,1.176,9.658,3.153,12.318,6.471,12.706,15.787,16.11,2.029,3.515-11.058l26.706,15.191-.472-10.86,24.813,17.981,26.458,9.751s-4.363-7.977-20.814-18.173c-16.457-10.171-43.163-25.374-43.163-25.374s-42.323-6.333-48.789-16.931a95.987,95.987,0,0,0-9.021-11.885c20.366,6.794,41.437,12.55,41.437,12.55l-27.364-15.158-34.977-18.992-17.648-17.109a43.151,43.151,0,0,1-2.069-23.086c.485,1.557.973,3.075,1.458,4.533a25.35,25.35,0,0,0,4.512,16.347l8-21.1c.034.078.1.159.133.25l-1.938,9.684a37.349,37.349,0,0,1,8.625,14.151c1.236,3.594,1.958.737,2.4-3.909a2.266,2.266,0,0,0,1,.31c2.687.17,1.5-8.732-.342-17.635v-.681l3.79,2.352,4.133,9.822s10.755,37.212,15.111,30.845a4.481,4.481,0,0,0,.256-.539c3.161,5.519,3.573-4.481,3.372-13.909,2.588,6.643,5.558,12.385,7.759,11.019,1.891-1.184-.6-10.834-4.324-22.142l8.231,4.494s8.857,19.592,14.349,22.982S225,474.188,225,474.188l19.211,11.9s11.517,19.474,16.851,19.244-7.451-17.844-7.451-17.844l16.623,13.8c12.62,13.981,28.217,4.23,17.331-.73-10.912-4.987-46.877-34.3-46.877-34.3s-19.84-26.365-33.709-38.472c-4.473-3.9-11.818-6.525-19.7-8.332l-6.951-16.332a2.958,2.958,0,0,0,1.826-1.223l17.615,13.718,7.765-5.782,7.294,14.224,10.957,6.773-.616-14.493a33.688,33.688,0,0,1,9.8,10.472c4.3,7.057,15.046,8.411,15.046,8.411L235.64,410.5l.037.015,9.725,10.391c12.529,12.167,20.3,6.372,20.3,6.372L256.848,407.7s-26.031-15.2-43.585-19.907c-12.109-3.232-43.834-34.925-62.374-54.318.019-3.278-.172-14.441-3.331-22.364,8.14,3.534,20.333,10.169,20.465,18.434.222,12.417,31.516,3.482,31.516,3.482l-12.813-18.52s16.227,4.764,22.351,7.221,14.107,2.1,14.107,2.1-24.92-20.708-35.044-23c-7.6-1.708-40.582-40.826-56.5-60.115l-7.1-21.548L114.9,181.46s-10.386,22.233-8.5,34.859S86.438,264.6,86.438,264.6,62.056,287.446,48.818,289.83s-25.95,17.458-25.95,17.458-11.616,9.579-18.356,8.054-13,7.832,1.583,5.375c10.634-1.785,17-3.377,19.664-4.107a2.976,2.976,0,0,0,.448.829L13.288,333.12s8-.336,17.023-8c9.008-7.647,14.185-11.5,14.185-11.5l-7.063,22.093s10.662-.472,14.355-7.864c3.693-7.43,12.55-18.7,12.55-18.7l7.443,17.818,23.4-2.681a23.272,23.272,0,0,1-1.859,6.977s-46.561,34.676-62.4,39l-35.589,10.6L-27.721,403.64s-.939,9.12,9.48,3.234l11.6-9.579s-17.792,20.742-8.541,18.527c9.243-2.235,18.1-13.5,18.1-13.5L16.1,398.134l-.355.715a5.9,5.9,0,0,0-.93,1.871L5.044,420.381S16.955,418.055,23.23,408.7c6.273-9.322,11.517-11.392,11.517-11.392l4.171,3.469-8.625,16.7s7.765-5.767,14.183-11.5c2.339-2.076,10.722-2.746,20.434-2.746-4.7,6.17-13.35,12.3-12.91,22.4-5.578-1.452-5.959,6.826-15.046,7.219,0,0-46.173,12.876-53.854,20.473,0,0-12.232-4.916-25.4-.724-13.167,4.206-3.523,11.052,4.466,10.711l-15.6,9.749s-29.486,28.506-8.306,23.955l15.354-15.178s-4.776,12.9,6.906,5.145L-24.114,471.8l-5.649,23.837s10.511-4.087,10.19-11.327l8.711-14.915s-1.354,30.931,2.274,21.694c3.6-9.224,8.474-20.34,8.474-20.34s2.024,16.268,8.528,12.339c6.51-3.9,3.456-12.85,3.456-12.85l11.681-7.766,10.111,17.727s4.776-12.917,9.96-16.78a21.019,21.019,0,0,1,10.505-4.074l3.331,4.152-.947,2.892c-15.234,4.559-20.241,20.077-20.241,20.077l.321,3.863c-52.5,14.342-80.211,29.21-88.476,34.176-13,7.819-32.074,30.42-32.074,30.42s-15.27,17-5.959,16.608c9.342-.407,12.863-11.457,12.863-11.457l14.276-9.684L-72.356,576.2s16.7-15.221,17.73-22.534,12.852-11.457,12.852-11.457L-43.258,569.5s2.588-1.919,8.928-9.46c6.359-7.542,5.808-20.223,9.8-20.394,4.008-.17,14.519-4.257,14.519-4.257l-3.258,13.494a4.8,4.8,0,0,0-2.78,1.3c-9.006,8.114-14.605,9.71-14.605,9.71s-4.684,7.464-8.528,11.248c6.624-6.531-21.733,6.833-23.2,19.157-.777,6.413-4.094-1.635-17.114,6.2,0,0-19.6,17.18-3.693,14.67l-13.963,16.944s-29.078,37.566-18.427,37.1C-104.909,664.74-97.7,646.3-97.7,646.3s-4.7,14.711,6.043,16.065,20.46-20.841,20.46-20.841L-56.7,623.6c.009.454.021.905.041,1.342-2.132,7.311-8.257,30.543.655,28.631,10.591-2.287,4.167-27.423,16-31.576,11.844-4.126,24.793-13.756,24.793-13.756s-8.093,29.393-1.734,21.851,19.842-35.352,26.5-35.636c6.641-.287-6.282,40.208,19.039,8.252C41.066,587,45.192,580.87,46.191,578.7l18.927,4.283c.92,2.248,1.88,4.494,2.845,6.715l-13.586,7.765s-3.312-.986-4.384,7.01c-1.051,7.97-7.365,8.573-7.365,8.573a39.047,39.047,0,0,1-4.914,11.065c4.875-6.885-15.367,9.288-20.786,13.677a104.189,104.189,0,0,0-14.172,5.532s-7.1,8.173-7.725,13.4c-2.767,2.042-5.44,3.936-7.753,5.537-8.455,1.314-19.4,4.139-28.48,10.434L-65.6,699.745l-21.248,16.728s-21.589,36.633,8.771,12.062l15.314-20.393,11.9,1.7-18.71,20.406s-23.712,30.668,11.246,3.14c10.625-8.356,19.368-21.832,19.368-21.832l13.233-6.366c-7.24,14.2-16.28,33.7-12,34.9,6.8,1.906,15.44-23.282,15.44-23.282s-6.222,20.346.2,24.912,9.874-24.683,9.874-24.683l3.291-2.66a54.624,54.624,0,0,0,6.59,7.527c-.039,7.793.8,16.005,4.585,15.6,7.141-.762,10.584-32.345,18.948-35.53.245-.091.487-.25.756-.355,1.471,8.364,3.719,17.14,7.115,21.746-5.151,17.7-13.533,48.6-9.913,50.443,5.086,2.582,10.933-29.268,10.933-29.268s-4.16,25.734.723,31.706,12.4-32.016,12.4-32.016l9.632-29.931s-6.833,36.192-1.557,35.4,5.769-22.534,11.879-26.4c6.129-3.852,3.993-.159,3.993-.159s-.874,29.315,3.108,17.424c2.227-6.65,4.415-18.345,6.45-27.121L81.3,726.379l2.319-.807c1.09,10.3,3.508,14.577,11.142-13.173,6.051-22.022,7.746-28.921,7.746-28.921l3.34-.98,4.413,41.05s-.021,46.285,3.049,70.645c3.054,24.375-11.866,127.372-11.866,127.372,46.666,19.991,49.044-8.244,49.044-8.244s-7.785-87.71-6.15-95.947c1.663-8.246-8.088-94.948-8.088-94.948l-.631-14.607c9.917,16.98,1.467-27.2,5.179-27.341,4.3-.19,15.537,40.175,20.307,50.857s-3.135-32.548-3.135-32.548,9.2,13.24,17.181,18.317c7.981,5.112,6.181,43.3,13.192,45.714,7,2.438-2.858-46.16-2.858-46.16l11.5,26.746s8.3,32.305,15.059,29.3c6.781-3.023,2.4-24.61,2.4-24.61s6.335,26.962,13.212,26.673c6.9-.3-15.249-53.8-15.249-53.8l-10.531-24.065c10.453,2.272,8.017-24.164-1.064-34.677a7.063,7.063,0,0,0-5.065-2.655c-.743-2.167-1.294-3.652-1.294-3.652s13.731,8.489,25.878,11.6,7.91,28.7,18.647,30.044-2.655-30.741-2.655-30.741L253.1,684.24s11.6,21.287,22.179,19.013,4.632-16.53,4.632-16.53,8.778,17.766,19.442,17.307-21.557-35.36-21.557-35.36l-15.367-15.69c6.012.422,9.389-1.766,10.539-5.044,6.616,7.569,5.039,25.99,14.118,27.134,10.742,1.354-2.66-30.748-2.66-30.748l16.773,17.43s11.6,21.266,22.187,19.007S328,664.229,328,664.229s8.784,17.766,19.433,17.3C358.109,681.087,325.891,646.162,325.891,646.162Z" transform="translate(117.924 -181.46)" fill="#122B34"/>
</svg>
